<?xml version="1.0" standalone="no"?>
<!DOCTYPE svg PUBLIC "-//W3C//DTD SVG 1.1//EN" "http://www.w3.org/Graphics/SVG/1.1/DTD/svg11.dtd" >
<svg>
<metadata>
Created by FontForge 20120731 at Fri Sep 20 04:57:23 2019
 By www
(c) 2018 MCKL, Inc. All rights reserved.
</metadata>
<defs>
<font id="UberMoveText-Regular" horiz-adv-x="605" >
  <font-face 
    font-family="Uber Move Text"
    font-weight="400"
    font-stretch="normal"
    units-per-em="1000"
    panose-1="2 1 5 3 3 2 1 6 3 3"
    ascent="800"
    descent="-200"
    x-height="527"
    cap-height="700"
    bbox="-79 -256 2101 972"
    underline-thickness="50"
    underline-position="-75"
    unicode-range="U+000D-FB02"
  />
<missing-glyph horiz-adv-x="514" 
d="M60 750h394v-850h-394v850z" />
    <glyph glyph-name=".notdef" horiz-adv-x="514" 
d="M60 750h394v-850h-394v850z" />
    <glyph glyph-name=".null" horiz-adv-x="0" 
 />
    <glyph glyph-name="nonmarkingreturn" horiz-adv-x="333" 
 />
    <glyph glyph-name="NULL" horiz-adv-x="223" 
 />
    <glyph glyph-name="NULL" horiz-adv-x="223" 
 />
    <glyph glyph-name="CR" unicode="&#xd;" horiz-adv-x="223" 
 />
    <glyph glyph-name="space" unicode=" " horiz-adv-x="223" 
 />
    <glyph glyph-name="exclam" unicode="!" horiz-adv-x="207" 
d="M70 186l-6 544h79l-6 -544h-67zM104 94q21 0 36 -15t15 -37q0 -21 -15 -36t-36 -15t-36 15t-15 36q0 22 15 37t36 15z" />
    <glyph glyph-name="quotedbl" unicode="&#x22;" horiz-adv-x="304" 
d="M51 525zM51 732h73l-6 -207h-62zM181 732h73l-6 -207h-62z" />
    <glyph glyph-name="numbersign" unicode="#" horiz-adv-x="643" 
d="M130 218h-110v59h127l42 146h-119v59h136l62 218h72l-62 -218h164l62 218h71l-62 -218h109v-59h-126l-42 -146h118v-59h-135l-62 -218h-71l62 218h-164l-62 -218h-72zM383 277l42 146h-164l-42 -146h164z" />
    <glyph glyph-name="dollar" unicode="$" horiz-adv-x="548" 
d="M241 -64v83q-84 13 -138.5 65.5t-63.5 134.5h76q9 -54 41.5 -88.5t84.5 -45.5v237l-38 11q-161 47 -161 173q0 40 15 72.5t41.5 55.5t63 36.5t79.5 15.5v76h63v-80q79 -14 130 -66t61 -133h-76q-8 53 -37.5 86.5t-77.5 45.5v-233l38 -11q81 -24 122.5 -65.5t41.5 -107.5
q0 -39 -14 -72t-40.5 -57t-64 -38t-83.5 -16v-79h-63zM241 398v223q-54 -4 -88.5 -33.5t-34.5 -75.5q0 -42 27 -67.5t82 -42.5zM304 306v-226q60 4 93 33.5t33 76.5q0 42 -28 69t-88 44z" />
    <glyph glyph-name="percent" unicode="%" horiz-adv-x="856" 
d="M215 369q-36 0 -67.5 13.5t-54.5 36.5t-36.5 55t-13.5 68q0 34 13 64.5t36 53.5t54.5 36.5t68.5 13.5q36 0 66.5 -13.5t53 -36.5t35.5 -53.5t13 -64.5q0 -36 -13 -68t-36 -55t-53.5 -36.5t-65.5 -13.5zM204 0l383 700h65l-383 -700h-65zM215 425q22 0 42 9.5t35 25.5
t23.5 37t8.5 45q0 23 -9 43.5t-24 35.5t-34.5 24t-41.5 9q-23 0 -43.5 -9t-35.5 -24t-24 -35.5t-9 -43.5q0 -24 8.5 -45t23.5 -37t35.5 -25.5t44.5 -9.5zM642 331q36 0 67 -13.5t54.5 -36.5t36.5 -55t13 -68q0 -34 -13 -64.5t-36 -53.5t-54.5 -36.5t-67.5 -13.5t-66.5 13.5
t-53.5 36.5t-36 53.5t-13 64.5q0 36 13 68t36 55t54 36.5t66 13.5zM642 275q-23 0 -43 -9.5t-35 -25.5t-23.5 -37t-8.5 -45q0 -23 9 -43t24 -35t35 -24t42 -9q23 0 43.5 9t35.5 24t24 35t9 43q0 24 -8.5 45t-23.5 37t-35.5 25.5t-44.5 9.5z" />
    <glyph glyph-name="ampersand" unicode="&#x26;" horiz-adv-x="661" 
d="M457 88q-46 -53 -93.5 -75.5t-110.5 -22.5q-46 0 -85.5 14t-68 39t-45 59.5t-16.5 74.5q0 61 29.5 103.5t95.5 79.5l35 20l-7 7q-40 45 -57 81t-17 76q0 36 12.5 65.5t35.5 51.5t54 34t69 12q37 0 69 -11.5t54.5 -32.5t35.5 -49.5t13 -62.5q0 -52 -27 -90t-85 -72
l-38 -22l147 -164l3 5l109 174l61 -35l-111 -174q-4 -6 -7.5 -12t-7.5 -11l42 -47q16 -18 31.5 -25.5t32.5 -7.5h31v-70h-43q-35 0 -58.5 11t-49.5 40zM265 418l45 25q74 41 74 104q0 40 -27 67t-68 27q-42 0 -68.5 -26t-26.5 -69q0 -26 13.5 -52t42.5 -59zM117 180
q0 -26 10.5 -48t29.5 -38.5t44 -26t55 -9.5q48 0 83.5 18t71.5 63l-168 189l-46 -27q-80 -47 -80 -121z" />
    <glyph glyph-name="quotesingle" unicode="'" horiz-adv-x="175" 
d="M51 732h73l-6 -207h-62z" />
    <glyph glyph-name="parenleft" unicode="(" horiz-adv-x="368" 
d="M125 332q0 -140 56.5 -246t159.5 -168l-39 -56q-120 71 -185.5 191t-65.5 279t65.5 279.5t185.5 191.5l38 -56q-103 -62 -159 -168.5t-56 -246.5z" />
    <glyph glyph-name="parenright" unicode=")" horiz-adv-x="368" 
d="M28 0zM244.008 333.021q0 139.991 -56.4971 245.984q-56.4961 105.994 -159.49 167.99l38.998 55.9961q119.992 -70.9951 185.488 -190.988q65.4961 -119.992 65.4961 -278.982t-65.4961 -279.483q-65.4961 -120.492 -185.488 -191.488l-37.998 55.9971
q102.994 61.9961 158.99 168.489q55.9971 106.494 55.9971 246.485z" />
    <glyph glyph-name="asterisk" unicode="*" horiz-adv-x="419" 
d="M236 472l1 -133h-53l1 134l-116 -72l-29 46l120 72l-120 73l29 46l116 -72l-1 134h53l-1 -134l115 72l29 -46l-120 -73l120 -72l-29 -46z" />
    <glyph glyph-name="plus" unicode="+" horiz-adv-x="550" 
d="M243 144v182h-177v64h177v178h65v-178h176v-64h-176v-182h-65z" />
    <glyph glyph-name="comma" unicode="," horiz-adv-x="219" 
d="M44 -109q14 3 26.5 11t21.5 19t14.5 23.5t5.5 24.5q0 11 -8.5 17.5t-19 13.5t-19 17t-8.5 27q0 20 14.5 34t33.5 14q27 0 43.5 -21t16.5 -60q0 -62 -31.5 -107t-89.5 -55v42v0z" />
    <glyph glyph-name="hyphen" unicode="-" horiz-adv-x="456" 
d="M66 333h324v-69h-324v69z" />
    <glyph glyph-name="period" unicode="." horiz-adv-x="212" 
d="M106 94q21 0 36 -15t15 -37q0 -21 -15 -36t-36 -15t-36 15t-15 36q0 22 15 37t36 15z" />
    <glyph glyph-name="slash" unicode="/" horiz-adv-x="411" 
d="M14 0l304 700h79l-304 -700h-79z" />
    <glyph glyph-name="zero" unicode="0" horiz-adv-x="626" 
d="M65 440q0 62 18 112t50.5 85.5t78 54.5t101.5 19q55 0 101 -19t78 -54.5t50 -85.5t18 -112v-179q0 -62 -18 -112t-50 -85t-78 -54.5t-101 -19.5q-56 0 -101.5 19.5t-78 54.5t-50.5 85t-18 112v179zM483 436q0 97 -46 152t-124 55q-79 0 -125 -55t-46 -152v-170
q0 -97 46 -152.5t125 -55.5q78 0 124 55.5t46 152.5v170z" />
    <glyph glyph-name="one" unicode="1" horiz-adv-x="450" 
d="M404 0h-355v68h139v564h-131v68h208v-632h139v-68z" />
    <glyph glyph-name="two" unicode="2" horiz-adv-x="520" 
d="M467 511q0 -31 -6.5 -58t-20 -52.5t-33.5 -51.5t-46 -54l-209 -228l322 1v-68h-428v51l256 280q43 46 66 85.5t22 90.5q0 30 -11 54.5t-30 42.5t-45 28t-56 10q-51 0 -90.5 -26.5t-62.5 -72.5l-62 32q29 63 85.5 98.5t131.5 35.5q48 0 87.5 -15t68.5 -41.5t45 -63
t16 -78.5z" />
    <glyph glyph-name="three" unicode="3" horiz-adv-x="546" 
d="M255 710q45 0 84 -14.5t67 -40t44 -60t16 -74.5q0 -54 -29.5 -95.5t-79.5 -59.5q59 -18 95 -65.5t36 -110.5q0 -42 -16.5 -78.5t-46 -63.5t-71 -42.5t-90.5 -15.5q-83 0 -144 37t-90 100l63 34q23 -48 67.5 -76t102.5 -28q33 0 60 10t47 28.5t31 43.5t11 55q0 29 -10 53
t-28 41.5t-42.5 27.5t-53.5 10h-85v67h76q26 0 48.5 9t38.5 25.5t25 38.5t9 48q0 28 -10.5 52t-29 41t-44 26.5t-55.5 9.5q-52 0 -91 -26t-60 -70l-64 31q28 60 84.5 96t134.5 36z" />
    <glyph glyph-name="four" unicode="4" horiz-adv-x="584" 
d="M377 184h-346v58l324 458h99v-449h94v-67h-94v-184h-77v184zM377 251v370l-259 -370h259z" />
    <glyph glyph-name="five" unicode="5" horiz-adv-x="557" 
d="M282 438q48 0 88.5 -16t69.5 -45.5t45.5 -69.5t16.5 -88q0 -49 -17.5 -91t-48.5 -72.5t-73 -48t-91 -17.5q-79 0 -140 36t-91 101l64 35q23 -50 66 -77.5t98 -27.5q34 0 62.5 12t49.5 33.5t33 51t12 63.5t-11.5 62.5t-32.5 49.5t-49.5 32.5t-62.5 11.5q-80 0 -136 -53
l-63 9l17 371h370v-68h-304l-10 -246q55 52 138 52z" />
    <glyph glyph-name="six" unicode="6" horiz-adv-x="596" 
d="M313 644q-80 0 -128.5 -71t-48.5 -212v-58q9 34 27 61t42.5 46t54 28.5t62.5 9.5q47 0 87 -17t69 -46.5t45.5 -70t16.5 -87.5q0 -52 -17 -95.5t-47.5 -75t-72 -49t-89.5 -17.5q-57 0 -103.5 23t-79.5 65t-51 102t-18 134v58q0 79 17.5 141.5t50 106t79 67t103.5 23.5
q71 0 125 -35t85 -96l-63 -33q-22 45 -61 71.5t-85 26.5zM310 58q34 0 62.5 12t49.5 33.5t32.5 51.5t11.5 65t-11.5 65t-32.5 51.5t-49.5 34t-62.5 12.5t-62.5 -12.5t-49.5 -34t-32.5 -51.5t-11.5 -65t12 -64.5t33 -51.5t49.5 -34t61.5 -12z" />
    <glyph glyph-name="seven" unicode="7" horiz-adv-x="526" 
d="M166 0h-88l333 632h-381v68h467v-57z" />
    <glyph glyph-name="eight" unicode="8" horiz-adv-x="578" 
d="M289 -10q-50 0 -92.5 14.5t-73 41t-47.5 62.5t-17 80q0 65 38.5 111.5t101.5 63.5q-54 19 -85.5 60.5t-31.5 98.5q0 40 15.5 74.5t43 60t65.5 39.5t83 14q46 0 84 -14t65.5 -39.5t43 -60t15.5 -74.5q0 -57 -32 -98.5t-86 -60.5q64 -17 102.5 -63.5t38.5 -111.5
q0 -44 -17.5 -80t-48 -62.5t-73 -41t-92.5 -14.5zM289 393q58 0 95 34.5t37 90.5q0 57 -36.5 92t-95.5 35q-58 0 -95 -35t-37 -92q0 -56 37 -90.5t95 -34.5zM289 328q-34 0 -62 -10t-48.5 -28t-32 -43.5t-11.5 -55.5t11.5 -55t32 -43t48.5 -28t62 -10t62 10t48.5 28t32 43
t11.5 55t-11.5 55.5t-32 43.5t-48.5 28t-62 10z" />
    <glyph glyph-name="nine" unicode="9" horiz-adv-x="596" 
d="M56 0zM283.02 56.0391q79.9951 0 128.492 70.9961q48.4961 70.9951 48.4961 211.987v57.9961q-8.99902 -33.998 -26.998 -60.9961q-17.999 -26.999 -42.4971 -45.9971q-24.499 -18.999 -53.9971 -28.499q-29.498 -9.49902 -62.4961 -9.49902q-46.9971 0 -86.9941 16.999
q-39.998 16.999 -68.9961 46.4971t-45.4971 69.9961q-16.499 40.4971 -16.499 87.4941q0 51.9971 16.999 95.4941q16.999 43.498 47.4971 74.9961t71.9951 48.9961q41.498 17.499 89.4951 17.499q56.9961 0 103.493 -22.998q46.4971 -22.999 79.4951 -64.9961
t50.9971 -101.994q17.999 -59.9961 17.999 -133.991v-57.9971q0 -78.9951 -17.499 -141.491t-49.9971 -105.993q-32.498 -43.498 -78.9951 -66.9961q-46.4971 -23.499 -103.493 -23.499q-70.9961 0 -124.993 34.998q-53.9961 34.998 -84.9941 95.9941l62.9961 32.998
q21.998 -44.9971 60.9961 -71.4951q38.9971 -26.499 84.9951 -26.499zM286.019 642.004q-33.9971 0 -62.4961 -12q-28.498 -11.999 -49.4971 -33.498q-20.998 -21.498 -32.498 -51.4961q-11.499 -29.998 -11.499 -64.9961t11.499 -64.9961q11.5 -29.998 32.498 -51.4971
q20.999 -21.499 49.4971 -33.998q28.499 -12.499 62.4961 -12.499q33.998 0 62.4961 12.499q28.499 12.499 49.4971 33.998q20.999 21.499 32.498 51.4971q11.5 29.998 11.5 64.9961t-12 64.4961q-11.999 29.498 -32.998 51.4961q-20.998 21.999 -49.4961 33.998
q-28.499 12 -61.4971 12z" />
    <glyph glyph-name="colon" unicode=":" horiz-adv-x="212" 
d="M55 0zM106 94q21 0 36 -15t15 -37q0 -21 -15 -36t-36 -15t-36 15t-15 36q0 22 15 37t36 15zM106 517q21 0 36 -15t15 -37q0 -21 -15 -36t-36 -15t-36 15t-15 36q0 22 15 37t36 15z" />
    <glyph glyph-name="semicolon" unicode=";" horiz-adv-x="219" 
d="M44 0zM44 -109q14 3 26.5 11t21.5 19t14.5 23.5t5.5 24.5q0 11 -8.5 17.5t-19 13.5t-19 17t-8.5 27q0 20 14.5 34t33.5 14q27 0 43.5 -21t16.5 -60q0 -62 -31.5 -107t-89.5 -55v42v0zM108 517q21 0 36 -15t15 -37q0 -21 -15 -36t-36 -15t-36 15t-15 36q0 22 15 37t36 15z
" />
    <glyph glyph-name="less" unicode="&#x3c;" horiz-adv-x="386" 
d="M115 265l244 -265h-92l-246 264l246 263h88z" />
    <glyph glyph-name="equal" unicode="=" horiz-adv-x="549" 
d="M483 406h-417v59h417v-59zM483 247h-417v59h417v-59z" />
    <glyph glyph-name="greater" unicode="&#x3e;" horiz-adv-x="386" 
d="M21 0zM265.007 262.017l-243.985 264.983h91.9951l245.984 -263.984l-245.984 -262.983h-87.9951z" />
    <glyph glyph-name="question" unicode="?" horiz-adv-x="503" 
d="M458 510q0 -40 -13.5 -75t-37.5 -62t-58 -44t-76 -21l-3 -117h-65l-3 179h39q31 0 57 10.5t44.5 29.5t28.5 43.5t10 53.5t-11 54.5t-31 44t-47.5 29.5t-61.5 11q-47 0 -87 -21t-68 -59l-57 41q37 50 91.5 79t122.5 29q50 0 91.5 -16t71.5 -44t46.5 -65t16.5 -80zM235 94
q21 0 36 -15t15 -37q0 -21 -15 -36t-36 -15t-36 15t-15 36q0 22 15 37t36 15z" />
    <glyph glyph-name="at" unicode="@" horiz-adv-x="837" 
d="M404 70q-36 0 -68 13.5t-55.5 37.5t-37 55.5t-13.5 67.5t13.5 67.5t37 55t55.5 37t68 13.5q35 0 64.5 -13t52.5 -36v42h63v-222q0 -23 14.5 -39.5t42.5 -16.5q37 0 60.5 38t23.5 97q0 64 -23 118t-64 93t-97.5 61t-123.5 22q-64 0 -120 -24.5t-97 -66.5t-65 -99t-24 -122
t23.5 -121.5t65 -98.5t97 -66t118.5 -24q61 0 114.5 18.5t95.5 53.5l36 -38q-49 -40 -111 -62t-133 -22q-75 0 -140.5 28t-114.5 77t-77 114.5t-28 140.5t28.5 141t77.5 115t115 77.5t141 28.5q78 0 144 -25.5t114.5 -71.5t75.5 -108.5t27 -136.5q0 -45 -12 -80t-32 -59
t-46 -37t-54 -13q-35 0 -61 14t-40 41q-23 -30 -56.5 -47.5t-74.5 -17.5zM408 127q24 0 44.5 9.5t36 25t24.5 37t9 45.5t-9 45t-24.5 37t-36 25t-44.5 9t-44.5 -9t-36 -25t-24.5 -37t-9 -45t9 -45.5t24.5 -37.5t36 -25t44.5 -9z" />
    <glyph glyph-name="A" unicode="A" horiz-adv-x="656" 
d="M650 0h-87l-75 195h-323l-75 -195h-84l277 700h90zM461 266l-134 349l-135 -349h269z" />
    <glyph glyph-name="B" unicode="B" horiz-adv-x="638" 
d="M92 700h243q43 0 79.5 -14t63.5 -38.5t42 -57.5t15 -71q0 -48 -28 -87t-75 -60q33 -8 61 -25t47.5 -40.5t30.5 -52t11 -59.5q0 -41 -16 -76.5t-43.5 -61.5t-65.5 -41.5t-83 -15.5h-282v700zM172 631v-234h159q27 0 49.5 9.5t39 25t25.5 36.5t9 45q0 25 -9 46.5
t-25.5 37.5t-39 25t-49.5 9h-159zM366 69q30 0 54.5 10.5t42.5 28t28 41.5t10 51t-10 50.5t-28 41.5t-42.5 28t-54.5 10h-194v-261h194z" />
    <glyph glyph-name="C" unicode="C" horiz-adv-x="692" 
d="M569 463q-9 42 -28 75t-46 55t-61 33.5t-72 11.5q-46 0 -86 -16.5t-69 -48t-46 -78.5t-17 -107v-76q0 -60 17 -107t46.5 -78.5t69 -48t85.5 -16.5q38 0 72 11.5t61 33.5t46 55t28 75h78q-10 -59 -35.5 -105t-63 -77.5t-85 -48.5t-101.5 -17q-63 0 -117.5 22t-94.5 63.5
t-63 101t-23 134.5v80q0 75 23 134.5t63 101t94.5 63.5t117.5 22q54 0 101.5 -17t85 -48.5t63 -78t35.5 -104.5h-78z" />
    <glyph glyph-name="D" unicode="D" horiz-adv-x="712" 
d="M648 310q0 -71 -21 -128t-60 -97.5t-96 -62.5t-129 -22h-250v700h250q72 0 128.5 -22t96 -62.5t60.5 -98t21 -128.5v-79zM172 629v-558h165q111 0 171 63t60 178v75q0 114 -60 178t-171 64h-165z" />
    <glyph glyph-name="E" unicode="E" horiz-adv-x="593" 
d="M92 700h443v-71h-363v-243h353v-70h-353v-245h363v-71h-443v700z" />
    <glyph glyph-name="F" unicode="F" horiz-adv-x="593" 
d="M92 0v700h443v-71h-363v-243h353v-70h-353v-316h-80z" />
    <glyph glyph-name="G" unicode="G" horiz-adv-x="734" 
d="M64 390q0 72 21.5 131t61 101t95 65.5t122.5 23.5q100 0 173.5 -49.5t107.5 -137.5l-71 -30q-26 69 -82.5 106.5t-125.5 37.5q-50 0 -91 -17.5t-70 -50t-45 -79t-16 -103.5v-76q0 -58 16 -104.5t45.5 -79t70 -50t90.5 -17.5q43 0 81.5 14t66.5 39.5t44.5 62t16.5 82.5v33
h-208v70h283v-362h-75v119q-32 -61 -91 -95t-127 -34q-65 0 -119 23t-92.5 65.5t-60 102t-21.5 131.5v78z" />
    <glyph glyph-name="H" unicode="H" horiz-adv-x="715" 
d="M92 0v700h80v-314h371v314h80v-700h-80v315h-371v-315h-80z" />
    <glyph glyph-name="I" unicode="I" horiz-adv-x="265" 
d="M92 0v700h80v-700h-80z" />
    <glyph glyph-name="J" unicode="J" horiz-adv-x="502" 
d="M66 106q24 -21 56 -32.5t67 -11.5q32 0 59.5 11t47.5 32t31.5 52t11.5 72v471h80v-476q0 -56 -17.5 -99.5t-48 -73.5t-72.5 -46t-90 -16q-51 0 -94.5 15t-77.5 44z" />
    <glyph glyph-name="K" unicode="K" horiz-adv-x="609" 
d="M92 0v700h80v-318l340 318h106l-374 -344l380 -356h-113l-339 323v-323h-80z" />
    <glyph glyph-name="L" unicode="L" horiz-adv-x="571" 
d="M535 0h-443v700h80v-629h363v-71z" />
    <glyph glyph-name="M" unicode="M" horiz-adv-x="890" 
d="M92 0v700h125l229 -597l229 597h123v-700h-78l1 622l-240 -622h-73l-240 624l1 -624h-77z" />
    <glyph glyph-name="N" unicode="N" horiz-adv-x="742" 
d="M92 0v700h89l393 -586l-1 586h76v-700h-87l-395 587l1 -587h-76z" />
    <glyph glyph-name="O" unicode="O" horiz-adv-x="740" 
d="M64 390q0 73 22.5 132t63 101t96.5 65t124 23t124.5 -23t97 -65t62.5 -101t22 -132v-80q0 -73 -22 -132t-62.5 -101t-97 -65t-124.5 -23t-124 23t-96.5 65t-63 101t-22.5 132v80zM144 315q0 -60 16.5 -107.5t46.5 -79.5t71.5 -49t91.5 -17q51 0 92.5 17t71 49t46 79.5
t16.5 107.5v70q0 60 -16.5 107.5t-46 79.5t-71 49t-92.5 17t-92.5 -17t-71 -49t-46 -79.5t-16.5 -107.5v-70z" />
    <glyph glyph-name="P" unicode="P" horiz-adv-x="606" 
d="M92 700h265q45 0 84 -16t67.5 -44.5t44.5 -66.5t16 -81t-16 -80.5t-44.5 -65t-67.5 -43.5t-84 -16h-185v-287h-80v700zM172 629v-273h181q30 0 54.5 10.5t42.5 29t28 43t10 53.5q0 28 -10 53t-28 44t-42.5 29.5t-54.5 10.5h-181z" />
    <glyph glyph-name="Q" unicode="Q" horiz-adv-x="740" 
d="M64 390q0 73 22.5 132t63 101t96.5 65t124 23t124.5 -23t97 -65t62.5 -101t22 -132v-80q0 -75 -23.5 -135t-65.5 -103l60 -73l-58 -48l-62 76q-68 -38 -157 -38q-68 0 -124 23t-96.5 65t-63 101t-22.5 132v80zM144 315q0 -60 16.5 -107.5t46.5 -79.5t71.5 -49t91.5 -17
q61 0 108 24l-90 110l59 48l91 -111q28 32 43 77.5t15 104.5v70q0 60 -16.5 107.5t-46 79.5t-71 49t-92.5 17t-92.5 -17t-71 -49t-46 -79.5t-16.5 -107.5v-70z" />
    <glyph glyph-name="R" unicode="R" horiz-adv-x="620" 
d="M92 0v700h263q45 0 83 -16t65.5 -43t43.5 -64t16 -79q0 -35 -11 -65.5t-31 -55.5t-48 -43t-61 -27l187 -307h-91l-180 300h-156v-300h-80zM172 629v-261h176q30 0 54.5 10t42.5 27.5t28 41.5t10 51t-10 51t-28 42t-42.5 28t-54.5 10h-176z" />
    <glyph glyph-name="S" unicode="S" horiz-adv-x="604" 
d="M127 210q11 -71 60 -110.5t127 -39.5q72 0 113 32.5t41 86.5q0 45 -30 75t-95 47l-121 32q-82 22 -124.5 68.5t-42.5 114.5q0 43 17 79t47 61.5t71 39.5t90 14q51 0 94.5 -15.5t76.5 -44t54 -69t27 -89.5h-79q-11 71 -56 110.5t-119 39.5q-31 0 -57.5 -8.5t-45.5 -24.5
t-30 -37.5t-11 -48.5q0 -86 114 -116l125 -34q90 -24 132.5 -69.5t42.5 -115.5q0 -44 -16.5 -80t-47 -62t-73.5 -40.5t-96 -14.5q-55 0 -102 15.5t-82 44.5t-56.5 69t-26.5 90h79z" />
    <glyph glyph-name="T" unicode="T" horiz-adv-x="621" 
d="M26 700h569v-71h-245v-629h-80v629h-244v71z" />
    <glyph glyph-name="U" unicode="U" horiz-adv-x="709" 
d="M162 264q0 -46 14.5 -83.5t39.5 -63.5t59 -40.5t74 -14.5q39 0 73.5 14.5t60 41t40 63.5t14.5 83v436h80v-700h-80v107q-29 -50 -80.5 -83.5t-120.5 -33.5q-53 0 -99.5 19t-81 54t-54 84.5t-19.5 110.5v442h80v-436v0z" />
    <glyph glyph-name="V" unicode="V" horiz-adv-x="656" 
d="M6 700h87l237 -613l236 613h84l-277 -700h-90z" />
    <glyph glyph-name="W" unicode="W" horiz-adv-x="945" 
d="M694 121l143 579h79l-183 -700h-76l-184 579l-185 -579h-76l-183 700h83l143 -579l184 579h70z" />
    <glyph glyph-name="X" unicode="X" horiz-adv-x="597" 
d="M253 364l-235 336h94l186 -273l188 273h91l-235 -336l255 -364h-94l-206 302l-205 -302h-92z" />
    <glyph glyph-name="Y" unicode="Y" horiz-adv-x="618" 
d="M269 0v292l-268 408h94l216 -333l214 333h92l-268 -411v-289h-80z" />
    <glyph glyph-name="Z" unicode="Z" horiz-adv-x="558" 
d="M44 700h472v-55l-380 -574h382v-71h-483v54l380 575h-371v71z" />
    <glyph glyph-name="bracketleft" unicode="[" horiz-adv-x="332" 
d="M49 790h253v-62h-182v-791h182v-62h-253v915z" />
    <glyph glyph-name="backslash" unicode="\" horiz-adv-x="411" 
d="M317 0l-304 700h79l304 -700h-79z" />
    <glyph glyph-name="bracketright" unicode="]" horiz-adv-x="332" 
d="M29 0zM282.003 -124.952h-252.984v61.9971h181.989v790.951h-181.989v61.9961h252.984v-914.944z" />
    <glyph glyph-name="asciicircum" unicode="^" horiz-adv-x="517" 
d="M224 700h69l187 -350h-72l-149 281l-149 -281h-73z" />
    <glyph glyph-name="underscore" unicode="_" horiz-adv-x="483" 
d="M486 -139h-489v59h489v-59z" />
    <glyph glyph-name="grave" unicode="`" horiz-adv-x="500" 
d="M351 588h-78l-128 130h92z" />
    <glyph glyph-name="a" unicode="a" horiz-adv-x="544" 
d="M42 145q0 72 44 110t119 43l167 9v49q0 52 -28.5 81t-82.5 29q-40 0 -74.5 -14t-66.5 -44l-40 55q41 35 86.5 53.5t102.5 18.5q83 0 131 -45.5t48 -123.5v-267q0 -31 34 -31h26v-68h-43q-40 0 -64 21.5t-27 56.5q-23 -40 -64 -63.5t-93 -23.5q-38 0 -70 11.5t-55.5 32
t-36.5 48.5t-13 62zM117 148q0 -42 31 -68t80 -26q30 0 56.5 10t46 27.5t30.5 40.5t11 49v63l-158 -8q-45 -2 -71 -24.5t-26 -63.5z" />
    <glyph glyph-name="b" unicode="b" horiz-adv-x="606" 
d="M88 733h77v-296q26 47 70 73t101 26q45 0 83.5 -16.5t66.5 -47.5t43.5 -74t15.5 -95v-79q0 -53 -16 -96t-43.5 -73.5t-66 -47.5t-83.5 -17q-58 0 -102 27.5t-69 75.5v-93h-77v733zM165 231q0 -78 41 -125.5t111 -47.5t111 47.5t41 125.5v65q0 78 -41 125t-111 47
t-111 -47t-41 -125v-65z" />
    <glyph glyph-name="c" unicode="c" horiz-adv-x="540" 
d="M282 -10q-48 0 -88.5 17t-70.5 47.5t-46.5 74t-16.5 96.5v76q0 53 16.5 96.5t46.5 74t70.5 47.5t88.5 17q82 0 139.5 -47t74.5 -130h-77q-14 51 -50 80t-87 29q-33 0 -60 -12.5t-46 -35t-29.5 -54t-10.5 -70.5v-65q0 -78 40 -125.5t106 -47.5q51 0 87 29t50 80h77
q-9 -41 -28 -73.5t-47 -55.5t-63.5 -35.5t-75.5 -12.5z" />
    <glyph glyph-name="d" unicode="d" horiz-adv-x="606" 
d="M441 0v94q-26 -49 -70 -76.5t-102 -27.5q-45 0 -83.5 17t-66 47.5t-43.5 73.5t-16 96v79q0 52 15.5 95t43.5 74t66.5 47.5t83.5 16.5q57 0 101.5 -26.5t70.5 -74.5v298h77v-733h-77zM441 296q0 39 -11 70.5t-31 54t-48 35t-63 12.5t-63 -12.5t-47.5 -35t-30.5 -54
t-11 -70.5v-65q0 -78 41.5 -125.5t110.5 -47.5q70 0 111.5 47.5t41.5 125.5v65z" />
    <glyph glyph-name="e" unicode="e" horiz-adv-x="547" 
d="M60 301q0 52 16.5 95t46.5 74t71 48.5t89 17.5q45 0 83.5 -17t66 -48t43.5 -73t16 -93v-65h-356v-13q0 -38 11 -69t31.5 -53.5t48.5 -34.5t61 -12q42 0 76.5 17t63.5 55l54 -45q-38 -48 -85.5 -71t-110.5 -23q-49 0 -90.5 17.5t-71.5 48.5t-47 74t-17 95v75zM281 469
q-32 0 -58.5 -12t-45.5 -34t-30 -52.5t-11 -67.5h281v4q0 36 -10.5 66t-28.5 51t-43 33t-54 12z" />
    <glyph glyph-name="f" unicode="f" horiz-adv-x="386" 
d="M32 527h108v110q0 49 29 79t82 30h103v-68h-92q-46 0 -46 -52v-99h138v-68h-138v-459h-76v459h-108v68z" />
    <glyph glyph-name="g" unicode="g" horiz-adv-x="602" 
d="M196 -148h122q120 0 120 120v121q-26 -48 -69.5 -74t-100.5 -26q-45 0 -83 17t-66 47.5t-43.5 73.5t-15.5 95v76q0 52 15.5 95.5t43 74t66 47.5t83.5 17q57 0 100.5 -26.5t69.5 -73.5v91h77v-563q0 -84 -47.5 -131.5t-132.5 -47.5h-139v67zM438 296q0 39 -10.5 70.5
t-30 54t-47.5 35t-62 12.5t-62 -12.5t-48 -35t-31 -54t-11 -70.5v-65q0 -79 41.5 -124.5t110.5 -45.5t109.5 45.5t40.5 124.5v65z" />
    <glyph glyph-name="h" unicode="h" 
d="M517 0h-77v329q0 30 -9.5 55t-26.5 43.5t-41.5 29t-54.5 10.5q-32 0 -58 -11t-45 -30.5t-29.5 -45.5t-10.5 -57v-323h-77v733h77v-305q21 51 65.5 80t101.5 29q42 0 76 -15t58 -41t37.5 -61.5t13.5 -75.5v-344z" />
    <glyph glyph-name="i" unicode="i" horiz-adv-x="253" 
d="M127 630q-21 0 -36.5 15.5t-15.5 35.5q0 22 15.5 37t36.5 15q20 0 35 -15t15 -37q0 -20 -15 -35.5t-35 -15.5zM165 0h-77v527h77v-527z" />
    <glyph glyph-name="j" unicode="j" horiz-adv-x="253" 
d="M127 630q-21 0 -36.5 15.5t-15.5 35.5q0 22 15.5 37t36.5 15q20 0 35 -15t15 -37q0 -20 -15 -35.5t-35 -15.5zM10 -215v67h34q44 0 44 40v635h77v-646q0 -42 -27.5 -69t-76.5 -27h-51z" />
    <glyph glyph-name="k" unicode="k" horiz-adv-x="505" 
d="M238 274l281 -274h-105l-249 248v-248h-77v733h77v-440l242 234h99z" />
    <glyph glyph-name="l" unicode="l" horiz-adv-x="253" 
d="M88 0v733h77v-733h-77z" />
    <glyph glyph-name="m" unicode="m" horiz-adv-x="930" 
d="M165 0h-77v527h77v-99q20 51 62 80t96 29q63 0 107.5 -36.5t61.5 -94.5q17 58 62 94.5t108 36.5q40 0 73 -15t57 -41.5t37 -62.5t13 -77v-341h-77v326q0 30 -9 56t-25.5 45t-40 29.5t-51.5 10.5q-30 0 -55 -11t-43 -31t-28 -47t-10 -59v-319h-77v326q0 30 -9 56t-25.5 45
t-40 29.5t-51.5 10.5q-30 0 -54.5 -11t-42.5 -31t-28 -47t-10 -59v-319z" />
    <glyph glyph-name="n" unicode="n" 
d="M517 0h-77v329q0 30 -9.5 55t-26.5 43.5t-41.5 29t-54.5 10.5q-32 0 -58 -11t-45 -30.5t-29.5 -45.5t-10.5 -57v-323h-77v527h77v-99q21 51 65.5 80t101.5 29q42 0 76 -15t58 -41t37.5 -61.5t13.5 -75.5v-344z" />
    <glyph glyph-name="o" unicode="o" horiz-adv-x="574" 
d="M514 225q0 -53 -17 -96.5t-47.5 -74.5t-72 -47.5t-90.5 -16.5t-90.5 17t-72 47.5t-47.5 74t-17 96.5v76q0 53 17 96.5t47 74t71.5 47.5t91.5 17q49 0 90.5 -17t72 -47.5t47.5 -74t17 -96.5v-76zM438 296q0 78 -41 125t-110 47q-35 0 -62.5 -12.5t-47.5 -35t-30.5 -54
t-10.5 -70.5v-65q0 -78 41 -125.5t110 -47.5q34 0 62 12.5t47.5 35t30.5 54.5t11 71v65z" />
    <glyph glyph-name="p" unicode="p" 
d="M165 527v-90q26 47 70 73t101 26q45 0 83.5 -16.5t66.5 -47.5t43.5 -74t15.5 -95v-79q0 -53 -16 -96t-43.5 -73.5t-66 -47.5t-83.5 -17q-58 0 -102 27.5t-69 75.5v-308h-77v742h77zM165 231q0 -78 41 -125.5t111 -47.5t111 47.5t41 125.5v65q0 78 -41 125t-111 47
t-111 -47t-41 -125v-65z" />
    <glyph glyph-name="q" unicode="q" horiz-adv-x="606" 
d="M518 -215h-77v309q-26 -49 -70 -76.5t-102 -27.5q-45 0 -83.5 17t-66 47.5t-43.5 73.5t-16 96v79q0 52 15.5 95t43.5 74t66.5 47.5t83.5 16.5q57 0 101.5 -26.5t70.5 -74.5v92h77v-742zM441 296q0 39 -11 70.5t-31 54t-48 35t-63 12.5t-63 -12.5t-47.5 -35t-30.5 -54
t-11 -70.5v-65q0 -78 41.5 -125.5t110.5 -47.5q70 0 111.5 47.5t41.5 125.5v65z" />
    <glyph glyph-name="r" unicode="r" horiz-adv-x="375" 
d="M295 456q-27 0 -51 -11t-41.5 -30t-27.5 -45t-10 -57v-313h-77v527h76v-106q16 50 51.5 80t85.5 30h44v-75h-50z" />
    <glyph glyph-name="s" unicode="s" horiz-adv-x="488" 
d="M257 -10q-44 0 -81.5 13t-66 35.5t-46.5 53.5t-24 68h75q8 -45 45.5 -75.5t97.5 -30.5q49 0 78.5 23t29.5 58q0 33 -24 53t-66 32l-89 23q-67 17 -102.5 52.5t-35.5 89.5q0 68 48.5 109.5t128.5 41.5q40 0 75.5 -12t63.5 -34.5t46 -53.5t23 -68h-76q-8 45 -44.5 75
t-87.5 30q-48 0 -74.5 -22.5t-26.5 -56.5q0 -32 23 -51.5t62 -30.5l87 -23q70 -18 107.5 -55.5t37.5 -91.5q0 -34 -13.5 -62t-38 -48t-58.5 -31t-74 -11z" />
    <glyph glyph-name="t" unicode="t" horiz-adv-x="389" 
d="M253 0q-54 0 -84 29t-30 76v354h-108v68h108v158h76v-158h141v-68h-141v-343q0 -48 53 -48h88v-68h-103v0z" />
    <glyph glyph-name="u" unicode="u" 
d="M88 527h77v-330q0 -59 36 -98t96 -39q31 0 57.5 11t45.5 30t29.5 45.5t10.5 57.5v323h77v-527h-77v99q-21 -51 -65.5 -80t-100.5 -29q-42 0 -76.5 15t-58.5 40.5t-37.5 60.5t-13.5 76v345z" />
    <glyph glyph-name="v" unicode="v" horiz-adv-x="502" 
d="M5 527h81l167 -425l166 425h79l-213 -527h-68z" />
    <glyph glyph-name="w" unicode="w" horiz-adv-x="742" 
d="M404 527l130 -407l110 407h77l-148 -527h-69l-133 413l-134 -413h-69l-148 527h79l110 -409l130 409h65z" />
    <glyph glyph-name="x" unicode="x" horiz-adv-x="476" 
d="M195 271l-182 256h87l138 -197l139 197h86l-184 -255l196 -272h-88l-150 213l-150 -213h-86z" />
    <glyph glyph-name="y" unicode="y" horiz-adv-x="506" 
d="M217 7l-212 520h81l171 -421l164 421h80l-255 -641q-19 -50 -48.5 -75.5t-80.5 -25.5h-68v67h56q28 0 45 14.5t28 41.5z" />
    <glyph glyph-name="z" unicode="z" horiz-adv-x="473" 
d="M43 527h381v-57l-291 -402h298v-68h-392v56l293 403h-289v68z" />
    <glyph glyph-name="braceleft" unicode="{" horiz-adv-x="399" 
d="M204 54q-13 -30 -12.5 -53t11 -39t30 -25t43.5 -9q23 0 42.5 4.5t39.5 12.5l17 -57q-27 -12 -50.5 -17t-52.5 -5q-48 0 -83 16t-53 44.5t-18 67.5t21 84l48 104q11 24 11 46t-9.5 38.5t-28 26t-43.5 9.5h-90v62h89q25 0 43.5 9.5t28.5 26t10 38.5t-11 46l-48 104
q-21 45 -21 83.5t18 67t53 45t83 16.5q29 0 52.5 -5t50.5 -17l-17 -57q-20 8 -39.5 12.5t-42.5 4.5q-24 0 -43.5 -9t-30 -25t-11 -39t12.5 -53l51 -114q14 -31 13.5 -58t-11.5 -48.5t-31.5 -36.5t-47.5 -22q27 -7 47.5 -22t31.5 -36.5t11.5 -48.5t-13.5 -58z" />
    <glyph glyph-name="bar" unicode="|" horiz-adv-x="244" 
d="M83 -215v915h77v-915h-77z" />
    <glyph glyph-name="braceright" unicode="}" horiz-adv-x="399" 
d="M26 0zM197.013 612.003q12.999 29.999 12.499 52.9971q-0.5 22.999 -10.999 38.998q-10.5 15.999 -29.998 24.998q-19.499 9 -43.498 9q-22.998 0 -42.4971 -4.5t-39.498 -12.499l-16.999 56.9961q26.999 11.999 50.4971 16.999q23.499 5 52.4971 5
q47.9971 0 82.9951 -15.999t52.9961 -44.498q17.999 -28.498 17.999 -67.4951q0 -38.998 -20.998 -83.9951l-47.9971 -103.994q-11 -23.998 -11 -45.9971q0 -21.998 9.5 -38.4971q9.49902 -16.499 27.998 -25.999q18.499 -9.49902 43.4971 -9.49902h89.9951v-61.9961
h-88.9951q-24.998 0 -43.4971 -9.5q-18.499 -9.49902 -28.498 -25.998q-10 -16.499 -10 -38.498q0 -21.998 11 -45.9971l47.9971 -103.993q20.998 -44.9971 20.998 -83.4951t-17.999 -66.9961q-17.998 -28.498 -52.9961 -44.9971t-82.9951 -16.499q-28.998 0 -52.4971 5
q-23.498 4.99902 -50.4971 16.999l16.999 56.9961q19.999 -7.99902 39.498 -12.499t42.4971 -4.5q23.999 0 43.498 9q19.498 8.99902 29.998 24.998q10.499 15.999 10.999 38.998q0.5 22.998 -12.499 52.9961l-50.9971 113.993q-13.999 30.998 -13.499 57.9971
q0.5 26.998 11.499 48.4961q10.999 21.499 31.498 36.498t47.4971 21.999q-26.998 6.99902 -47.4971 21.998t-31.498 36.498t-11.499 48.4971t13.499 57.9961z" />
    <glyph glyph-name="asciitilde" unicode="~" horiz-adv-x="551" 
d="M66 327q17 62 45.5 94t70.5 32q23 0 50.5 -11.5t55.5 -25t53 -25t43 -11.5q19 0 32.5 15.5t27.5 60.5l62 -16q-17 -62 -45.5 -94t-70.5 -32q-23 0 -50.5 11.5t-55.5 25t-53 25t-43 11.5q-19 0 -32.5 -15.5t-27.5 -60.5z" />
    <glyph glyph-name="nbspace" unicode="&#xa0;" horiz-adv-x="223" 
 />
    <glyph glyph-name="exclamdown" unicode="&#xa1;" horiz-adv-x="207" 
d="M52 0zM137.004 514.012l6 -543.967h-78.9951l6 543.967h66.9951zM103.006 606.006q-20.998 0 -35.9971 14.999t-14.999 36.998q0 20.998 14.999 35.9971t35.9971 14.999q20.999 0 35.998 -14.999t14.999 -35.9971q0 -21.999 -14.999 -36.998t-35.998 -14.999z" />
    <glyph glyph-name="cent" unicode="&#xa2;" horiz-adv-x="550" 
d="M316 534q70 -9 118 -54.5t64 -120.5h-77q-12 43 -39 70.5t-66 35.5v-404q39 8 66 35.5t39 70.5h77q-16 -73 -64.5 -119.5t-117.5 -55.5v-99h-63v99q-42 5 -77 24t-60.5 49.5t-39.5 71t-14 88.5v76q0 49 14 89.5t39.5 70.5t60.5 49t77 24v94h63v-94zM138 231
q0 -69 31 -114t84 -56v404q-53 -11 -84 -56t-31 -113v-65z" />
    <glyph glyph-name="sterling" unicode="&#xa3;" horiz-adv-x="567" 
d="M386 309h-175l26 -96q14 -48 3 -85t-39 -60h336v-68h-500v68h40q24 0 43.5 10t31.5 28t15 43.5t-5 56.5l-28 103h-89v61h72l-14 53q-17 62 -10.5 114.5t33.5 90.5t71 59t102 21q47 0 86.5 -14t69 -40.5t47.5 -63.5t23 -83h-75q-8 63 -49 99t-103 36q-39 0 -67.5 -15
t-44.5 -42t-18.5 -66t10.5 -87l17 -62h191v-61z" />
    <glyph glyph-name="yen" unicode="&#xa5;" horiz-adv-x="625" 
d="M276 201v80h-169v57h139l-238 362h94l216 -333l214 333h92l-236 -362h138v-57h-170v-80h170v-57h-170v-144h-80v144h-169v57h169z" />
    <glyph glyph-name="section" unicode="&#xa7;" horiz-adv-x="506" 
d="M440 35q0 -32 -12 -58.5t-34 -46t-53 -30.5t-70 -11q-41 0 -76 12t-61.5 33.5t-43.5 50.5t-23 64h74q4 -22 16 -40t29.5 -31t39 -20t45.5 -7q43 0 69 20.5t26 54.5q0 60 -81 87l-134 46q-66 23 -101 61t-35 94q0 54 28.5 91.5t75.5 51.5q-53 41 -53 105q0 33 12.5 60
t34.5 46.5t53 30t68 10.5q40 0 74.5 -12t60.5 -34t42.5 -51.5t21.5 -63.5h-74q-4 22 -16 40.5t-29 31.5t-37.5 20t-42.5 7q-42 0 -67.5 -21t-25.5 -56q0 -29 19.5 -50t62.5 -36l131 -46q66 -23 101 -60.5t35 -94.5q0 -53 -29 -90.5t-77 -51.5q56 -40 56 -106zM215 412
q-25 8 -47.5 4.5t-40 -16t-28 -32t-10.5 -43.5q0 -36 20 -60.5t65 -39.5l103 -36q30 -9 55.5 -6.5t44 14.5t29 31.5t10.5 43.5q0 36 -20 60.5t-65 39.5z" />
    <glyph glyph-name="dieresis" unicode="&#xa8;" horiz-adv-x="519" 
d="M173 601q-20 0 -35 15t-15 36t15 35.5t35 14.5t35 -14.5t15 -35.5t-15 -36t-35 -15zM347 601q-20 0 -35 15t-15 36t15 35.5t35 14.5t35 -14.5t15 -35.5t-15 -36t-35 -15z" />
    <glyph glyph-name="copyright" unicode="&#xa9;" horiz-adv-x="835" 
d="M418 -11q-75 0 -141 28t-115 77t-77 114.5t-28 140.5t28 141t77 115t115 77.5t141 28.5t141 -28t115 -77t77 -114.5t28 -140.5t-28 -141t-77 -115t-115 -77.5t-141 -28.5zM418 39q64 0 119.5 24.5t97 66.5t65.5 99t24 122t-24 121.5t-65.5 98.5t-97 66t-119.5 24
t-120 -24.5t-97.5 -66.5t-65.5 -99t-24 -122t24 -121.5t65.5 -98.5t97.5 -66t120 -24zM301 350q0 -27 10 -50.5t27 -41t39.5 -27.5t48.5 -10q33 0 60 14t44 40l46 -33q-26 -35 -63.5 -56t-86.5 -21q-40 0 -74 14.5t-59.5 39.5t-40 58.5t-14.5 72.5q0 38 14.5 72t40 59
t59.5 39.5t74 14.5q49 0 86.5 -21t63.5 -55l-46 -34q-17 25 -44 39.5t-60 14.5q-26 0 -48.5 -10t-39.5 -27t-27 -41t-10 -51z" />
    <glyph glyph-name="ordfeminine" unicode="&#xaa;" horiz-adv-x="402" 
d="M33 434q0 50 31.5 77t85.5 30l112 7v29q0 34 -19 52.5t-54 18.5q-53 0 -98 -38l-31 48q29 24 62.5 37t74.5 13q60 0 95 -33t35 -90v-173q0 -22 23 -22h19v-58h-35q-29 0 -46.5 14.5t-22.5 38.5q-16 -28 -44.5 -44.5t-63.5 -16.5q-54 0 -89 31t-35 79zM97 436
q0 -26 20 -42.5t52 -16.5q39 0 66 24t27 59v38l-104 -6q-29 -2 -45 -16t-16 -40z" />
    <glyph glyph-name="guillemotleft" unicode="&#xab;" horiz-adv-x="602" 
d="M21 0zM115 265l244 -265h-92l-246 264l246 263h88zM331 265l244 -265h-92l-246 264l246 263h88z" />
    <glyph glyph-name="registered" unicode="&#xae;" horiz-adv-x="471" 
d="M235 309q-42 0 -78.5 15.5t-63.5 43t-42.5 64t-15.5 78.5t15.5 78.5t42.5 64t63.5 43t78.5 15.5t78.5 -15.5t63.5 -43t42.5 -64t15.5 -78.5t-15.5 -78.5t-42.5 -64t-63.5 -43t-78.5 -15.5zM235 346q34 0 63 13t51 35t34.5 52t12.5 64t-12.5 64t-34.5 52t-51 35t-63 13
t-63.5 -13t-51 -35t-34 -52t-12.5 -64t12.5 -64t34 -52t51 -35t63.5 -13zM168 606h77q26 0 42 -16.5t16 -40.5q0 -17 -9.5 -30.5t-25.5 -20.5l47 -79h-42l-42 74h-25v-74h-38v187zM206 574v-51h30q14 0 21.5 7.5t7.5 18.5q0 25 -29 25h-30z" />
    <glyph glyph-name="macron" unicode="&#xaf;" horiz-adv-x="500" 
d="M378 616h-248v55h248v-55z" />
    <glyph glyph-name="degree" unicode="&#xb0;" horiz-adv-x="369" 
d="M185 424q-30 0 -56.5 11.5t-45.5 31t-30 46t-11 56.5q0 28 11 53.5t30 45t45 31t57 11.5q30 0 56 -11.5t45 -31t30 -45t11 -53.5q0 -30 -11 -56.5t-30.5 -46t-45.5 -31t-55 -11.5zM185 475q18 0 34.5 7.5t28.5 20.5t19 30t7 37q0 18 -7 34.5t-19.5 28.5t-28.5 19t-34 7
q-19 0 -35.5 -7t-28.5 -19.5t-19 -28.5t-7 -34q0 -20 7 -37t19 -30t28.5 -20.5t35.5 -7.5z" />
    <glyph glyph-name="plusminus" unicode="&#xb1;" horiz-adv-x="550" 
d="M243 173v177h-177v64h177v173h65v-173h176v-64h-176v-177h-65zM484 0h-418v63h418v-63z" />
    <glyph glyph-name="twosuperior" unicode="&#xb2;" horiz-adv-x="309" 
d="M274 593q1 -32 -12.5 -58.5t-45.5 -60.5l-101 -108l164 1v-52h-247v39l139 150q23 24 33.5 43t10.5 42q0 29 -19.5 47.5t-48.5 18.5q-26 0 -46 -14t-34 -39l-47 26q19 37 51.5 57.5t77.5 20.5q28 0 51 -8.5t39.5 -24t25.5 -36t9 -44.5z" />
    <glyph glyph-name="threesuperior" unicode="&#xb3;" horiz-adv-x="325" 
d="M156 706q26 0 48.5 -8.5t39 -22.5t25.5 -33.5t9 -41.5q0 -29 -16 -50.5t-42 -32.5q31 -11 51 -36.5t20 -58.5q0 -24 -10 -45t-27.5 -36t-42 -24t-53.5 -9q-49 0 -84 21t-53 56l50 26q12 -24 34.5 -38t51.5 -14q33 0 53 19t20 47q0 26 -18 44t-47 18h-52v49h47
q26 0 42.5 16.5t16.5 41.5q0 27 -19.5 44t-48.5 17q-26 0 -45.5 -13.5t-30.5 -36.5l-49 25q17 35 50 55.5t80 20.5z" />
    <glyph glyph-name="acute" unicode="&#xb4;" horiz-adv-x="500" 
d="M357 718l-129 -130h-77l114 130h92z" />
    <glyph glyph-name="paragraph" unicode="&#xb6;" horiz-adv-x="564" 
d="M24 495q0 43 16 80t44 65t66 44t83 16h264v-700h-69v292h-71v-292h-69v292h-55q-45 0 -83 16t-66 43.5t-44 64.5t-16 79z" />
    <glyph glyph-name="periodcentered" unicode="&#xb7;" horiz-adv-x="213" 
d="M55 250zM106 353q21 0 36 -15t15 -37q0 -21 -15 -36t-36 -15t-36 15t-15 36q0 22 15 37t36 15z" />
    <glyph glyph-name="cedilla" unicode="&#xb8;" horiz-adv-x="500" 
d="M378 -138q0 -38 -30 -64t-74 -26q-33 0 -61 12.5t-44 34.5l37 31q27 -33 66 -33q24 0 38.5 13t14.5 33t-16.5 32.5t-43.5 12.5h-33l29 98h47l-18 -61q40 -3 64 -25.5t24 -57.5z" />
    <glyph glyph-name="onesuperior" unicode="&#xb9;" horiz-adv-x="274" 
d="M248 315h-220v52h80v281h-71v52h131v-333h80v-52z" />
    <glyph glyph-name="ordmasculine" unicode="&#xba;" horiz-adv-x="417" 
d="M372 493q0 -39 -12.5 -70t-34 -52.5t-51.5 -33.5t-66 -12q-35 0 -65 12t-52 34t-34 53t-12 69v48q0 38 12 69t34 53t51.5 34t65.5 12t66 -12t51.5 -33.5t34 -52.5t12.5 -70v-48zM307 538q0 52 -27 83t-72 31t-71.5 -31t-26.5 -83v-42q0 -52 26.5 -82.5t71.5 -30.5
t72 30.5t27 82.5v42z" />
    <glyph glyph-name="guillemotright" unicode="&#xbb;" horiz-adv-x="602" 
d="M27 0zM487.007 262.017l-243.985 264.983h91.9951l245.984 -263.984l-245.984 -262.983h-87.9951zM271.007 262.017l-243.985 264.983h91.9951l245.984 -263.984l-245.984 -262.983h-87.9951z" />
    <glyph glyph-name="onequarter" unicode="&#xbc;" horiz-adv-x="693" 
d="M28 0zM248 315h-220v52h80v281h-71v52h131v-333h80v-52zM248 315h-220v52h80v281h-71v52h131v-333h80v-52zM570 97h-188v45l171 243h77v-237h48v-51h-48v-97h-60v97zM570 148v180l-124 -180h124zM128 0l383 700h66l-384 -700h-65z" />
    <glyph glyph-name="onehalf" unicode="&#xbd;" horiz-adv-x="723" 
d="M28 0zM248 315h-220v52h80v281h-71v52h131v-333h80v-52zM248 315h-220v52h80v281h-71v52h131v-333h80v-52zM693 278q1 -32 -12.5 -58.5t-45.5 -60.5l-101 -108l164 1v-52h-247v39l139 150q23 24 33.5 43t10.5 42q0 29 -19.5 47.5t-48.5 18.5q-26 0 -46 -14t-34 -39
l-47 26q19 37 51.5 57.5t77.5 20.5q28 0 51 -8.5t39.5 -24t25.5 -36t9 -44.5zM126 0l383 700h66l-384 -700h-65z" />
    <glyph glyph-name="threequarters" unicode="&#xbe;" horiz-adv-x="699" 
d="M21 0zM156 706q26 0 48.5 -8.5t39 -22.5t25.5 -33.5t9 -41.5q0 -29 -16 -50.5t-42 -32.5q31 -11 51 -36.5t20 -58.5q0 -24 -10 -45t-27.5 -36t-42 -24t-53.5 -9q-49 0 -84 21t-53 56l50 26q12 -24 34.5 -38t51.5 -14q33 0 53 19t20 47q0 26 -18 44t-47 18h-52v49h47
q26 0 42.5 16.5t16.5 41.5q0 27 -19.5 44t-48.5 17q-26 0 -45.5 -13.5t-30.5 -36.5l-49 25q17 35 50 55.5t80 20.5zM156 706q26 0 48.5 -8.5t39 -22.5t25.5 -33.5t9 -41.5q0 -29 -16 -50.5t-42 -32.5q31 -11 51 -36.5t20 -58.5q0 -24 -10 -45t-27.5 -36t-42 -24t-53.5 -9
q-49 0 -84 21t-53 56l50 26q12 -24 34.5 -38t51.5 -14q33 0 53 19t20 47q0 26 -18 44t-47 18h-52v49h47q26 0 42.5 16.5t16.5 41.5q0 27 -19.5 44t-48.5 17q-26 0 -45.5 -13.5t-30.5 -36.5l-49 25q17 35 50 55.5t80 20.5zM589 97h-188v45l171 243h77v-237h48v-51h-48v-97
h-60v97zM589 148v180l-124 -180h124zM147 0l383 700h66l-384 -700h-65z" />
    <glyph glyph-name="questiondown" unicode="&#xbf;" horiz-adv-x="503" 
d="M45 0zM45.0283 195.031q0 39.9971 13.499 74.9951t37.4971 61.9961q23.999 26.999 57.9971 43.998t75.9951 20.998l3 116.993h64.9961l3 -178.989h-38.998q-30.998 0 -56.9961 -10.499q-25.999 -10.5 -44.498 -29.498q-18.498 -18.999 -28.498 -43.498
q-9.99902 -24.498 -9.99902 -53.4961t10.999 -54.4971q10.999 -25.498 30.998 -43.9971t47.4971 -29.498q27.498 -11 61.4961 -11q46.9971 0 86.9951 20.999q39.9971 20.999 67.9961 58.9961l56.9961 -40.9971q-36.998 -49.9971 -91.4941 -78.9951
q-54.4971 -28.998 -122.493 -28.998q-49.9961 0 -91.4941 15.999q-41.4971 15.999 -71.4951 43.9971t-46.4971 64.9961t-16.499 79.9951zM268.015 611.006q-20.999 0 -35.998 14.999t-14.999 36.998q0 20.998 14.999 35.9971t35.998 14.999q20.998 0 35.9971 -14.999
q15 -14.999 15 -35.9971q0 -21.999 -15 -36.998q-14.999 -14.999 -35.9971 -14.999z" />
    <glyph glyph-name="Agrave" unicode="&#xc0;" horiz-adv-x="656" 
d="M6 0zM650 0h-87l-75 195h-323l-75 -195h-84l277 700h90zM461 266l-134 349l-135 -349h269zM388 785h-78l-128 130h92z" />
    <glyph glyph-name="Aacute" unicode="&#xc1;" horiz-adv-x="656" 
d="M6 0zM650 0h-87l-75 195h-323l-75 -195h-84l277 700h90zM461 266l-134 349l-135 -349h269zM474 915l-129 -130h-77l114 130h92z" />
    <glyph glyph-name="Acircumflex" unicode="&#xc2;" horiz-adv-x="656" 
d="M6 0zM650 0h-87l-75 195h-323l-75 -195h-84l277 700h90zM461 266l-134 349l-135 -349h269zM182 785l109 130h78l109 -130h-71l-77 84l-77 -84h-71z" />
    <glyph glyph-name="Atilde" unicode="&#xc3;" horiz-adv-x="656" 
d="M6 0zM650 0h-87l-75 195h-323l-75 -195h-84l277 700h90zM461 266l-134 349l-135 -349h269zM268 906q16 0 32.5 -9.5t32.5 -21t29.5 -21t23.5 -9.5q14 0 23.5 13t20.5 50l51 -12q-27 -105 -91 -105q-16 0 -33 9.5t-32.5 20.5t-29 20.5t-23.5 9.5q-14 0 -23.5 -13
t-21.5 -50l-51 12q29 106 92 106z" />
    <glyph glyph-name="Adieresis" unicode="&#xc4;" horiz-adv-x="656" 
d="M6 0zM650 0h-87l-75 195h-323l-75 -195h-84l277 700h90zM461 266l-134 349l-135 -349h269zM242 798q-20 0 -35 15t-15 36t15 35.5t35 14.5t35 -14.5t15 -35.5t-15 -36t-35 -15zM416 798q-20 0 -35 15t-15 36t15 35.5t35 14.5t35 -14.5t15 -35.5t-15 -36t-35 -15z" />
    <glyph glyph-name="Aring" unicode="&#xc5;" horiz-adv-x="656" 
d="M6 0zM650 0h-87l-75 195h-323l-75 -195h-84l277 700h90zM461 266l-134 349l-135 -349h269zM329 768q-22 0 -41 8t-33.5 22t-22.5 32.5t-8 39.5t8 39.5t22.5 32.5t33.5 22t41 8t41 -8t33 -22t22.5 -32.5t8.5 -39.5t-8.5 -39.5t-22.5 -32.5t-33 -22t-41 -8zM329 809
q26 0 44 17.5t18 43.5t-18 43.5t-44 17.5t-44 -17.5t-18 -43.5t18 -43.5t44 -17.5z" />
    <glyph glyph-name="AE" unicode="&#xc6;" horiz-adv-x="955" 
d="M897 0h-419v185h-260l-112 -185h-93l433 700h451v-71h-339v-243h329v-70h-329v-245h339v-71zM478 256v361l-218 -361h218z" />
    <glyph glyph-name="Ccedilla" unicode="&#xc7;" horiz-adv-x="692" 
d="M569 463q-9 42 -28 75t-46 55t-61 33.5t-72 11.5q-46 0 -86 -16.5t-69 -48t-46 -78.5t-17 -107v-76q0 -60 17 -107t46.5 -78.5t69 -48t85.5 -16.5q38 0 72 11.5t61 33.5t46 55t28 75h78q-9 -55 -32.5 -99t-58 -75.5t-78 -50t-92.5 -22.5l-13 -45q40 -3 64 -25.5t24 -57.5
q0 -38 -30 -64t-74 -26q-33 0 -61 12.5t-44 34.5l37 31q27 -33 66 -33q24 0 38.5 13t14.5 33t-16.5 32.5t-43.5 12.5h-33l24 82q-59 4 -109.5 27.5t-87 65t-57.5 99t-21 128.5v80q0 75 23 134.5t63 101t94.5 63.5t117.5 22q54 0 101.5 -17t85 -48.5t63 -78t35.5 -104.5h-78z
" />
    <glyph glyph-name="Egrave" unicode="&#xc8;" horiz-adv-x="593" 
d="M92 0zM92 700h443v-71h-363v-243h353v-70h-353v-245h363v-71h-443v700zM381 785h-78l-128 130h92z" />
    <glyph glyph-name="Eacute" unicode="&#xc9;" horiz-adv-x="593" 
d="M92 0zM92 700h443v-71h-363v-243h353v-70h-353v-245h363v-71h-443v700zM468 915l-129 -130h-77l114 130h92z" />
    <glyph glyph-name="Ecircumflex" unicode="&#xca;" horiz-adv-x="593" 
d="M92 0zM92 700h443v-71h-363v-243h353v-70h-353v-245h363v-71h-443v700zM175 785l109 130h78l109 -130h-71l-77 84l-77 -84h-71z" />
    <glyph glyph-name="Edieresis" unicode="&#xcb;" horiz-adv-x="593" 
d="M92 0zM92 700h443v-71h-363v-243h353v-70h-353v-245h363v-71h-443v700zM236 798q-20 0 -35 15t-15 36t15 35.5t35 14.5t35 -14.5t15 -35.5t-15 -36t-35 -15zM410 798q-20 0 -35 15t-15 36t15 35.5t35 14.5t35 -14.5t15 -35.5t-15 -36t-35 -15z" />
    <glyph glyph-name="Igrave" unicode="&#xcc;" horiz-adv-x="265" 
d="M0 0zM92 0v700h80v-700h-80zM191 785h-78l-128 130h92z" />
    <glyph glyph-name="Iacute" unicode="&#xcd;" horiz-adv-x="265" 
d="M72 0zM92 0v700h80v-700h-80zM278 915l-129 -130h-77l114 130h92z" />
    <glyph glyph-name="Icircumflex" unicode="&#xce;" horiz-adv-x="265" 
d="M0 0zM92 0v700h80v-700h-80zM-15 785l109 130h78l109 -130h-71l-77 84l-77 -84h-71z" />
    <glyph glyph-name="Idieresis" unicode="&#xcf;" horiz-adv-x="265" 
d="M0 0zM92 0v700h80v-700h-80zM46 798q-20 0 -35 15t-15 36t15 35.5t35 14.5t35 -14.5t15 -35.5t-15 -36t-35 -15zM220 798q-20 0 -35 15t-15 36t15 35.5t35 14.5t35 -14.5t15 -35.5t-15 -36t-35 -15z" />
    <glyph glyph-name="Eth" unicode="&#xd0;" horiz-adv-x="719" 
d="M3 385h96v315h250q72 0 128.5 -22t96 -62.5t60.5 -98t21 -128.5v-79q0 -71 -21 -128t-60 -97.5t-96 -62.5t-129 -22h-250v316h-96v69zM179 629v-244h151v-69h-151v-245h165q111 0 171 63t60 178v75q0 114 -60 178t-171 64h-165z" />
    <glyph glyph-name="Ntilde" unicode="&#xd1;" horiz-adv-x="742" 
d="M92 0zM92 0v700h89l393 -586l-1 586h76v-700h-87l-395 587l1 -587h-76zM310 906q16 0 32.5 -9.5t32.5 -21t29.5 -21t23.5 -9.5q14 0 23.5 13t20.5 50l51 -12q-27 -105 -91 -105q-16 0 -33 9.5t-32.5 20.5t-29 20.5t-23.5 9.5q-14 0 -23.5 -13t-21.5 -50l-51 12
q29 106 92 106z" />
    <glyph glyph-name="Ograve" unicode="&#xd2;" horiz-adv-x="740" 
d="M64 0zM64 390q0 73 22.5 132t63 101t96.5 65t124 23t124.5 -23t97 -65t62.5 -101t22 -132v-80q0 -73 -22 -132t-62.5 -101t-97 -65t-124.5 -23t-124 23t-96.5 65t-63 101t-22.5 132v80zM144 315q0 -60 16.5 -107.5t46.5 -79.5t71.5 -49t91.5 -17q51 0 92.5 17t71 49
t46 79.5t16.5 107.5v70q0 60 -16.5 107.5t-46 79.5t-71 49t-92.5 17t-92.5 -17t-71 -49t-46 -79.5t-16.5 -107.5v-70zM429 785h-78l-128 130h92z" />
    <glyph glyph-name="Oacute" unicode="&#xd3;" horiz-adv-x="740" 
d="M64 0zM64 390q0 73 22.5 132t63 101t96.5 65t124 23t124.5 -23t97 -65t62.5 -101t22 -132v-80q0 -73 -22 -132t-62.5 -101t-97 -65t-124.5 -23t-124 23t-96.5 65t-63 101t-22.5 132v80zM144 315q0 -60 16.5 -107.5t46.5 -79.5t71.5 -49t91.5 -17q51 0 92.5 17t71 49
t46 79.5t16.5 107.5v70q0 60 -16.5 107.5t-46 79.5t-71 49t-92.5 17t-92.5 -17t-71 -49t-46 -79.5t-16.5 -107.5v-70zM515 915l-129 -130h-77l114 130h92z" />
    <glyph glyph-name="Ocircumflex" unicode="&#xd4;" horiz-adv-x="740" 
d="M64 0zM64 390q0 73 22.5 132t63 101t96.5 65t124 23t124.5 -23t97 -65t62.5 -101t22 -132v-80q0 -73 -22 -132t-62.5 -101t-97 -65t-124.5 -23t-124 23t-96.5 65t-63 101t-22.5 132v80zM144 315q0 -60 16.5 -107.5t46.5 -79.5t71.5 -49t91.5 -17q51 0 92.5 17t71 49
t46 79.5t16.5 107.5v70q0 60 -16.5 107.5t-46 79.5t-71 49t-92.5 17t-92.5 -17t-71 -49t-46 -79.5t-16.5 -107.5v-70zM223 785l109 130h78l109 -130h-71l-77 84l-77 -84h-71z" />
    <glyph glyph-name="Otilde" unicode="&#xd5;" horiz-adv-x="740" 
d="M64 0zM64 390q0 73 22.5 132t63 101t96.5 65t124 23t124.5 -23t97 -65t62.5 -101t22 -132v-80q0 -73 -22 -132t-62.5 -101t-97 -65t-124.5 -23t-124 23t-96.5 65t-63 101t-22.5 132v80zM144 315q0 -60 16.5 -107.5t46.5 -79.5t71.5 -49t91.5 -17q51 0 92.5 17t71 49
t46 79.5t16.5 107.5v70q0 60 -16.5 107.5t-46 79.5t-71 49t-92.5 17t-92.5 -17t-71 -49t-46 -79.5t-16.5 -107.5v-70zM309 906q16 0 32.5 -9.5t32.5 -21t29.5 -21t23.5 -9.5q14 0 23.5 13t20.5 50l51 -12q-27 -105 -91 -105q-16 0 -33 9.5t-32.5 20.5t-29 20.5t-23.5 9.5
q-14 0 -23.5 -13t-21.5 -50l-51 12q29 106 92 106z" />
    <glyph glyph-name="Odieresis" unicode="&#xd6;" horiz-adv-x="740" 
d="M64 0zM64 390q0 73 22.5 132t63 101t96.5 65t124 23t124.5 -23t97 -65t62.5 -101t22 -132v-80q0 -73 -22 -132t-62.5 -101t-97 -65t-124.5 -23t-124 23t-96.5 65t-63 101t-22.5 132v80zM144 315q0 -60 16.5 -107.5t46.5 -79.5t71.5 -49t91.5 -17q51 0 92.5 17t71 49
t46 79.5t16.5 107.5v70q0 60 -16.5 107.5t-46 79.5t-71 49t-92.5 17t-92.5 -17t-71 -49t-46 -79.5t-16.5 -107.5v-70zM283 798q-20 0 -35 15t-15 36t15 35.5t35 14.5t35 -14.5t15 -35.5t-15 -36t-35 -15zM457 798q-20 0 -35 15t-15 36t15 35.5t35 14.5t35 -14.5t15 -35.5
t-15 -36t-35 -15z" />
    <glyph glyph-name="multiply" unicode="&#xd7;" horiz-adv-x="525" 
d="M66 203l154 156l-154 156l43 43l154 -156l153 156l42 -42l-154 -156l155 -157l-43 -43l-154 157l-154 -156z" />
    <glyph glyph-name="Oslash" unicode="&#xd8;" horiz-adv-x="740" 
d="M131 98q-32 41 -49.5 94t-17.5 118v80q0 73 22.5 132t63 101t96.5 65t124 23q58 0 107.5 -16.5t87.5 -47.5l42 53h78l-76 -97q32 -41 49.5 -94.5t17.5 -118.5v-80q0 -73 -22 -132t-62.5 -101t-97 -65t-124.5 -23q-116 0 -196 65l-42 -54h-78zM144 315q0 -47 10 -85
t28 -68l336 425q-59 51 -148 51q-51 0 -92.5 -17t-71 -49t-46 -79.5t-16.5 -107.5v-70zM596 385q0 47 -10 85.5t-28 68.5l-336 -425q58 -52 148 -52q51 0 92.5 17t71 49t46 79.5t16.5 107.5v70z" />
    <glyph glyph-name="Ugrave" unicode="&#xd9;" horiz-adv-x="709" 
d="M82 0zM162 264q0 -46 14.5 -83.5t39.5 -63.5t59 -40.5t74 -14.5q39 0 73.5 14.5t60 41t40 63.5t14.5 83v436h80v-700h-80v107q-29 -50 -80.5 -83.5t-120.5 -33.5q-53 0 -99.5 19t-81 54t-54 84.5t-19.5 110.5v442h80v-436v0zM409 785h-78l-128 130h92z" />
    <glyph glyph-name="Uacute" unicode="&#xda;" horiz-adv-x="709" 
d="M82 0zM162 264q0 -46 14.5 -83.5t39.5 -63.5t59 -40.5t74 -14.5q39 0 73.5 14.5t60 41t40 63.5t14.5 83v436h80v-700h-80v107q-29 -50 -80.5 -83.5t-120.5 -33.5q-53 0 -99.5 19t-81 54t-54 84.5t-19.5 110.5v442h80v-436v0zM495 915l-129 -130h-77l114 130h92z" />
    <glyph glyph-name="Ucircumflex" unicode="&#xdb;" horiz-adv-x="709" 
d="M82 0zM162 264q0 -46 14.5 -83.5t39.5 -63.5t59 -40.5t74 -14.5q39 0 73.5 14.5t60 41t40 63.5t14.5 83v436h80v-700h-80v107q-29 -50 -80.5 -83.5t-120.5 -33.5q-53 0 -99.5 19t-81 54t-54 84.5t-19.5 110.5v442h80v-436v0zM203 785l109 130h78l109 -130h-71l-77 84
l-77 -84h-71z" />
    <glyph glyph-name="Udieresis" unicode="&#xdc;" horiz-adv-x="709" 
d="M82 0zM162 264q0 -46 14.5 -83.5t39.5 -63.5t59 -40.5t74 -14.5q39 0 73.5 14.5t60 41t40 63.5t14.5 83v436h80v-700h-80v107q-29 -50 -80.5 -83.5t-120.5 -33.5q-53 0 -99.5 19t-81 54t-54 84.5t-19.5 110.5v442h80v-436v0zM263 798q-20 0 -35 15t-15 36t15 35.5
t35 14.5t35 -14.5t15 -35.5t-15 -36t-35 -15zM437 798q-20 0 -35 15t-15 36t15 35.5t35 14.5t35 -14.5t15 -35.5t-15 -36t-35 -15z" />
    <glyph glyph-name="Yacute" unicode="&#xdd;" horiz-adv-x="618" 
d="M1 0zM269 0v292l-268 408h94l216 -333l214 333h92l-268 -411v-289h-80zM454 915l-129 -130h-77l114 130h92z" />
    <glyph glyph-name="Thorn" unicode="&#xde;" horiz-adv-x="591" 
d="M172 555h168q45 0 84 -16t67.5 -44t44.5 -65.5t16 -80.5t-16 -80t-44.5 -64.5t-67.5 -43.5t-84 -16h-168v-145h-80v700h80v-145zM172 485v-272h164q30 0 54.5 10.5t42.5 29t28 43t10 52.5t-10 53t-28 44t-42.5 29.5t-54.5 10.5h-164z" />
    <glyph glyph-name="germandbls" unicode="&#xdf;" horiz-adv-x="661" 
d="M384 392q-20 -13 -28.5 -23.5t-8.5 -24.5q0 -20 17 -30.5t46 -18.5l76 -24q62 -19 94.5 -52t32.5 -84q0 -32 -12 -58.5t-34 -45.5t-53 -30t-69 -11q-41 0 -74 11.5t-57.5 31t-40 46.5t-20.5 59h74q8 -38 38.5 -62t78.5 -24q45 0 70 22t25 55q0 29 -19.5 46.5t-54.5 28.5
l-71 21q-58 17 -89 43.5t-31 68.5q0 37 16 60t54 46l60 38q26 17 39 35.5t13 43.5q0 23 -10 42.5t-28 34t-43 22.5t-55 8q-35 0 -63.5 -12t-48.5 -33.5t-31.5 -51.5t-11.5 -66v-504h-77v504q0 54 17.5 97t48 72.5t73 45.5t93.5 16q46 0 84.5 -13t67 -35.5t44.5 -54t16 -68.5
q0 -48 -20 -76.5t-61 -54.5l-67 -41v0z" />
    <glyph glyph-name="agrave" unicode="&#xe0;" horiz-adv-x="544" 
d="M42 0zM42 145q0 72 44 110t119 43l167 9v49q0 52 -28.5 81t-82.5 29q-40 0 -74.5 -14t-66.5 -44l-40 55q41 35 86.5 53.5t102.5 18.5q83 0 131 -45.5t48 -123.5v-267q0 -31 34 -31h26v-68h-43q-40 0 -64 21.5t-27 56.5q-23 -40 -64 -63.5t-93 -23.5q-38 0 -70 11.5
t-55.5 32t-36.5 48.5t-13 62zM117 148q0 -42 31 -68t80 -26q30 0 56.5 10t46 27.5t30.5 40.5t11 49v63l-158 -8q-45 -2 -71 -24.5t-26 -63.5zM320 611h-78l-128 130h92z" />
    <glyph glyph-name="aacute" unicode="&#xe1;" horiz-adv-x="544" 
d="M42 0zM42 145q0 72 44 110t119 43l167 9v49q0 52 -28.5 81t-82.5 29q-40 0 -74.5 -14t-66.5 -44l-40 55q41 35 86.5 53.5t102.5 18.5q83 0 131 -45.5t48 -123.5v-267q0 -31 34 -31h26v-68h-43q-40 0 -64 21.5t-27 56.5q-23 -40 -64 -63.5t-93 -23.5q-38 0 -70 11.5
t-55.5 32t-36.5 48.5t-13 62zM117 148q0 -42 31 -68t80 -26q30 0 56.5 10t46 27.5t30.5 40.5t11 49v63l-158 -8q-45 -2 -71 -24.5t-26 -63.5zM406 741l-129 -130h-77l114 130h92z" />
    <glyph glyph-name="acircumflex" unicode="&#xe2;" horiz-adv-x="544" 
d="M42 0zM42 145q0 72 44 110t119 43l167 9v49q0 52 -28.5 81t-82.5 29q-40 0 -74.5 -14t-66.5 -44l-40 55q41 35 86.5 53.5t102.5 18.5q83 0 131 -45.5t48 -123.5v-267q0 -31 34 -31h26v-68h-43q-40 0 -64 21.5t-27 56.5q-23 -40 -64 -63.5t-93 -23.5q-38 0 -70 11.5
t-55.5 32t-36.5 48.5t-13 62zM117 148q0 -42 31 -68t80 -26q30 0 56.5 10t46 27.5t30.5 40.5t11 49v63l-158 -8q-45 -2 -71 -24.5t-26 -63.5zM114 611l109 130h78l109 -130h-71l-77 84l-77 -84h-71z" />
    <glyph glyph-name="atilde" unicode="&#xe3;" horiz-adv-x="544" 
d="M42 0zM42 145q0 72 44 110t119 43l167 9v49q0 52 -28.5 81t-82.5 29q-40 0 -74.5 -14t-66.5 -44l-40 55q41 35 86.5 53.5t102.5 18.5q83 0 131 -45.5t48 -123.5v-267q0 -31 34 -31h26v-68h-43q-40 0 -64 21.5t-27 56.5q-23 -40 -64 -63.5t-93 -23.5q-38 0 -70 11.5
t-55.5 32t-36.5 48.5t-13 62zM117 148q0 -42 31 -68t80 -26q30 0 56.5 10t46 27.5t30.5 40.5t11 49v63l-158 -8q-45 -2 -71 -24.5t-26 -63.5zM200 732q16 0 32.5 -9.5t32.5 -21t29.5 -21t23.5 -9.5q14 0 23.5 13t20.5 50l51 -12q-27 -105 -91 -105q-16 0 -33 9.5t-32.5 20.5
t-29 20.5t-23.5 9.5q-14 0 -23.5 -13t-21.5 -50l-51 12q29 106 92 106z" />
    <glyph glyph-name="adieresis" unicode="&#xe4;" horiz-adv-x="544" 
d="M42 0zM42 145q0 72 44 110t119 43l167 9v49q0 52 -28.5 81t-82.5 29q-40 0 -74.5 -14t-66.5 -44l-40 55q41 35 86.5 53.5t102.5 18.5q83 0 131 -45.5t48 -123.5v-267q0 -31 34 -31h26v-68h-43q-40 0 -64 21.5t-27 56.5q-23 -40 -64 -63.5t-93 -23.5q-38 0 -70 11.5
t-55.5 32t-36.5 48.5t-13 62zM117 148q0 -42 31 -68t80 -26q30 0 56.5 10t46 27.5t30.5 40.5t11 49v63l-158 -8q-45 -2 -71 -24.5t-26 -63.5zM174 624q-20 0 -35 15t-15 36t15 35.5t35 14.5t35 -14.5t15 -35.5t-15 -36t-35 -15zM348 624q-20 0 -35 15t-15 36t15 35.5
t35 14.5t35 -14.5t15 -35.5t-15 -36t-35 -15z" />
    <glyph glyph-name="aring" unicode="&#xe5;" horiz-adv-x="544" 
d="M42 0zM42 145q0 72 44 110t119 43l167 9v49q0 52 -28.5 81t-82.5 29q-40 0 -74.5 -14t-66.5 -44l-40 55q41 35 86.5 53.5t102.5 18.5q83 0 131 -45.5t48 -123.5v-267q0 -31 34 -31h26v-68h-43q-40 0 -64 21.5t-27 56.5q-23 -40 -64 -63.5t-93 -23.5q-38 0 -70 11.5
t-55.5 32t-36.5 48.5t-13 62zM117 148q0 -42 31 -68t80 -26q30 0 56.5 10t46 27.5t30.5 40.5t11 49v63l-158 -8q-45 -2 -71 -24.5t-26 -63.5zM261 594q-22 0 -41 8t-33.5 22t-22.5 32.5t-8 39.5t8 39.5t22.5 32.5t33.5 22t41 8t41 -8t33 -22t22.5 -32.5t8.5 -39.5
t-8.5 -39.5t-22.5 -32.5t-33 -22t-41 -8zM261 635q26 0 44 17.5t18 43.5t-18 43.5t-44 17.5t-44 -17.5t-18 -43.5t18 -43.5t44 -17.5z" />
    <glyph glyph-name="ae" unicode="&#xe6;" horiz-adv-x="864" 
d="M798 84q-37 -47 -84.5 -70.5t-110.5 -23.5q-64 0 -114 31.5t-77 86.5q-23 -51 -72.5 -84.5t-117.5 -33.5q-39 0 -72 11.5t-57 32.5t-37.5 49.5t-13.5 62.5q0 70 44 108t119 42l169 9v52q0 52 -29.5 81t-83.5 29q-40 0 -74.5 -14t-66.5 -44l-40 55q41 35 86.5 53.5
t102.5 18.5t97.5 -23.5t60.5 -66.5q29 42 73 66t98 24q45 0 84 -17t67 -48t44 -73t16 -93v-63h-358v-15q0 -38 11.5 -69.5t31.5 -54t48.5 -34.5t61.5 -12q84 0 141 72zM597 469q-32 0 -58.5 -12t-46 -34t-30.5 -52t-11 -66h282v1q0 36 -10 66t-28 51.5t-43 33.5t-55 12z
M117 148q0 -41 31 -67t81 -26q30 0 56.5 10t46 27t31 39.5t11.5 48.5v62l-160 -8q-45 -2 -71 -24t-26 -62z" />
    <glyph glyph-name="ccedilla" unicode="&#xe7;" horiz-adv-x="540" 
d="M381 -138q0 -38 -30 -64t-74 -26q-33 0 -61 12.5t-44 34.5l37 31q27 -33 66 -33q24 0 38.5 13t14.5 33t-16.5 32.5t-43.5 12.5h-33l25 83q-44 4 -80.5 22t-63 48.5t-41.5 72t-15 91.5v76q0 53 16.5 96.5t46.5 74t70.5 47.5t88.5 17q82 0 139.5 -47t74.5 -130h-77
q-14 51 -50 80t-87 29q-33 0 -60 -12.5t-46 -35t-29.5 -54t-10.5 -70.5v-65q0 -78 40 -125.5t106 -47.5q51 0 87 29t50 80h77q-16 -75 -66.5 -121.5t-122.5 -54.5l-14 -46q40 -3 64 -25.5t24 -57.5z" />
    <glyph glyph-name="egrave" unicode="&#xe8;" horiz-adv-x="547" 
d="M60 0zM60 301q0 52 16.5 95t46.5 74t71 48.5t89 17.5q45 0 83.5 -17t66 -48t43.5 -73t16 -93v-65h-356v-13q0 -38 11 -69t31.5 -53.5t48.5 -34.5t61 -12q42 0 76.5 17t63.5 55l54 -45q-38 -48 -85.5 -71t-110.5 -23q-49 0 -90.5 17.5t-71.5 48.5t-47 74t-17 95v75z
M281 469q-32 0 -58.5 -12t-45.5 -34t-30 -52.5t-11 -67.5h281v4q0 36 -10.5 66t-28.5 51t-43 33t-54 12zM342 612h-78l-128 130h92z" />
    <glyph glyph-name="eacute" unicode="&#xe9;" horiz-adv-x="547" 
d="M60 0zM60 301q0 52 16.5 95t46.5 74t71 48.5t89 17.5q45 0 83.5 -17t66 -48t43.5 -73t16 -93v-65h-356v-13q0 -38 11 -69t31.5 -53.5t48.5 -34.5t61 -12q42 0 76.5 17t63.5 55l54 -45q-38 -48 -85.5 -71t-110.5 -23q-49 0 -90.5 17.5t-71.5 48.5t-47 74t-17 95v75z
M281 469q-32 0 -58.5 -12t-45.5 -34t-30 -52.5t-11 -67.5h281v4q0 36 -10.5 66t-28.5 51t-43 33t-54 12zM428 742l-129 -130h-77l114 130h92z" />
    <glyph glyph-name="ecircumflex" unicode="&#xea;" horiz-adv-x="547" 
d="M60 0zM60 301q0 52 16.5 95t46.5 74t71 48.5t89 17.5q45 0 83.5 -17t66 -48t43.5 -73t16 -93v-65h-356v-13q0 -38 11 -69t31.5 -53.5t48.5 -34.5t61 -12q42 0 76.5 17t63.5 55l54 -45q-38 -48 -85.5 -71t-110.5 -23q-49 0 -90.5 17.5t-71.5 48.5t-47 74t-17 95v75z
M281 469q-32 0 -58.5 -12t-45.5 -34t-30 -52.5t-11 -67.5h281v4q0 36 -10.5 66t-28.5 51t-43 33t-54 12zM136 612l109 130h78l109 -130h-71l-77 84l-77 -84h-71z" />
    <glyph glyph-name="edieresis" unicode="&#xeb;" horiz-adv-x="547" 
d="M60 0zM60 301q0 52 16.5 95t46.5 74t71 48.5t89 17.5q45 0 83.5 -17t66 -48t43.5 -73t16 -93v-65h-356v-13q0 -38 11 -69t31.5 -53.5t48.5 -34.5t61 -12q42 0 76.5 17t63.5 55l54 -45q-38 -48 -85.5 -71t-110.5 -23q-49 0 -90.5 17.5t-71.5 48.5t-47 74t-17 95v75z
M281 469q-32 0 -58.5 -12t-45.5 -34t-30 -52.5t-11 -67.5h281v4q0 36 -10.5 66t-28.5 51t-43 33t-54 12zM196 625q-20 0 -35 15t-15 36t15 35.5t35 14.5t35 -14.5t15 -35.5t-15 -36t-35 -15zM370 625q-20 0 -35 15t-15 36t15 35.5t35 14.5t35 -14.5t15 -35.5t-15 -36
t-35 -15z" />
    <glyph glyph-name="igrave" unicode="&#xec;" horiz-adv-x="253" 
d="M0 0zM165 0h-77v527h77v-527zM185 611h-78l-128 130h92z" />
    <glyph glyph-name="iacute" unicode="&#xed;" horiz-adv-x="253" 
d="M65 0zM165 0h-77v527h77v-527zM271 741l-129 -130h-77l114 130h92z" />
    <glyph glyph-name="icircumflex" unicode="&#xee;" horiz-adv-x="253" 
d="M0 0zM165 0h-77v527h77v-527zM-21 612l109 130h78l109 -130h-71l-77 84l-77 -84h-71z" />
    <glyph glyph-name="idieresis" unicode="&#xef;" horiz-adv-x="253" 
d="M0 0zM165 0h-77v527h77v-527zM39 624q-20 0 -35 15t-15 36t15 35.5t35 14.5t35 -14.5t15 -35.5t-15 -36t-35 -15zM213 624q-20 0 -35 15t-15 36t15 35.5t35 14.5t35 -14.5t15 -35.5t-15 -36t-35 -15z" />
    <glyph glyph-name="eth" unicode="&#xf0;" horiz-adv-x="575" 
d="M60 291q0 52 16 94.5t44.5 72.5t68 46.5t85.5 16.5q51 0 90.5 -21.5t65.5 -59.5q-13 54 -38 101t-61 84l-94 -59l-31 47l81 51q-44 33 -96 51l29 58q73 -27 127 -71l109 68l30 -47l-96 -61q63 -66 94 -155.5t31 -199.5v-80q0 -54 -17 -98t-47.5 -74.5t-72.5 -47.5
t-91 -17t-90.5 17t-72 47.5t-47.5 73.5t-17 96v67zM439 286q0 38 -11 69.5t-30.5 54t-48 35t-62.5 12.5q-69 0 -110 -47t-41 -124v-57q0 -78 41 -124.5t110 -46.5q34 0 62.5 12t48 34.5t30.5 54t11 70.5v57z" />
    <glyph glyph-name="ntilde" unicode="&#xf1;" 
d="M88 0zM517 0h-77v329q0 30 -9.5 55t-26.5 43.5t-41.5 29t-54.5 10.5q-32 0 -58 -11t-45 -30.5t-29.5 -45.5t-10.5 -57v-323h-77v527h77v-99q21 51 65.5 80t101.5 29q42 0 76 -15t58 -41t37.5 -61.5t13.5 -75.5v-344zM242 733q16 0 32.5 -9.5t32.5 -21t29.5 -21t23.5 -9.5
q14 0 23.5 13t20.5 50l51 -12q-27 -105 -91 -105q-16 0 -33 9.5t-32.5 20.5t-29 20.5t-23.5 9.5q-14 0 -23.5 -13t-21.5 -50l-51 12q29 106 92 106z" />
    <glyph glyph-name="ograve" unicode="&#xf2;" horiz-adv-x="574" 
d="M60 0zM514 225q0 -53 -17 -96.5t-47.5 -74.5t-72 -47.5t-90.5 -16.5t-90.5 17t-72 47.5t-47.5 74t-17 96.5v76q0 53 17 96.5t47 74t71.5 47.5t91.5 17q49 0 90.5 -17t72 -47.5t47.5 -74t17 -96.5v-76zM438 296q0 78 -41 125t-110 47q-35 0 -62.5 -12.5t-47.5 -35
t-30.5 -54t-10.5 -70.5v-65q0 -78 41 -125.5t110 -47.5q34 0 62 12.5t47.5 35t30.5 54.5t11 71v65zM346 612h-78l-128 130h92z" />
    <glyph glyph-name="oacute" unicode="&#xf3;" horiz-adv-x="574" 
d="M60 0zM514 225q0 -53 -17 -96.5t-47.5 -74.5t-72 -47.5t-90.5 -16.5t-90.5 17t-72 47.5t-47.5 74t-17 96.5v76q0 53 17 96.5t47 74t71.5 47.5t91.5 17q49 0 90.5 -17t72 -47.5t47.5 -74t17 -96.5v-76zM438 296q0 78 -41 125t-110 47q-35 0 -62.5 -12.5t-47.5 -35
t-30.5 -54t-10.5 -70.5v-65q0 -78 41 -125.5t110 -47.5q34 0 62 12.5t47.5 35t30.5 54.5t11 71v65zM432 742l-129 -130h-77l114 130h92z" />
    <glyph glyph-name="ocircumflex" unicode="&#xf4;" horiz-adv-x="574" 
d="M60 0zM514 225q0 -53 -17 -96.5t-47.5 -74.5t-72 -47.5t-90.5 -16.5t-90.5 17t-72 47.5t-47.5 74t-17 96.5v76q0 53 17 96.5t47 74t71.5 47.5t91.5 17q49 0 90.5 -17t72 -47.5t47.5 -74t17 -96.5v-76zM438 296q0 78 -41 125t-110 47q-35 0 -62.5 -12.5t-47.5 -35
t-30.5 -54t-10.5 -70.5v-65q0 -78 41 -125.5t110 -47.5q34 0 62 12.5t47.5 35t30.5 54.5t11 71v65zM140 612l109 130h78l109 -130h-71l-77 84l-77 -84h-71z" />
    <glyph glyph-name="otilde" unicode="&#xf5;" horiz-adv-x="574" 
d="M60 0zM514 225q0 -53 -17 -96.5t-47.5 -74.5t-72 -47.5t-90.5 -16.5t-90.5 17t-72 47.5t-47.5 74t-17 96.5v76q0 53 17 96.5t47 74t71.5 47.5t91.5 17q49 0 90.5 -17t72 -47.5t47.5 -74t17 -96.5v-76zM438 296q0 78 -41 125t-110 47q-35 0 -62.5 -12.5t-47.5 -35
t-30.5 -54t-10.5 -70.5v-65q0 -78 41 -125.5t110 -47.5q34 0 62 12.5t47.5 35t30.5 54.5t11 71v65zM226 733q16 0 32.5 -9.5t32.5 -21t29.5 -21t23.5 -9.5q14 0 23.5 13t20.5 50l51 -12q-27 -105 -91 -105q-16 0 -33 9.5t-32.5 20.5t-29 20.5t-23.5 9.5q-14 0 -23.5 -13
t-21.5 -50l-51 12q29 106 92 106z" />
    <glyph glyph-name="odieresis" unicode="&#xf6;" horiz-adv-x="574" 
d="M60 0zM514 225q0 -53 -17 -96.5t-47.5 -74.5t-72 -47.5t-90.5 -16.5t-90.5 17t-72 47.5t-47.5 74t-17 96.5v76q0 53 17 96.5t47 74t71.5 47.5t91.5 17q49 0 90.5 -17t72 -47.5t47.5 -74t17 -96.5v-76zM438 296q0 78 -41 125t-110 47q-35 0 -62.5 -12.5t-47.5 -35
t-30.5 -54t-10.5 -70.5v-65q0 -78 41 -125.5t110 -47.5q34 0 62 12.5t47.5 35t30.5 54.5t11 71v65zM200 625q-20 0 -35 15t-15 36t15 35.5t35 14.5t35 -14.5t15 -35.5t-15 -36t-35 -15zM374 625q-20 0 -35 15t-15 36t15 35.5t35 14.5t35 -14.5t15 -35.5t-15 -36t-35 -15z
" />
    <glyph glyph-name="divide" unicode="&#xf7;" horiz-adv-x="549" 
d="M274 593q21 0 36 -15t15 -37q0 -21 -15 -36t-36 -15t-36 15t-15 36q0 22 15 37t36 15zM66 329v62h417v-62h-417zM274 224q21 0 36 -15t15 -37q0 -21 -15 -36t-36 -15t-36 15t-15 36q0 22 15 37t36 15z" />
    <glyph glyph-name="oslash" unicode="&#xf8;" horiz-adv-x="579" 
d="M107 77q-22 29 -33.5 66.5t-11.5 81.5v76q0 53 17 96.5t47 74t71.5 47.5t91.5 17q43 0 80.5 -13t66.5 -37l33 41h68l-65 -80q21 -29 32.5 -65.5t11.5 -80.5v-76q0 -53 -17 -96.5t-47.5 -74.5t-72 -47.5t-90.5 -16.5q-85 0 -145 49l-31 -39h-68zM138 231q0 -51 19 -92
l233 290q-39 39 -101 39q-35 0 -62.5 -12.5t-47.5 -35t-30.5 -54t-10.5 -70.5v-65zM440 296q0 50 -18 88l-233 -289q40 -37 100 -37q34 0 62 12.5t47.5 35t30.5 54.5t11 71v65z" />
    <glyph glyph-name="ugrave" unicode="&#xf9;" 
d="M88 0zM88 527h77v-330q0 -59 36 -98t96 -39q31 0 57.5 11t45.5 30t29.5 45.5t10.5 57.5v323h77v-527h-77v99q-21 -51 -65.5 -80t-100.5 -29q-42 0 -76.5 15t-58.5 40.5t-37.5 60.5t-13.5 76v345zM362 611h-78l-128 130h92z" />
    <glyph glyph-name="uacute" unicode="&#xfa;" 
d="M88 0zM88 527h77v-330q0 -59 36 -98t96 -39q31 0 57.5 11t45.5 30t29.5 45.5t10.5 57.5v323h77v-527h-77v99q-21 -51 -65.5 -80t-100.5 -29q-42 0 -76.5 15t-58.5 40.5t-37.5 60.5t-13.5 76v345zM448 741l-129 -130h-77l114 130h92z" />
    <glyph glyph-name="ucircumflex" unicode="&#xfb;" 
d="M88 0zM88 527h77v-330q0 -59 36 -98t96 -39q31 0 57.5 11t45.5 30t29.5 45.5t10.5 57.5v323h77v-527h-77v99q-21 -51 -65.5 -80t-100.5 -29q-42 0 -76.5 15t-58.5 40.5t-37.5 60.5t-13.5 76v345zM156 612l109 130h78l109 -130h-71l-77 84l-77 -84h-71z" />
    <glyph glyph-name="udieresis" unicode="&#xfc;" 
d="M88 0zM88 527h77v-330q0 -59 36 -98t96 -39q31 0 57.5 11t45.5 30t29.5 45.5t10.5 57.5v323h77v-527h-77v99q-21 -51 -65.5 -80t-100.5 -29q-42 0 -76.5 15t-58.5 40.5t-37.5 60.5t-13.5 76v345zM216 624q-20 0 -35 15t-15 36t15 35.5t35 14.5t35 -14.5t15 -35.5t-15 -36
t-35 -15zM390 624q-20 0 -35 15t-15 36t15 35.5t35 14.5t35 -14.5t15 -35.5t-15 -36t-35 -15z" />
    <glyph glyph-name="yacute" unicode="&#xfd;" horiz-adv-x="506" 
d="M5 0zM217 7l-212 520h81l171 -421l164 421h80l-255 -641q-19 -50 -48.5 -75.5t-80.5 -25.5h-68v67h56q28 0 45 14.5t28 41.5zM400 742l-129 -130h-77l114 130h92z" />
    <glyph glyph-name="thorn" unicode="&#xfe;" 
d="M165 733v-296q26 47 70 73t101 26q45 0 83.5 -16.5t66.5 -47.5t43.5 -74t15.5 -95v-79q0 -53 -16 -96t-43.5 -73.5t-66 -47.5t-83.5 -17q-58 0 -102 27.5t-69 75.5v-308h-77v948h77zM165 231q0 -78 41 -125.5t111 -47.5t111 47.5t41 125.5v65q0 78 -41 125t-111 47
t-111 -47t-41 -125v-65z" />
    <glyph glyph-name="ydieresis" unicode="&#xff;" horiz-adv-x="506" 
d="M5 0zM217 7l-212 520h81l171 -421l164 421h80l-255 -641q-19 -50 -48.5 -75.5t-80.5 -25.5h-68v67h56q28 0 45 14.5t28 41.5zM168 625q-20 0 -35 15t-15 36t15 35.5t35 14.5t35 -14.5t15 -35.5t-15 -36t-35 -15zM342 625q-20 0 -35 15t-15 36t15 35.5t35 14.5t35 -14.5
t15 -35.5t-15 -36t-35 -15z" />
    <glyph glyph-name="Amacron" unicode="&#x100;" horiz-adv-x="656" 
d="M6 0zM650 0h-87l-75 195h-323l-75 -195h-84l277 700h90zM461 266l-134 349l-135 -349h269zM453 813h-248v55h248v-55z" />
    <glyph glyph-name="amacron" unicode="&#x101;" horiz-adv-x="544" 
d="M42 0zM42 145q0 72 44 110t119 43l167 9v49q0 52 -28.5 81t-82.5 29q-40 0 -74.5 -14t-66.5 -44l-40 55q41 35 86.5 53.5t102.5 18.5q83 0 131 -45.5t48 -123.5v-267q0 -31 34 -31h26v-68h-43q-40 0 -64 21.5t-27 56.5q-23 -40 -64 -63.5t-93 -23.5q-38 0 -70 11.5
t-55.5 32t-36.5 48.5t-13 62zM117 148q0 -42 31 -68t80 -26q30 0 56.5 10t46 27.5t30.5 40.5t11 49v63l-158 -8q-45 -2 -71 -24.5t-26 -63.5zM385 639h-248v55h248v-55z" />
    <glyph glyph-name="Abreve" unicode="&#x102;" horiz-adv-x="656" 
d="M6 0zM650 0h-87l-75 195h-323l-75 -195h-84l277 700h90zM461 266l-134 349l-135 -349h269zM329 841q13 0 26 3t25 11.5t21.5 23t15.5 37.5l55 -17q-14 -54 -53.5 -83.5t-89.5 -29.5t-89.5 29t-53.5 84l55 17q13 -46 37.5 -60.5t50.5 -14.5z" />
    <glyph glyph-name="abreve" unicode="&#x103;" horiz-adv-x="544" 
d="M42 0zM42 145q0 72 44 110t119 43l167 9v49q0 52 -28.5 81t-82.5 29q-40 0 -74.5 -14t-66.5 -44l-40 55q41 35 86.5 53.5t102.5 18.5q83 0 131 -45.5t48 -123.5v-267q0 -31 34 -31h26v-68h-43q-40 0 -64 21.5t-27 56.5q-23 -40 -64 -63.5t-93 -23.5q-38 0 -70 11.5
t-55.5 32t-36.5 48.5t-13 62zM117 148q0 -42 31 -68t80 -26q30 0 56.5 10t46 27.5t30.5 40.5t11 49v63l-158 -8q-45 -2 -71 -24.5t-26 -63.5zM261 667q13 0 26 3t25 11.5t21.5 23t15.5 37.5l55 -17q-14 -54 -53.5 -83.5t-89.5 -29.5t-89.5 29t-53.5 84l55 17
q13 -46 37.5 -60.5t50.5 -14.5z" />
    <glyph glyph-name="Aogonek" unicode="&#x104;" horiz-adv-x="656" 
d="M650 0q-25 -21 -40.5 -38.5t-24.5 -32.5t-12 -28t-3 -25q0 -49 50 -49q9 0 18.5 1t17.5 4l8 -45q-24 -8 -52 -8q-48 0 -72 24t-24 61q0 31 15.5 63t61.5 73h-30l-75 195h-323l-75 -195h-84l277 700h90zM461 266l-134 349l-135 -349h269z" />
    <glyph glyph-name="aogonek" unicode="&#x105;" horiz-adv-x="544" 
d="M42 145q0 72 44 110t119 43l167 9v49q0 52 -28.5 81t-82.5 29q-40 0 -74.5 -14t-66.5 -44l-40 55q41 35 86.5 53.5t102.5 18.5q83 0 131 -45.5t48 -123.5v-267q0 -31 34 -31h26v-68q-25 -21 -40.5 -38.5t-24.5 -32.5t-12 -28t-3 -25q0 -49 50 -49q9 0 18.5 1t17.5 4
l8 -45q-24 -8 -52 -8q-48 0 -72 24t-24 61q0 31 15.5 63.5t62.5 73.5q-35 4 -55 24.5t-23 52.5q-23 -40 -64 -63.5t-93 -23.5q-38 0 -70 11.5t-55.5 32t-36.5 48.5t-13 62zM117 148q0 -42 31 -68t80 -26q30 0 56.5 10t46 27.5t30.5 40.5t11 49v63l-158 -8q-45 -2 -71 -24.5
t-26 -63.5z" />
    <glyph glyph-name="Cacute" unicode="&#x106;" horiz-adv-x="695" 
d="M64 0zM569 463q-9 42 -28 75t-46 55t-61 33.5t-72 11.5q-46 0 -86 -16.5t-69 -48t-46 -78.5t-17 -107v-76q0 -60 17 -107t46.5 -78.5t69 -48t85.5 -16.5q38 0 72 11.5t61 33.5t46 55t28 75h78q-10 -59 -35.5 -105t-63 -77.5t-85 -48.5t-101.5 -17q-63 0 -117.5 22
t-94.5 63.5t-63 101t-23 134.5v80q0 75 23 134.5t63 101t94.5 63.5t117.5 22q54 0 101.5 -17t85 -48.5t63 -78t35.5 -104.5h-78zM511 915l-129 -130h-77l114 130h92z" />
    <glyph glyph-name="cacute" unicode="&#x107;" horiz-adv-x="541" 
d="M60 0zM282 -10q-48 0 -88.5 17t-70.5 47.5t-46.5 74t-16.5 96.5v76q0 53 16.5 96.5t46.5 74t70.5 47.5t88.5 17q82 0 139.5 -47t74.5 -130h-77q-14 51 -50 80t-87 29q-33 0 -60 -12.5t-46 -35t-29.5 -54t-10.5 -70.5v-65q0 -78 40 -125.5t106 -47.5q51 0 87 29t50 80h77
q-9 -41 -28 -73.5t-47 -55.5t-63.5 -35.5t-75.5 -12.5zM427 742l-129 -130h-77l114 130h92z" />
    <glyph glyph-name="Ccircumflex" unicode="&#x108;" horiz-adv-x="695" 
d="M64 0zM569 463q-9 42 -28 75t-46 55t-61 33.5t-72 11.5q-46 0 -86 -16.5t-69 -48t-46 -78.5t-17 -107v-76q0 -60 17 -107t46.5 -78.5t69 -48t85.5 -16.5q38 0 72 11.5t61 33.5t46 55t28 75h78q-10 -59 -35.5 -105t-63 -77.5t-85 -48.5t-101.5 -17q-63 0 -117.5 22
t-94.5 63.5t-63 101t-23 134.5v80q0 75 23 134.5t63 101t94.5 63.5t117.5 22q54 0 101.5 -17t85 -48.5t63 -78t35.5 -104.5h-78zM219 785l109 130h78l109 -130h-71l-77 84l-77 -84h-71z" />
    <glyph glyph-name="ccircumflex" unicode="&#x109;" horiz-adv-x="541" 
d="M60 0zM282 -10q-48 0 -88.5 17t-70.5 47.5t-46.5 74t-16.5 96.5v76q0 53 16.5 96.5t46.5 74t70.5 47.5t88.5 17q82 0 139.5 -47t74.5 -130h-77q-14 51 -50 80t-87 29q-33 0 -60 -12.5t-46 -35t-29.5 -54t-10.5 -70.5v-65q0 -78 40 -125.5t106 -47.5q51 0 87 29t50 80h77
q-9 -41 -28 -73.5t-47 -55.5t-63.5 -35.5t-75.5 -12.5zM135 612l109 130h78l109 -130h-71l-77 84l-77 -84h-71z" />
    <glyph glyph-name="Cdotaccent" unicode="&#x10a;" horiz-adv-x="695" 
d="M64 0zM569 463q-9 42 -28 75t-46 55t-61 33.5t-72 11.5q-46 0 -86 -16.5t-69 -48t-46 -78.5t-17 -107v-76q0 -60 17 -107t46.5 -78.5t69 -48t85.5 -16.5q38 0 72 11.5t61 33.5t46 55t28 75h78q-10 -59 -35.5 -105t-63 -77.5t-85 -48.5t-101.5 -17q-63 0 -117.5 22
t-94.5 63.5t-63 101t-23 134.5v80q0 75 23 134.5t63 101t94.5 63.5t117.5 22q54 0 101.5 -17t85 -48.5t63 -78t35.5 -104.5h-78zM366 798q-20 0 -35 15t-15 36t15 35.5t35 14.5t34.5 -14.5t14.5 -35.5t-14.5 -36t-34.5 -15z" />
    <glyph glyph-name="cdotaccent" unicode="&#x10b;" horiz-adv-x="541" 
d="M60 0zM282 -10q-48 0 -88.5 17t-70.5 47.5t-46.5 74t-16.5 96.5v76q0 53 16.5 96.5t46.5 74t70.5 47.5t88.5 17q82 0 139.5 -47t74.5 -130h-77q-14 51 -50 80t-87 29q-33 0 -60 -12.5t-46 -35t-29.5 -54t-10.5 -70.5v-65q0 -78 40 -125.5t106 -47.5q51 0 87 29t50 80h77
q-9 -41 -28 -73.5t-47 -55.5t-63.5 -35.5t-75.5 -12.5zM282 625q-20 0 -35 15t-15 36t15 35.5t35 14.5t34.5 -14.5t14.5 -35.5t-14.5 -36t-34.5 -15z" />
    <glyph glyph-name="Ccaron" unicode="&#x10c;" horiz-adv-x="695" 
d="M64 0zM569 463q-9 42 -28 75t-46 55t-61 33.5t-72 11.5q-46 0 -86 -16.5t-69 -48t-46 -78.5t-17 -107v-76q0 -60 17 -107t46.5 -78.5t69 -48t85.5 -16.5q38 0 72 11.5t61 33.5t46 55t28 75h78q-10 -59 -35.5 -105t-63 -77.5t-85 -48.5t-101.5 -17q-63 0 -117.5 22
t-94.5 63.5t-63 101t-23 134.5v80q0 75 23 134.5t63 101t94.5 63.5t117.5 22q54 0 101.5 -17t85 -48.5t63 -78t35.5 -104.5h-78zM515 915l-109 -130h-78l-109 130h71l77 -85l78 85h70z" />
    <glyph glyph-name="ccaron" unicode="&#x10d;" horiz-adv-x="541" 
d="M60 0zM282 -10q-48 0 -88.5 17t-70.5 47.5t-46.5 74t-16.5 96.5v76q0 53 16.5 96.5t46.5 74t70.5 47.5t88.5 17q82 0 139.5 -47t74.5 -130h-77q-14 51 -50 80t-87 29q-33 0 -60 -12.5t-46 -35t-29.5 -54t-10.5 -70.5v-65q0 -78 40 -125.5t106 -47.5q51 0 87 29t50 80h77
q-9 -41 -28 -73.5t-47 -55.5t-63.5 -35.5t-75.5 -12.5zM431 742l-109 -130h-78l-109 130h71l77 -85l78 85h70z" />
    <glyph glyph-name="Dcaron" unicode="&#x10e;" horiz-adv-x="715" 
d="M92 0zM648 310q0 -71 -21 -128t-60 -97.5t-96 -62.5t-129 -22h-250v700h250q72 0 128.5 -22t96 -62.5t60.5 -98t21 -128.5v-79zM172 629v-558h165q111 0 171 63t60 178v75q0 114 -60 178t-171 64h-165zM506 915l-109 -130h-78l-109 130h71l77 -85l78 85h70z" />
    <glyph glyph-name="dcaron" unicode="&#x10f;" horiz-adv-x="701" 
d="M60 0zM633 734h79l-38 -205h-60zM441 0v94q-26 -49 -70 -76.5t-102 -27.5q-45 0 -83.5 17t-66 47.5t-43.5 73.5t-16 96v79q0 52 15.5 95t43.5 74t66.5 47.5t83.5 16.5q57 0 101.5 -26.5t70.5 -74.5v298h77v-733h-77zM441 296q0 39 -11 70.5t-31 54t-48 35t-63 12.5
t-63 -12.5t-47.5 -35t-30.5 -54t-11 -70.5v-65q0 -78 41.5 -125.5t110.5 -47.5q70 0 111.5 47.5t41.5 125.5v65z" />
    <glyph glyph-name="Dcroat" unicode="&#x110;" horiz-adv-x="719" 
d="M3 385h96v315h250q72 0 128.5 -22t96 -62.5t60.5 -98t21 -128.5v-79q0 -71 -21 -128t-60 -97.5t-96 -62.5t-129 -22h-250v316h-96v69zM179 629v-244h151v-69h-151v-245h165q111 0 171 63t60 178v75q0 114 -60 178t-171 64h-165z" />
    <glyph glyph-name="dcroat" unicode="&#x111;" horiz-adv-x="604" 
d="M441 0v94q-26 -49 -70 -76.5t-102 -27.5q-45 0 -83.5 17t-66 47.5t-43.5 73.5t-16 96v79q0 52 15.5 95t43.5 74t66.5 47.5t83.5 16.5q57 0 101.5 -26.5t70.5 -74.5v163h-149v59h149v76h77v-76h70v-59h-70v-598h-77zM441 296q0 39 -11 70.5t-31 54t-48 35t-63 12.5
t-63 -12.5t-47.5 -35t-30.5 -54t-11 -70.5v-65q0 -78 41.5 -125.5t110.5 -47.5q70 0 111.5 47.5t41.5 125.5v65z" />
    <glyph glyph-name="Emacron" unicode="&#x112;" horiz-adv-x="593" 
d="M92 0zM92 700h443v-71h-363v-243h353v-70h-353v-245h363v-71h-443v700zM446 813h-248v55h248v-55z" />
    <glyph glyph-name="emacron" unicode="&#x113;" horiz-adv-x="547" 
d="M60 0zM60 301q0 52 16.5 95t46.5 74t71 48.5t89 17.5q45 0 83.5 -17t66 -48t43.5 -73t16 -93v-65h-356v-13q0 -38 11 -69t31.5 -53.5t48.5 -34.5t61 -12q42 0 76.5 17t63.5 55l54 -45q-38 -48 -85.5 -71t-110.5 -23q-49 0 -90.5 17.5t-71.5 48.5t-47 74t-17 95v75z
M281 469q-32 0 -58.5 -12t-45.5 -34t-30 -52.5t-11 -67.5h281v4q0 36 -10.5 66t-28.5 51t-43 33t-54 12zM407 640h-248v55h248v-55z" />
    <glyph glyph-name="Ebreve" unicode="&#x114;" horiz-adv-x="593" 
d="M92 0zM92 700h443v-71h-363v-243h353v-70h-353v-245h363v-71h-443v700zM322 841q13 0 26 3t25 11.5t21.5 23t15.5 37.5l55 -17q-14 -54 -53.5 -83.5t-89.5 -29.5t-89.5 29t-53.5 84l55 17q13 -46 37.5 -60.5t50.5 -14.5z" />
    <glyph glyph-name="ebreve" unicode="&#x115;" horiz-adv-x="547" 
d="M60 0zM60 301q0 52 16.5 95t46.5 74t71 48.5t89 17.5q45 0 83.5 -17t66 -48t43.5 -73t16 -93v-65h-356v-13q0 -38 11 -69t31.5 -53.5t48.5 -34.5t61 -12q42 0 76.5 17t63.5 55l54 -45q-38 -48 -85.5 -71t-110.5 -23q-49 0 -90.5 17.5t-71.5 48.5t-47 74t-17 95v75z
M281 469q-32 0 -58.5 -12t-45.5 -34t-30 -52.5t-11 -67.5h281v4q0 36 -10.5 66t-28.5 51t-43 33t-54 12zM283 668q13 0 26 3t25 11.5t21.5 23t15.5 37.5l55 -17q-14 -54 -53.5 -83.5t-89.5 -29.5t-89.5 29t-53.5 84l55 17q13 -46 37.5 -60.5t50.5 -14.5z" />
    <glyph glyph-name="Edotaccent" unicode="&#x116;" horiz-adv-x="593" 
d="M92 0zM92 700h443v-71h-363v-243h353v-70h-353v-245h363v-71h-443v700zM322 798q-20 0 -35 15t-15 36t15 35.5t35 14.5t34.5 -14.5t14.5 -35.5t-14.5 -36t-34.5 -15z" />
    <glyph glyph-name="edotaccent" unicode="&#x117;" horiz-adv-x="547" 
d="M60 0zM60 301q0 52 16.5 95t46.5 74t71 48.5t89 17.5q45 0 83.5 -17t66 -48t43.5 -73t16 -93v-65h-356v-13q0 -38 11 -69t31.5 -53.5t48.5 -34.5t61 -12q42 0 76.5 17t63.5 55l54 -45q-38 -48 -85.5 -71t-110.5 -23q-49 0 -90.5 17.5t-71.5 48.5t-47 74t-17 95v75z
M281 469q-32 0 -58.5 -12t-45.5 -34t-30 -52.5t-11 -67.5h281v4q0 36 -10.5 66t-28.5 51t-43 33t-54 12zM283 625q-20 0 -35 15t-15 36t15 35.5t35 14.5t34.5 -14.5t14.5 -35.5t-14.5 -36t-34.5 -15z" />
    <glyph glyph-name="Eogonek" unicode="&#x118;" horiz-adv-x="593" 
d="M92 700h443v-71h-363v-243h353v-70h-353v-245h363v-71q-25 -21 -40.5 -38.5t-24.5 -32.5t-12 -28t-3 -25q0 -49 50 -49q9 0 18.5 1t17.5 4l8 -45q-24 -8 -52 -8q-48 0 -72 24t-24 61q0 31 15.5 63t61.5 73h-386v700z" />
    <glyph glyph-name="eogonek" unicode="&#x119;" horiz-adv-x="547" 
d="M60 301q0 52 16.5 95t46.5 74t71 48.5t89 17.5q45 0 83.5 -17t66 -48t43.5 -73t16 -93v-65h-356v-13q0 -38 11 -69t31.5 -53.5t48.5 -34.5t61 -12q42 0 76.5 17t63.5 55l54 -45q-52 -66 -125 -85q-25 -21 -40.5 -38.5t-24.5 -32.5t-12 -28t-3 -25q0 -49 50 -49
q9 0 18.5 1t17.5 4l8 -45q-24 -8 -52 -8q-48 0 -72 24t-24 61q0 30 13.5 59.5t53.5 67.5h-4q-49 0 -90.5 17.5t-71.5 48.5t-47 74t-17 95v75zM281 469q-32 0 -58.5 -12t-45.5 -34t-30 -52.5t-11 -67.5h281v4q0 36 -10.5 66t-28.5 51t-43 33t-54 12z" />
    <glyph glyph-name="Ecaron" unicode="&#x11a;" horiz-adv-x="593" 
d="M92 0zM92 700h443v-71h-363v-243h353v-70h-353v-245h363v-71h-443v700zM471 915l-109 -130h-78l-109 130h71l77 -85l78 85h70z" />
    <glyph glyph-name="ecaron" unicode="&#x11b;" horiz-adv-x="547" 
d="M60 0zM60 301q0 52 16.5 95t46.5 74t71 48.5t89 17.5q45 0 83.5 -17t66 -48t43.5 -73t16 -93v-65h-356v-13q0 -38 11 -69t31.5 -53.5t48.5 -34.5t61 -12q42 0 76.5 17t63.5 55l54 -45q-38 -48 -85.5 -71t-110.5 -23q-49 0 -90.5 17.5t-71.5 48.5t-47 74t-17 95v75z
M281 469q-32 0 -58.5 -12t-45.5 -34t-30 -52.5t-11 -67.5h281v4q0 36 -10.5 66t-28.5 51t-43 33t-54 12zM432 742l-109 -130h-78l-109 130h71l77 -85l78 85h70z" />
    <glyph glyph-name="Gcircumflex" unicode="&#x11c;" horiz-adv-x="734" 
d="M64 0zM64 390q0 72 21.5 131t61 101t95 65.5t122.5 23.5q100 0 173.5 -49.5t107.5 -137.5l-71 -30q-26 69 -82.5 106.5t-125.5 37.5q-50 0 -91 -17.5t-70 -50t-45 -79t-16 -103.5v-76q0 -58 16 -104.5t45.5 -79t70 -50t90.5 -17.5q43 0 81.5 14t66.5 39.5t44.5 62
t16.5 82.5v33h-208v70h283v-362h-75v119q-32 -61 -91 -95t-127 -34q-65 0 -119 23t-92.5 65.5t-60 102t-21.5 131.5v78zM221 785l109 130h78l109 -130h-71l-77 84l-77 -84h-71z" />
    <glyph glyph-name="gcircumflex" unicode="&#x11d;" horiz-adv-x="606" 
d="M60 0zM196 -148h122q120 0 120 120v121q-26 -48 -69.5 -74t-100.5 -26q-45 0 -83 17t-66 47.5t-43.5 73.5t-15.5 95v76q0 52 15.5 95.5t43 74t66 47.5t83.5 17q57 0 100.5 -26.5t69.5 -73.5v91h77v-563q0 -84 -47.5 -131.5t-132.5 -47.5h-139v67zM438 296
q0 39 -10.5 70.5t-30 54t-47.5 35t-62 12.5t-62 -12.5t-48 -35t-31 -54t-11 -70.5v-65q0 -79 41.5 -124.5t110.5 -45.5t109.5 45.5t40.5 124.5v65zM145 612l109 130h78l109 -130h-71l-77 84l-77 -84h-71z" />
    <glyph glyph-name="Gbreve" unicode="&#x11e;" horiz-adv-x="734" 
d="M64 0zM64 390q0 72 21.5 131t61 101t95 65.5t122.5 23.5q100 0 173.5 -49.5t107.5 -137.5l-71 -30q-26 69 -82.5 106.5t-125.5 37.5q-50 0 -91 -17.5t-70 -50t-45 -79t-16 -103.5v-76q0 -58 16 -104.5t45.5 -79t70 -50t90.5 -17.5q43 0 81.5 14t66.5 39.5t44.5 62
t16.5 82.5v33h-208v70h283v-362h-75v119q-32 -61 -91 -95t-127 -34q-65 0 -119 23t-92.5 65.5t-60 102t-21.5 131.5v78zM368 841q13 0 26 3t25 11.5t21.5 23t15.5 37.5l55 -17q-14 -54 -53.5 -83.5t-89.5 -29.5t-89.5 29t-53.5 84l55 17q13 -46 37.5 -60.5t50.5 -14.5z" />
    <glyph glyph-name="gbreve" unicode="&#x11f;" horiz-adv-x="606" 
d="M60 0zM196 -148h122q120 0 120 120v121q-26 -48 -69.5 -74t-100.5 -26q-45 0 -83 17t-66 47.5t-43.5 73.5t-15.5 95v76q0 52 15.5 95.5t43 74t66 47.5t83.5 17q57 0 100.5 -26.5t69.5 -73.5v91h77v-563q0 -84 -47.5 -131.5t-132.5 -47.5h-139v67zM438 296
q0 39 -10.5 70.5t-30 54t-47.5 35t-62 12.5t-62 -12.5t-48 -35t-31 -54t-11 -70.5v-65q0 -79 41.5 -124.5t110.5 -45.5t109.5 45.5t40.5 124.5v65zM292 668q13 0 26 3t25 11.5t21.5 23t15.5 37.5l55 -17q-14 -54 -53.5 -83.5t-89.5 -29.5t-89.5 29t-53.5 84l55 17
q13 -46 37.5 -60.5t50.5 -14.5z" />
    <glyph glyph-name="Gdotaccent" unicode="&#x120;" horiz-adv-x="734" 
d="M64 0zM64 390q0 72 21.5 131t61 101t95 65.5t122.5 23.5q100 0 173.5 -49.5t107.5 -137.5l-71 -30q-26 69 -82.5 106.5t-125.5 37.5q-50 0 -91 -17.5t-70 -50t-45 -79t-16 -103.5v-76q0 -58 16 -104.5t45.5 -79t70 -50t90.5 -17.5q43 0 81.5 14t66.5 39.5t44.5 62
t16.5 82.5v33h-208v70h283v-362h-75v119q-32 -61 -91 -95t-127 -34q-65 0 -119 23t-92.5 65.5t-60 102t-21.5 131.5v78zM368 798q-20 0 -35 15t-15 36t15 35.5t35 14.5t34.5 -14.5t14.5 -35.5t-14.5 -36t-34.5 -15z" />
    <glyph glyph-name="gdotaccent" unicode="&#x121;" horiz-adv-x="606" 
d="M60 0zM196 -148h122q120 0 120 120v121q-26 -48 -69.5 -74t-100.5 -26q-45 0 -83 17t-66 47.5t-43.5 73.5t-15.5 95v76q0 52 15.5 95.5t43 74t66 47.5t83.5 17q57 0 100.5 -26.5t69.5 -73.5v91h77v-563q0 -84 -47.5 -131.5t-132.5 -47.5h-139v67zM438 296
q0 39 -10.5 70.5t-30 54t-47.5 35t-62 12.5t-62 -12.5t-48 -35t-31 -54t-11 -70.5v-65q0 -79 41.5 -124.5t110.5 -45.5t109.5 45.5t40.5 124.5v65zM292 625q-20 0 -35 15t-15 36t15 35.5t35 14.5t34.5 -14.5t14.5 -35.5t-14.5 -36t-34.5 -15z" />
    <glyph glyph-name="uni0122" unicode="&#x122;" horiz-adv-x="734" 
d="M64 0zM64 390q0 72 21.5 131t61 101t95 65.5t122.5 23.5q100 0 173.5 -49.5t107.5 -137.5l-71 -30q-26 69 -82.5 106.5t-125.5 37.5q-50 0 -91 -17.5t-70 -50t-45 -79t-16 -103.5v-76q0 -58 16 -104.5t45.5 -79t70 -50t90.5 -17.5q43 0 81.5 14t66.5 39.5t44.5 62
t16.5 82.5v33h-208v70h283v-362h-75v119q-32 -61 -91 -95t-127 -34q-65 0 -119 23t-92.5 65.5t-60 102t-21.5 131.5v78zM319 -222q23 3 37.5 18t14.5 30q0 7 -7 12t-16 10.5t-16 13.5t-7 23q0 17 12.5 29.5t29.5 12.5q23 0 37 -18.5t14 -50.5q0 -42 -26 -75.5t-73 -38.5v34
v0z" />
    <glyph glyph-name="uni0123" unicode="&#x123;" horiz-adv-x="606" 
d="M60 0zM341.003 774.986q-22.998 -3 -37.4971 -17.999q-14.5 -14.999 -14.5 -29.998q0 -6.99902 7 -11.999t15.999 -10.5q8.99902 -5.49902 15.999 -13.499q7 -7.99902 7 -22.998q0 -16.999 -12.5 -29.498q-12.499 -12.5 -29.498 -12.5q-22.998 0 -36.998 18.499
q-13.999 18.499 -13.999 50.4971q0 41.9971 25.999 75.4951q25.998 33.498 72.9951 38.498v-33.998v0zM196 -148h122q120 0 120 120v121q-26 -48 -69.5 -74t-100.5 -26q-45 0 -83 17t-66 47.5t-43.5 73.5t-15.5 95v76q0 52 15.5 95.5t43 74t66 47.5t83.5 17
q57 0 100.5 -26.5t69.5 -73.5v91h77v-563q0 -84 -47.5 -131.5t-132.5 -47.5h-139v67zM438 296q0 39 -10.5 70.5t-30 54t-47.5 35t-62 12.5t-62 -12.5t-48 -35t-31 -54t-11 -70.5v-65q0 -79 41.5 -124.5t110.5 -45.5t109.5 45.5t40.5 124.5v65z" />
    <glyph glyph-name="Hcircumflex" unicode="&#x124;" horiz-adv-x="715" 
d="M92 0zM92 0v700h80v-314h371v314h80v-700h-80v315h-371v-315h-80zM211 785l109 130h78l109 -130h-71l-77 84l-77 -84h-71z" />
    <glyph glyph-name="hcircumflex" unicode="&#x125;" 
d="M0 0zM517 0h-77v329q0 30 -9.5 55t-26.5 43.5t-41.5 29t-54.5 10.5q-32 0 -58 -11t-45 -30.5t-29.5 -45.5t-10.5 -57v-323h-77v733h77v-305q21 51 65.5 80t101.5 29q42 0 76 -15t58 -41t37.5 -61.5t13.5 -75.5v-344zM-20 819l109 130h78l109 -130h-71l-77 84l-77 -84h-71
z" />
    <glyph glyph-name="Hbar" unicode="&#x126;" horiz-adv-x="728" 
d="M99 0v507h-89v66h89v127h80v-127h371v127h80v-127h88v-66h-88v-507h-80v315h-371v-315h-80zM550 386v121h-371v-121h371z" />
    <glyph glyph-name="hbar" unicode="&#x127;" horiz-adv-x="611" 
d="M523 0h-77v329q0 30 -9.5 55t-26.5 43.5t-41.5 29t-54.5 10.5q-32 0 -58 -11t-45 -30.5t-29.5 -45.5t-10.5 -57v-323h-77v598h-71v59h71v76h77v-76h148v-59h-148v-170q21 51 65.5 80t101.5 29q42 0 76 -15t58 -41t37.5 -61.5t13.5 -75.5v-344z" />
    <glyph glyph-name="Itilde" unicode="&#x128;" horiz-adv-x="265" 
d="M0 0zM92 0v700h80v-700h-80zM71 906q16 0 32.5 -9.5t32.5 -21t29.5 -21t23.5 -9.5q14 0 23.5 13t20.5 50l51 -12q-27 -105 -91 -105q-16 0 -33 9.5t-32.5 20.5t-29 20.5t-23.5 9.5q-14 0 -23.5 -13t-21.5 -50l-51 12q29 106 92 106z" />
    <glyph glyph-name="itilde" unicode="&#x129;" horiz-adv-x="253" 
d="M0 0zM165 0h-77v527h77v-527zM65 733q16 0 32.5 -9.5t32.5 -21t29.5 -21t23.5 -9.5q14 0 23.5 13t20.5 50l51 -12q-27 -105 -91 -105q-16 0 -33 9.5t-32.5 20.5t-29 20.5t-23.5 9.5q-14 0 -23.5 -13t-21.5 -50l-51 12q29 106 92 106z" />
    <glyph glyph-name="Imacron" unicode="&#x12a;" horiz-adv-x="265" 
d="M8 0zM92 0v700h80v-700h-80zM256 813h-248v55h248v-55z" />
    <glyph glyph-name="imacron" unicode="&#x12b;" horiz-adv-x="253" 
d="M2 0zM165 0h-77v527h77v-527zM250 640h-248v55h248v-55z" />
    <glyph glyph-name="Ibreve" unicode="&#x12c;" horiz-adv-x="265" 
d="M0 0zM92 0v700h80v-700h-80zM132 841q13 0 26 3t25 11.5t21.5 23t15.5 37.5l55 -17q-14 -54 -53.5 -83.5t-89.5 -29.5t-89.5 29t-53.5 84l55 17q13 -46 37.5 -60.5t50.5 -14.5z" />
    <glyph glyph-name="ibreve" unicode="&#x12d;" horiz-adv-x="253" 
d="M0 0zM165 0h-77v527h77v-527zM126 667q13 0 26 3t25 11.5t21.5 23t15.5 37.5l55 -17q-14 -54 -53.5 -83.5t-89.5 -29.5t-89.5 29t-53.5 84l55 17q13 -46 37.5 -60.5t50.5 -14.5z" />
    <glyph glyph-name="Iogonek" unicode="&#x12e;" horiz-adv-x="265" 
d="M172 0q-25 -21 -40.5 -38.5t-24.5 -32.5t-12 -28t-3 -25q0 -49 50 -49q9 0 18.5 1t17.5 4l8 -45q-24 -8 -52 -8q-48 0 -72 24t-24 61q0 31 15.5 63t61.5 73h-23v700h80v-700v0z" />
    <glyph glyph-name="iogonek" unicode="&#x12f;" horiz-adv-x="253" 
d="M127 630q-21 0 -36.5 15.5t-15.5 35.5q0 22 15.5 37t36.5 15q20 0 35 -15t15 -37q0 -20 -15 -35.5t-35 -15.5zM165 0q-25 -21 -40.5 -38.5t-24.5 -32.5t-12 -28t-3 -25q0 -49 50 -49q9 0 18.5 1t17.5 4l8 -45q-24 -8 -52 -8q-48 0 -72 24t-24 61q0 31 15.5 63t61.5 73
h-20v527h77v-527z" />
    <glyph glyph-name="Idotaccent" unicode="&#x130;" horiz-adv-x="265" 
d="M82 0zM92 0v700h80v-700h-80zM132 798q-20 0 -35 15t-15 36t15 35.5t35 14.5t34.5 -14.5t14.5 -35.5t-14.5 -36t-34.5 -15z" />
    <glyph glyph-name="dotlessi" unicode="&#x131;" horiz-adv-x="253" 
d="M165 0h-77v527h77v-527z" />
    <glyph glyph-name="IJ" unicode="&#x132;" horiz-adv-x="767" 
d="M92 0zM92 0v700h80v-700h-80zM331 106q24 -21 56 -32.5t67 -11.5q32 0 59.5 11t47.5 32t31.5 52t11.5 72v471h80v-476q0 -56 -17.5 -99.5t-48 -73.5t-72.5 -46t-90 -16q-51 0 -94.5 15t-77.5 44z" />
    <glyph glyph-name="ij" unicode="&#x133;" horiz-adv-x="505" 
d="M75 0zM127 630q-21 0 -36.5 15.5t-15.5 35.5q0 22 15.5 37t36.5 15q20 0 35 -15t15 -37q0 -20 -15 -35.5t-35 -15.5zM165 0h-77v527h77v-527zM380 630q-21 0 -36.5 15.5t-15.5 35.5q0 22 15.5 37t36.5 15q20 0 35 -15t15 -37q0 -20 -15 -35.5t-35 -15.5zM263 -215v67h34
q44 0 44 40v635h77v-646q0 -42 -27.5 -69t-76.5 -27h-51z" />
    <glyph glyph-name="Jcircumflex" unicode="&#x134;" horiz-adv-x="502" 
d="M19 0zM66 106q24 -21 56 -32.5t67 -11.5q32 0 59.5 11t47.5 32t31.5 52t11.5 72v471h80v-476q0 -56 -17.5 -99.5t-48 -73.5t-72.5 -46t-90 -16q-51 0 -94.5 15t-77.5 44zM233 785l109 130h78l109 -130h-71l-77 84l-77 -84h-71z" />
    <glyph glyph-name="jcircumflex" unicode="&#x135;" horiz-adv-x="253" 
d="M0 0zM10 -215v67h34q44 0 44 40v635h77v-646q0 -42 -27.5 -69t-76.5 -27h-51zM-21 612l109 130h78l109 -130h-71l-77 84l-77 -84h-71z" />
    <glyph glyph-name="uni0136" unicode="&#x136;" horiz-adv-x="609" 
d="M92 0zM92 0v700h80v-318l340 318h106l-374 -344l380 -356h-113l-339 323v-323h-80zM272 -222q23 3 37.5 18t14.5 30q0 7 -7 12t-16 10.5t-16 13.5t-7 23q0 17 12.5 29.5t29.5 12.5q23 0 37 -18.5t14 -50.5q0 -42 -26 -75.5t-73 -38.5v34v0z" />
    <glyph glyph-name="uni0137" unicode="&#x137;" horiz-adv-x="505" 
d="M88 0zM238 274l281 -274h-105l-249 248v-248h-77v733h77v-440l242 234h99zM233 -222q23 3 37.5 18t14.5 30q0 7 -7 12t-16 10.5t-16 13.5t-7 23q0 17 12.5 29.5t29.5 12.5q23 0 37 -18.5t14 -50.5q0 -42 -26 -75.5t-73 -38.5v34v0z" />
    <glyph glyph-name="kgreenlandic" unicode="&#x138;" horiz-adv-x="506" 
d="M165 293l242 234h99l-268 -253l281 -274h-105l-249 248v-248h-77v527h77v-234z" />
    <glyph glyph-name="Lacute" unicode="&#x139;" horiz-adv-x="571" 
d="M71 0zM535 0h-443v700h80v-629h363v-71zM277 915l-129 -130h-77l114 130h92z" />
    <glyph glyph-name="lacute" unicode="&#x13a;" horiz-adv-x="253" 
d="M66 0zM88 0v733h77v-733h-77zM272 947l-129 -130h-77l114 130h92z" />
    <glyph glyph-name="uni013B" unicode="&#x13b;" horiz-adv-x="571" 
d="M92 0zM535 0h-443v700h80v-629h363v-71zM270 -222q23 3 37.5 18t14.5 30q0 7 -7 12t-16 10.5t-16 13.5t-7 23q0 17 12.5 29.5t29.5 12.5q23 0 37 -18.5t14 -50.5q0 -42 -26 -75.5t-73 -38.5v34v0z" />
    <glyph glyph-name="uni013C" unicode="&#x13c;" horiz-adv-x="253" 
d="M77 0zM88 0v733h77v-733h-77zM77 -222q23 3 37.5 18t14.5 30q0 7 -7 12t-16 10.5t-16 13.5t-7 23q0 17 12.5 29.5t29.5 12.5q23 0 37 -18.5t14 -50.5q0 -42 -26 -75.5t-73 -38.5v34v0z" />
    <glyph glyph-name="Lcaron" unicode="&#x13d;" horiz-adv-x="571" 
d="M92 0zM535 0h-443v700h80v-629h363v-71zM383 700h79l-38 -205h-60z" />
    <glyph glyph-name="lcaron" unicode="&#x13e;" horiz-adv-x="347" 
d="M88 0zM279 733h79l-38 -205h-60zM88 0v733h77v-733h-77z" />
    <glyph glyph-name="Ldot" unicode="&#x13f;" horiz-adv-x="571" 
d="M92 0zM535 0h-443v700h80v-629h363v-71zM409 311q-20 0 -35 15t-15 36t15 35.5t35 14.5t34.5 -14.5t14.5 -35.5t-14.5 -36t-34.5 -15z" />
    <glyph glyph-name="ldot" unicode="&#x140;" horiz-adv-x="334" 
d="M88 0zM88 0v733h77v-733h-77zM289 285q-20 0 -35 15t-15 36t15 35.5t35 14.5t34.5 -14.5t14.5 -35.5t-14.5 -36t-34.5 -15z" />
    <glyph glyph-name="Lslash" unicode="&#x141;" horiz-adv-x="585" 
d="M23 253l76 63v384h80v-318l165 136v-74l-165 -136v-237h363v-71h-443v242l-76 -63v74z" />
    <glyph glyph-name="lslash" unicode="&#x142;" horiz-adv-x="269" 
d="M95 0v297l-83 -73v73l83 73v363h77v-296l83 73v-72l-83 -73v-365h-77z" />
    <glyph glyph-name="Nacute" unicode="&#x143;" horiz-adv-x="742" 
d="M92 0zM92 0v700h89l393 -586l-1 586h76v-700h-87l-395 587l1 -587h-76zM516 915l-129 -130h-77l114 130h92z" />
    <glyph glyph-name="nacute" unicode="&#x144;" 
d="M88 0zM517 0h-77v329q0 30 -9.5 55t-26.5 43.5t-41.5 29t-54.5 10.5q-32 0 -58 -11t-45 -30.5t-29.5 -45.5t-10.5 -57v-323h-77v527h77v-99q21 51 65.5 80t101.5 29q42 0 76 -15t58 -41t37.5 -61.5t13.5 -75.5v-344zM448 741l-129 -130h-77l114 130h92z" />
    <glyph glyph-name="uni0145" unicode="&#x145;" horiz-adv-x="742" 
d="M92 0zM92 0v700h89l393 -586l-1 586h76v-700h-87l-395 587l1 -587h-76zM322 -222q23 3 37.5 18t14.5 30q0 7 -7 12t-16 10.5t-16 13.5t-7 23q0 17 12.5 29.5t29.5 12.5q23 0 37 -18.5t14 -50.5q0 -42 -26 -75.5t-73 -38.5v34v0z" />
    <glyph glyph-name="uni0146" unicode="&#x146;" 
d="M88 0zM517 0h-77v329q0 30 -9.5 55t-26.5 43.5t-41.5 29t-54.5 10.5q-32 0 -58 -11t-45 -30.5t-29.5 -45.5t-10.5 -57v-323h-77v527h77v-99q21 51 65.5 80t101.5 29q42 0 76 -15t58 -41t37.5 -61.5t13.5 -75.5v-344zM254 -222q23 3 37.5 18t14.5 30q0 7 -7 12t-16 10.5
t-16 13.5t-7 23q0 17 12.5 29.5t29.5 12.5q23 0 37 -18.5t14 -50.5q0 -42 -26 -75.5t-73 -38.5v34v0z" />
    <glyph glyph-name="Ncaron" unicode="&#x147;" horiz-adv-x="742" 
d="M92 0zM92 0v700h89l393 -586l-1 586h76v-700h-87l-395 587l1 -587h-76zM520 915l-109 -130h-78l-109 130h71l77 -85l78 85h70z" />
    <glyph glyph-name="ncaron" unicode="&#x148;" 
d="M88 0zM517 0h-77v329q0 30 -9.5 55t-26.5 43.5t-41.5 29t-54.5 10.5q-32 0 -58 -11t-45 -30.5t-29.5 -45.5t-10.5 -57v-323h-77v527h77v-99q21 51 65.5 80t101.5 29q42 0 76 -15t58 -41t37.5 -61.5t13.5 -75.5v-344zM452 741l-109 -130h-78l-109 130h71l77 -85l78 85h70z
" />
    <glyph glyph-name="Eng" unicode="&#x14a;" horiz-adv-x="744" 
d="M575 2l-407 581v-583h-76v700h86l397 -567l1 567h75v-821q0 -42 -26.5 -68t-74.5 -26h-50v67h32q43 0 43 39v111z" />
    <glyph glyph-name="eng" unicode="&#x14b;" 
d="M363 -215v67h34q43 0 43 40v437q0 30 -9.5 55t-26.5 43.5t-41.5 29t-54.5 10.5q-32 0 -58 -11t-45 -30.5t-29.5 -45.5t-10.5 -57v-323h-77v527h77v-99q21 51 65.5 80t101.5 29q42 0 76 -15t58 -41t37.5 -61.5t13.5 -75.5v-463q0 -42 -27 -69t-76 -27h-51z" />
    <glyph glyph-name="Omacron" unicode="&#x14c;" horiz-adv-x="740" 
d="M64 0zM64 390q0 73 22.5 132t63 101t96.5 65t124 23t124.5 -23t97 -65t62.5 -101t22 -132v-80q0 -73 -22 -132t-62.5 -101t-97 -65t-124.5 -23t-124 23t-96.5 65t-63 101t-22.5 132v80zM144 315q0 -60 16.5 -107.5t46.5 -79.5t71.5 -49t91.5 -17q51 0 92.5 17t71 49
t46 79.5t16.5 107.5v70q0 60 -16.5 107.5t-46 79.5t-71 49t-92.5 17t-92.5 -17t-71 -49t-46 -79.5t-16.5 -107.5v-70zM494 813h-248v55h248v-55z" />
    <glyph glyph-name="omacron" unicode="&#x14d;" horiz-adv-x="574" 
d="M60 0zM514 225q0 -53 -17 -96.5t-47.5 -74.5t-72 -47.5t-90.5 -16.5t-90.5 17t-72 47.5t-47.5 74t-17 96.5v76q0 53 17 96.5t47 74t71.5 47.5t91.5 17q49 0 90.5 -17t72 -47.5t47.5 -74t17 -96.5v-76zM438 296q0 78 -41 125t-110 47q-35 0 -62.5 -12.5t-47.5 -35
t-30.5 -54t-10.5 -70.5v-65q0 -78 41 -125.5t110 -47.5q34 0 62 12.5t47.5 35t30.5 54.5t11 71v65zM411 640h-248v55h248v-55z" />
    <glyph glyph-name="Obreve" unicode="&#x14e;" horiz-adv-x="740" 
d="M64 0zM64 390q0 73 22.5 132t63 101t96.5 65t124 23t124.5 -23t97 -65t62.5 -101t22 -132v-80q0 -73 -22 -132t-62.5 -101t-97 -65t-124.5 -23t-124 23t-96.5 65t-63 101t-22.5 132v80zM144 315q0 -60 16.5 -107.5t46.5 -79.5t71.5 -49t91.5 -17q51 0 92.5 17t71 49
t46 79.5t16.5 107.5v70q0 60 -16.5 107.5t-46 79.5t-71 49t-92.5 17t-92.5 -17t-71 -49t-46 -79.5t-16.5 -107.5v-70zM370 841q13 0 26 3t25 11.5t21.5 23t15.5 37.5l55 -17q-14 -54 -53.5 -83.5t-89.5 -29.5t-89.5 29t-53.5 84l55 17q13 -46 37.5 -60.5t50.5 -14.5z" />
    <glyph glyph-name="obreve" unicode="&#x14f;" horiz-adv-x="574" 
d="M60 0zM514 225q0 -53 -17 -96.5t-47.5 -74.5t-72 -47.5t-90.5 -16.5t-90.5 17t-72 47.5t-47.5 74t-17 96.5v76q0 53 17 96.5t47 74t71.5 47.5t91.5 17q49 0 90.5 -17t72 -47.5t47.5 -74t17 -96.5v-76zM438 296q0 78 -41 125t-110 47q-35 0 -62.5 -12.5t-47.5 -35
t-30.5 -54t-10.5 -70.5v-65q0 -78 41 -125.5t110 -47.5q34 0 62 12.5t47.5 35t30.5 54.5t11 71v65zM287 668q13 0 26 3t25 11.5t21.5 23t15.5 37.5l55 -17q-14 -54 -53.5 -83.5t-89.5 -29.5t-89.5 29t-53.5 84l55 17q13 -46 37.5 -60.5t50.5 -14.5z" />
    <glyph glyph-name="Ohungarumlaut" unicode="&#x150;" horiz-adv-x="740" 
d="M64 0zM64 390q0 73 22.5 132t63 101t96.5 65t124 23t124.5 -23t97 -65t62.5 -101t22 -132v-80q0 -73 -22 -132t-62.5 -101t-97 -65t-124.5 -23t-124 23t-96.5 65t-63 101t-22.5 132v80zM144 315q0 -60 16.5 -107.5t46.5 -79.5t71.5 -49t91.5 -17q51 0 92.5 17t71 49
t46 79.5t16.5 107.5v70q0 60 -16.5 107.5t-46 79.5t-71 49t-92.5 17t-92.5 -17t-71 -49t-46 -79.5t-16.5 -107.5v-70zM431 915l-126 -128h-71l113 128h84zM597 915l-125 -128h-72l113 128h84z" />
    <glyph glyph-name="ohungarumlaut" unicode="&#x151;" horiz-adv-x="574" 
d="M60 0zM514 225q0 -53 -17 -96.5t-47.5 -74.5t-72 -47.5t-90.5 -16.5t-90.5 17t-72 47.5t-47.5 74t-17 96.5v76q0 53 17 96.5t47 74t71.5 47.5t91.5 17q49 0 90.5 -17t72 -47.5t47.5 -74t17 -96.5v-76zM438 296q0 78 -41 125t-110 47q-35 0 -62.5 -12.5t-47.5 -35
t-30.5 -54t-10.5 -70.5v-65q0 -78 41 -125.5t110 -47.5q34 0 62 12.5t47.5 35t30.5 54.5t11 71v65zM348 742l-126 -128h-71l113 128h84zM514 742l-125 -128h-72l113 128h84z" />
    <glyph glyph-name="OE" unicode="&#x152;" horiz-adv-x="1019" 
d="M64 390q0 71 21 128t60 97.5t96 62.5t129 22h591v-71h-360v-243h350v-70h-350v-245h360v-71h-591q-72 0 -128.5 22t-96 62.5t-60.5 98t-21 128.5v79zM521 71v558h-146q-111 0 -171 -63t-60 -178v-75q0 -114 60 -178t171 -64h146z" />
    <glyph glyph-name="oe" unicode="&#x153;" horiz-adv-x="930" 
d="M668 -9q-63 0 -112 29.5t-77 81.5q-28 -53 -78 -82.5t-113 -29.5q-49 0 -90.5 17t-71.5 47.5t-47 74t-17 96.5v76q0 53 17 96.5t47 74t71.5 47.5t90.5 17q63 0 112.5 -29t77.5 -82q28 52 76 81.5t111 29.5q45 0 83.5 -17t66.5 -48t43.5 -73t15.5 -93v-65h-356v-13
q0 -38 11.5 -69t31.5 -53.5t48 -34.5t61 -12q42 0 77 17t64 55l54 -45q-75 -94 -197 -94zM663 469q-32 0 -58.5 -12t-45.5 -34t-30 -52.5t-11 -67.5h282v4q0 36 -10.5 66t-28.5 51t-43 33t-55 12zM441 296q0 39 -11 70.5t-30.5 54t-48 35t-62.5 12.5q-69 0 -109.5 -47
t-40.5 -125v-65q0 -39 10.5 -71t30 -54.5t47.5 -35t62 -12.5q69 0 110.5 47.5t41.5 125.5v65z" />
    <glyph glyph-name="Racute" unicode="&#x154;" horiz-adv-x="620" 
d="M92 0zM92 0v700h263q45 0 83 -16t65.5 -43t43.5 -64t16 -79q0 -35 -11 -65.5t-31 -55.5t-48 -43t-61 -27l187 -307h-91l-180 300h-156v-300h-80zM172 629v-261h176q30 0 54.5 10t42.5 27.5t28 41.5t10 51t-10 51t-28 42t-42.5 28t-54.5 10h-176zM454 915l-129 -130h-77
l114 130h92z" />
    <glyph glyph-name="racute" unicode="&#x155;" horiz-adv-x="375" 
d="M88 0zM295 456q-27 0 -51 -11t-41.5 -30t-27.5 -45t-10 -57v-313h-77v527h76v-106q16 50 51.5 80t85.5 30h44v-75h-50zM364 741l-129 -130h-77l114 130h92z" />
    <glyph glyph-name="uni0156" unicode="&#x156;" horiz-adv-x="620" 
d="M92 0zM92 0v700h263q45 0 83 -16t65.5 -43t43.5 -64t16 -79q0 -35 -11 -65.5t-31 -55.5t-48 -43t-61 -27l187 -307h-91l-180 300h-156v-300h-80zM172 629v-261h176q30 0 54.5 10t42.5 27.5t28 41.5t10 51t-10 51t-28 42t-42.5 28t-54.5 10h-176zM276 -222q23 3 37.5 18
t14.5 30q0 7 -7 12t-16 10.5t-16 13.5t-7 23q0 17 12.5 29.5t29.5 12.5q23 0 37 -18.5t14 -50.5q0 -42 -26 -75.5t-73 -38.5v34v0z" />
    <glyph glyph-name="uni0157" unicode="&#x157;" horiz-adv-x="375" 
d="M77 0zM295 456q-27 0 -51 -11t-41.5 -30t-27.5 -45t-10 -57v-313h-77v527h76v-106q16 50 51.5 80t85.5 30h44v-75h-50zM77 -222q23 3 37.5 18t14.5 30q0 7 -7 12t-16 10.5t-16 13.5t-7 23q0 17 12.5 29.5t29.5 12.5q23 0 37 -18.5t14 -50.5q0 -42 -26 -75.5t-73 -38.5v34
v0z" />
    <glyph glyph-name="Rcaron" unicode="&#x158;" horiz-adv-x="620" 
d="M92 0zM92 0v700h263q45 0 83 -16t65.5 -43t43.5 -64t16 -79q0 -35 -11 -65.5t-31 -55.5t-48 -43t-61 -27l187 -307h-91l-180 300h-156v-300h-80zM172 629v-261h176q30 0 54.5 10t42.5 27.5t28 41.5t10 51t-10 51t-28 42t-42.5 28t-54.5 10h-176zM458 915l-109 -130h-78
l-109 130h71l77 -85l78 85h70z" />
    <glyph glyph-name="rcaron" unicode="&#x159;" horiz-adv-x="375" 
d="M72 0zM295 456q-27 0 -51 -11t-41.5 -30t-27.5 -45t-10 -57v-313h-77v527h76v-106q16 50 51.5 80t85.5 30h44v-75h-50zM368 741l-109 -130h-78l-109 130h71l77 -85l78 85h70z" />
    <glyph glyph-name="Sacute" unicode="&#x15a;" horiz-adv-x="604" 
d="M48 0zM127 210q11 -71 60 -110.5t127 -39.5q72 0 113 32.5t41 86.5q0 45 -30 75t-95 47l-121 32q-82 22 -124.5 68.5t-42.5 114.5q0 43 17 79t47 61.5t71 39.5t90 14q51 0 94.5 -15.5t76.5 -44t54 -69t27 -89.5h-79q-11 71 -56 110.5t-119 39.5q-31 0 -57.5 -8.5
t-45.5 -24.5t-30 -37.5t-11 -48.5q0 -86 114 -116l125 -34q90 -24 132.5 -69.5t42.5 -115.5q0 -44 -16.5 -80t-47 -62t-73.5 -40.5t-96 -14.5q-55 0 -102 15.5t-82 44.5t-56.5 69t-26.5 90h79zM431 915l-129 -130h-77l114 130h92z" />
    <glyph glyph-name="sacute" unicode="&#x15b;" horiz-adv-x="488" 
d="M39 0zM257 -10q-44 0 -81.5 13t-66 35.5t-46.5 53.5t-24 68h75q8 -45 45.5 -75.5t97.5 -30.5q49 0 78.5 23t29.5 58q0 33 -24 53t-66 32l-89 23q-67 17 -102.5 52.5t-35.5 89.5q0 68 48.5 109.5t128.5 41.5q40 0 75.5 -12t63.5 -34.5t46 -53.5t23 -68h-76q-8 45 -44.5 75
t-87.5 30q-48 0 -74.5 -22.5t-26.5 -56.5q0 -32 23 -51.5t62 -30.5l87 -23q70 -18 107.5 -55.5t37.5 -91.5q0 -34 -13.5 -62t-38 -48t-58.5 -31t-74 -11zM376 741l-129 -130h-77l114 130h92z" />
    <glyph glyph-name="Scircumflex" unicode="&#x15c;" horiz-adv-x="604" 
d="M48 0zM127 210q11 -71 60 -110.5t127 -39.5q72 0 113 32.5t41 86.5q0 45 -30 75t-95 47l-121 32q-82 22 -124.5 68.5t-42.5 114.5q0 43 17 79t47 61.5t71 39.5t90 14q51 0 94.5 -15.5t76.5 -44t54 -69t27 -89.5h-79q-11 71 -56 110.5t-119 39.5q-31 0 -57.5 -8.5
t-45.5 -24.5t-30 -37.5t-11 -48.5q0 -86 114 -116l125 -34q90 -24 132.5 -69.5t42.5 -115.5q0 -44 -16.5 -80t-47 -62t-73.5 -40.5t-96 -14.5q-55 0 -102 15.5t-82 44.5t-56.5 69t-26.5 90h79zM139 785l109 130h78l109 -130h-71l-77 84l-77 -84h-71z" />
    <glyph glyph-name="scircumflex" unicode="&#x15d;" horiz-adv-x="488" 
d="M39 0zM257 -10q-44 0 -81.5 13t-66 35.5t-46.5 53.5t-24 68h75q8 -45 45.5 -75.5t97.5 -30.5q49 0 78.5 23t29.5 58q0 33 -24 53t-66 32l-89 23q-67 17 -102.5 52.5t-35.5 89.5q0 68 48.5 109.5t128.5 41.5q40 0 75.5 -12t63.5 -34.5t46 -53.5t23 -68h-76q-8 45 -44.5 75
t-87.5 30q-48 0 -74.5 -22.5t-26.5 -56.5q0 -32 23 -51.5t62 -30.5l87 -23q70 -18 107.5 -55.5t37.5 -91.5q0 -34 -13.5 -62t-38 -48t-58.5 -31t-74 -11zM84 612l109 130h78l109 -130h-71l-77 84l-77 -84h-71z" />
    <glyph glyph-name="uni015E" unicode="&#x15e;" horiz-adv-x="604" 
d="M127 210q11 -71 60 -110.5t127 -39.5q72 0 113 32.5t41 86.5q0 45 -30 75t-95 47l-121 32q-82 22 -124.5 68.5t-42.5 114.5q0 43 17 79t47 61.5t71 39.5t90 14q51 0 94.5 -15.5t76.5 -44t54 -69t27 -89.5h-79q-11 71 -56 110.5t-119 39.5q-31 0 -57.5 -8.5t-45.5 -24.5
t-30 -37.5t-11 -48.5q0 -86 114 -116l125 -34q90 -24 132.5 -69.5t42.5 -115.5q0 -42 -15.5 -77t-43.5 -61t-68.5 -41.5t-89.5 -17.5l-14 -46q40 -3 64 -25.5t24 -57.5q0 -38 -30 -64t-74 -26q-33 0 -61 12.5t-44 34.5l37 31q27 -33 66 -33q24 0 38.5 13t14.5 33t-16.5 32.5
t-43.5 12.5h-33l25 84q-49 4 -90.5 21.5t-72 46t-50 66.5t-23.5 84h79z" />
    <glyph glyph-name="uni015F" unicode="&#x15f;" horiz-adv-x="488" 
d="M348 -138q0 -38 -30 -64t-74 -26q-33 0 -61 12.5t-44 34.5l37 31q27 -33 66 -33q24 0 38.5 13t14.5 33t-16.5 32.5t-43.5 12.5h-33l25 84q-38 4 -70 18.5t-56.5 36.5t-40 51t-21.5 62h75q8 -45 45.5 -75.5t97.5 -30.5q49 0 78.5 23t29.5 58q0 33 -24 53t-66 32l-89 23
q-67 17 -102.5 52.5t-35.5 89.5q0 68 48.5 109.5t128.5 41.5q40 0 75.5 -12t63.5 -34.5t46 -53.5t23 -68h-76q-8 45 -44.5 75t-87.5 30q-48 0 -74.5 -22.5t-26.5 -56.5q0 -32 23 -51.5t62 -30.5l87 -23q70 -18 107.5 -55.5t37.5 -91.5q0 -65 -46.5 -106t-121.5 -46l-13 -45
q40 -3 64 -25.5t24 -57.5z" />
    <glyph glyph-name="Scaron" unicode="&#x160;" horiz-adv-x="604" 
d="M48 0zM127 210q11 -71 60 -110.5t127 -39.5q72 0 113 32.5t41 86.5q0 45 -30 75t-95 47l-121 32q-82 22 -124.5 68.5t-42.5 114.5q0 43 17 79t47 61.5t71 39.5t90 14q51 0 94.5 -15.5t76.5 -44t54 -69t27 -89.5h-79q-11 71 -56 110.5t-119 39.5q-31 0 -57.5 -8.5
t-45.5 -24.5t-30 -37.5t-11 -48.5q0 -86 114 -116l125 -34q90 -24 132.5 -69.5t42.5 -115.5q0 -44 -16.5 -80t-47 -62t-73.5 -40.5t-96 -14.5q-55 0 -102 15.5t-82 44.5t-56.5 69t-26.5 90h79zM435 915l-109 -130h-78l-109 130h71l77 -85l78 85h70z" />
    <glyph glyph-name="scaron" unicode="&#x161;" horiz-adv-x="488" 
d="M39 0zM257 -10q-44 0 -81.5 13t-66 35.5t-46.5 53.5t-24 68h75q8 -45 45.5 -75.5t97.5 -30.5q49 0 78.5 23t29.5 58q0 33 -24 53t-66 32l-89 23q-67 17 -102.5 52.5t-35.5 89.5q0 68 48.5 109.5t128.5 41.5q40 0 75.5 -12t63.5 -34.5t46 -53.5t23 -68h-76q-8 45 -44.5 75
t-87.5 30q-48 0 -74.5 -22.5t-26.5 -56.5q0 -32 23 -51.5t62 -30.5l87 -23q70 -18 107.5 -55.5t37.5 -91.5q0 -34 -13.5 -62t-38 -48t-58.5 -31t-74 -11zM380 741l-109 -130h-78l-109 130h71l77 -85l78 85h70z" />
    <glyph glyph-name="uni0162" unicode="&#x162;" horiz-adv-x="621" 
d="M26 700h569v-71h-245v-629h-14l-16 -55q40 -3 64 -25.5t24 -57.5q0 -38 -30 -64t-74 -26q-33 0 -61 12.5t-44 34.5l37 31q27 -33 66 -33q24 0 38.5 13t14.5 33t-16.5 32.5t-43.5 12.5h-33l27 92h-19v629h-244v71z" />
    <glyph glyph-name="uni0163" unicode="&#x163;" horiz-adv-x="389" 
d="M31 527h108v158h76v-158h141v-68h-141v-343q0 -48 53 -48h88v-68h-87l-16 -55q40 -3 64 -25.5t24 -57.5q0 -38 -30 -64t-74 -26q-33 0 -61 12.5t-44 34.5l37 31q27 -33 66 -33q24 0 38.5 13t14.5 33t-16.5 32.5t-43.5 12.5h-33l28 95q-41 8 -62.5 35t-21.5 67v354h-108
v68z" />
    <glyph glyph-name="Tcaron" unicode="&#x164;" horiz-adv-x="621" 
d="M26 0zM26 700h569v-71h-245v-629h-80v629h-244v71zM459 915l-109 -130h-78l-109 130h71l77 -85l78 85h70z" />
    <glyph glyph-name="tcaron" unicode="&#x165;" horiz-adv-x="389" 
d="M305 787h77l-39 -184h-58zM253 0q-54 0 -84 29t-30 76v354h-108v68h108v158h76v-158h141v-68h-141v-343q0 -48 53 -48h88v-68h-103v0z" />
    <glyph glyph-name="Tbar" unicode="&#x166;" horiz-adv-x="621" 
d="M119 382h151v247h-244v71h569v-71h-245v-247h153v-69h-153v-313h-80v313h-151v69z" />
    <glyph glyph-name="tbar" unicode="&#x167;" horiz-adv-x="396" 
d="M253 0q-54 0 -84 29t-30 76v148h-108v65h108v141h-108v68h108v158h76v-158h141v-68h-141v-141h141v-65h-141v-137q0 -48 53 -48h88v-68h-103v0z" />
    <glyph glyph-name="Utilde" unicode="&#x168;" horiz-adv-x="709" 
d="M82 0zM162 264q0 -46 14.5 -83.5t39.5 -63.5t59 -40.5t74 -14.5q39 0 73.5 14.5t60 41t40 63.5t14.5 83v436h80v-700h-80v107q-29 -50 -80.5 -83.5t-120.5 -33.5q-53 0 -99.5 19t-81 54t-54 84.5t-19.5 110.5v442h80v-436v0zM289 906q16 0 32.5 -9.5t32.5 -21t29.5 -21
t23.5 -9.5q14 0 23.5 13t20.5 50l51 -12q-27 -105 -91 -105q-16 0 -33 9.5t-32.5 20.5t-29 20.5t-23.5 9.5q-14 0 -23.5 -13t-21.5 -50l-51 12q29 106 92 106z" />
    <glyph glyph-name="utilde" unicode="&#x169;" 
d="M88 0zM88 527h77v-330q0 -59 36 -98t96 -39q31 0 57.5 11t45.5 30t29.5 45.5t10.5 57.5v323h77v-527h-77v99q-21 -51 -65.5 -80t-100.5 -29q-42 0 -76.5 15t-58.5 40.5t-37.5 60.5t-13.5 76v345zM242 733q16 0 32.5 -9.5t32.5 -21t29.5 -21t23.5 -9.5q14 0 23.5 13
t20.5 50l51 -12q-27 -105 -91 -105q-16 0 -33 9.5t-32.5 20.5t-29 20.5t-23.5 9.5q-14 0 -23.5 -13t-21.5 -50l-51 12q29 106 92 106z" />
    <glyph glyph-name="Umacron" unicode="&#x16a;" horiz-adv-x="709" 
d="M82 0zM162 264q0 -46 14.5 -83.5t39.5 -63.5t59 -40.5t74 -14.5q39 0 73.5 14.5t60 41t40 63.5t14.5 83v436h80v-700h-80v107q-29 -50 -80.5 -83.5t-120.5 -33.5q-53 0 -99.5 19t-81 54t-54 84.5t-19.5 110.5v442h80v-436v0zM474 813h-248v55h248v-55z" />
    <glyph glyph-name="umacron" unicode="&#x16b;" 
d="M88 0zM88 527h77v-330q0 -59 36 -98t96 -39q31 0 57.5 11t45.5 30t29.5 45.5t10.5 57.5v323h77v-527h-77v99q-21 -51 -65.5 -80t-100.5 -29q-42 0 -76.5 15t-58.5 40.5t-37.5 60.5t-13.5 76v345zM427 640h-248v55h248v-55z" />
    <glyph glyph-name="Ubreve" unicode="&#x16c;" horiz-adv-x="709" 
d="M82 0zM162 264q0 -46 14.5 -83.5t39.5 -63.5t59 -40.5t74 -14.5q39 0 73.5 14.5t60 41t40 63.5t14.5 83v436h80v-700h-80v107q-29 -50 -80.5 -83.5t-120.5 -33.5q-53 0 -99.5 19t-81 54t-54 84.5t-19.5 110.5v442h80v-436v0zM350 841q13 0 26 3t25 11.5t21.5 23
t15.5 37.5l55 -17q-14 -54 -53.5 -83.5t-89.5 -29.5t-89.5 29t-53.5 84l55 17q13 -46 37.5 -60.5t50.5 -14.5z" />
    <glyph glyph-name="ubreve" unicode="&#x16d;" 
d="M88 0zM88 527h77v-330q0 -59 36 -98t96 -39q31 0 57.5 11t45.5 30t29.5 45.5t10.5 57.5v323h77v-527h-77v99q-21 -51 -65.5 -80t-100.5 -29q-42 0 -76.5 15t-58.5 40.5t-37.5 60.5t-13.5 76v345zM303 667q13 0 26 3t25 11.5t21.5 23t15.5 37.5l55 -17
q-14 -54 -53.5 -83.5t-89.5 -29.5t-89.5 29t-53.5 84l55 17q13 -46 37.5 -60.5t50.5 -14.5z" />
    <glyph glyph-name="Uring" unicode="&#x16e;" horiz-adv-x="709" 
d="M82 0zM162 264q0 -46 14.5 -83.5t39.5 -63.5t59 -40.5t74 -14.5q39 0 73.5 14.5t60 41t40 63.5t14.5 83v436h80v-700h-80v107q-29 -50 -80.5 -83.5t-120.5 -33.5q-53 0 -99.5 19t-81 54t-54 84.5t-19.5 110.5v442h80v-436v0zM350 768q-22 0 -41 8t-33.5 22t-22.5 32.5
t-8 39.5t8 39.5t22.5 32.5t33.5 22t41 8t41 -8t33 -22t22.5 -32.5t8.5 -39.5t-8.5 -39.5t-22.5 -32.5t-33 -22t-41 -8zM350 809q26 0 44 17.5t18 43.5t-18 43.5t-44 17.5t-44 -17.5t-18 -43.5t18 -43.5t44 -17.5z" />
    <glyph glyph-name="uring" unicode="&#x16f;" 
d="M88 0zM88 527h77v-330q0 -59 36 -98t96 -39q31 0 57.5 11t45.5 30t29.5 45.5t10.5 57.5v323h77v-527h-77v99q-21 -51 -65.5 -80t-100.5 -29q-42 0 -76.5 15t-58.5 40.5t-37.5 60.5t-13.5 76v345zM303 594q-22 0 -41 8t-33.5 22t-22.5 32.5t-8 39.5t8 39.5t22.5 32.5
t33.5 22t41 8t41 -8t33 -22t22.5 -32.5t8.5 -39.5t-8.5 -39.5t-22.5 -32.5t-33 -22t-41 -8zM303 635q26 0 44 17.5t18 43.5t-18 43.5t-44 17.5t-44 -17.5t-18 -43.5t18 -43.5t44 -17.5z" />
    <glyph glyph-name="Uhungarumlaut" unicode="&#x170;" horiz-adv-x="709" 
d="M82 0zM162 264q0 -46 14.5 -83.5t39.5 -63.5t59 -40.5t74 -14.5q39 0 73.5 14.5t60 41t40 63.5t14.5 83v436h80v-700h-80v107q-29 -50 -80.5 -83.5t-120.5 -33.5q-53 0 -99.5 19t-81 54t-54 84.5t-19.5 110.5v442h80v-436v0zM411 915l-126 -128h-71l113 128h84zM577 915
l-125 -128h-72l113 128h84z" />
    <glyph glyph-name="uhungarumlaut" unicode="&#x171;" 
d="M88 0zM88 527h77v-330q0 -59 36 -98t96 -39q31 0 57.5 11t45.5 30t29.5 45.5t10.5 57.5v323h77v-527h-77v99q-21 -51 -65.5 -80t-100.5 -29q-42 0 -76.5 15t-58.5 40.5t-37.5 60.5t-13.5 76v345zM363 741l-126 -128h-71l113 128h84zM529 741l-125 -128h-72l113 128h84z
" />
    <glyph glyph-name="Uogonek" unicode="&#x172;" horiz-adv-x="709" 
d="M162 264q0 -46 14.5 -83.5t39.5 -63.5t59 -40.5t74 -14.5q39 0 73.5 14.5t60 41t40 63.5t14.5 83v436h80v-700q-25 -21 -40.5 -38.5t-24.5 -32.5t-12 -28t-3 -25q0 -49 50 -49q9 0 18.5 1t17.5 4l8 -45q-24 -8 -52 -8q-48 0 -72 24t-24 61q0 31 15.5 63t61.5 73h-23v107
q-29 -50 -80.5 -83.5t-120.5 -33.5q-53 0 -99.5 19t-81 54t-54 84.5t-19.5 110.5v442h80v-436v0z" />
    <glyph glyph-name="uogonek" unicode="&#x173;" 
d="M88 527h77v-330q0 -59 36 -98t96 -39q31 0 57.5 11t45.5 30t29.5 45.5t10.5 57.5v323h77v-527q-25 -21 -40.5 -38.5t-24.5 -32.5t-12 -28t-3 -25q0 -49 50 -49q9 0 18.5 1t17.5 4l8 -45q-24 -8 -52 -8q-48 0 -72 24t-24 61q0 31 15.5 63t61.5 73h-20v99
q-21 -51 -65.5 -80t-100.5 -29q-42 0 -76.5 15t-58.5 40.5t-37.5 60.5t-13.5 76v345z" />
    <glyph glyph-name="Wcircumflex" unicode="&#x174;" horiz-adv-x="945" 
d="M29 0zM694 121l143 579h79l-183 -700h-76l-184 579l-185 -579h-76l-183 700h83l143 -579l184 579h70zM326 785l109 130h78l109 -130h-71l-77 84l-77 -84h-71z" />
    <glyph glyph-name="wcircumflex" unicode="&#x175;" horiz-adv-x="742" 
d="M20 0zM404 527l130 -407l110 407h77l-148 -527h-69l-133 413l-134 -413h-69l-148 527h79l110 -409l130 409h65zM223 612l109 130h78l109 -130h-71l-77 84l-77 -84h-71z" />
    <glyph glyph-name="Ycircumflex" unicode="&#x176;" horiz-adv-x="618" 
d="M1 0zM269 0v292l-268 408h94l216 -333l214 333h92l-268 -411v-289h-80zM162 785l109 130h78l109 -130h-71l-77 84l-77 -84h-71z" />
    <glyph glyph-name="ycircumflex" unicode="&#x177;" horiz-adv-x="506" 
d="M5 0zM217 7l-212 520h81l171 -421l164 421h80l-255 -641q-19 -50 -48.5 -75.5t-80.5 -25.5h-68v67h56q28 0 45 14.5t28 41.5zM108 612l109 130h78l109 -130h-71l-77 84l-77 -84h-71z" />
    <glyph glyph-name="Ydieresis" unicode="&#x178;" horiz-adv-x="618" 
d="M1 0zM269 0v292l-268 408h94l216 -333l214 333h92l-268 -411v-289h-80zM222 798q-20 0 -35 15t-15 36t15 35.5t35 14.5t35 -14.5t15 -35.5t-15 -36t-35 -15zM396 798q-20 0 -35 15t-15 36t15 35.5t35 14.5t35 -14.5t15 -35.5t-15 -36t-35 -15z" />
    <glyph glyph-name="Zacute" unicode="&#x179;" horiz-adv-x="558" 
d="M35 0zM44 700h472v-55l-380 -574h382v-71h-483v54l380 575h-371v71zM421 915l-129 -130h-77l114 130h92z" />
    <glyph glyph-name="zacute" unicode="&#x17a;" horiz-adv-x="473" 
d="M39 0zM43 527h381v-57l-291 -402h298v-68h-392v56l293 403h-289v68zM381 741l-129 -130h-77l114 130h92z" />
    <glyph glyph-name="Zdotaccent" unicode="&#x17b;" horiz-adv-x="558" 
d="M35 0zM44 700h472v-55l-380 -574h382v-71h-483v54l380 575h-371v71zM276 798q-20 0 -35 15t-15 36t15 35.5t35 14.5t34.5 -14.5t14.5 -35.5t-14.5 -36t-34.5 -15z" />
    <glyph glyph-name="zdotaccent" unicode="&#x17c;" horiz-adv-x="473" 
d="M39 0zM43 527h381v-57l-291 -402h298v-68h-392v56l293 403h-289v68zM236 625q-20 0 -35 15t-15 36t15 35.5t35 14.5t34.5 -14.5t14.5 -35.5t-14.5 -36t-34.5 -15z" />
    <glyph glyph-name="Zcaron" unicode="&#x17d;" horiz-adv-x="558" 
d="M35 0zM44 700h472v-55l-380 -574h382v-71h-483v54l380 575h-371v71zM425 915l-109 -130h-78l-109 130h71l77 -85l78 85h70z" />
    <glyph glyph-name="zcaron" unicode="&#x17e;" horiz-adv-x="473" 
d="M39 0zM43 527h381v-57l-291 -402h298v-68h-392v56l293 403h-289v68zM385 741l-109 -130h-78l-109 130h71l77 -85l78 85h70z" />
    <glyph glyph-name="florin" unicode="&#x192;" horiz-adv-x="386" 
d="M140 458h-108v69h119l16 111q8 48 32 78t75 30h108v-68h-94q-21 0 -30.5 -14.5t-13.5 -37.5l-15 -99h125v-69h-135l-84 -565q-8 -48 -32 -78t-75 -30h-107v68h94q20 0 29.5 14.5t13.5 37.5z" />
    <glyph glyph-name="uni0218" unicode="&#x218;" horiz-adv-x="604" 
d="M48 0zM127 210q11 -71 60 -110.5t127 -39.5q72 0 113 32.5t41 86.5q0 45 -30 75t-95 47l-121 32q-82 22 -124.5 68.5t-42.5 114.5q0 43 17 79t47 61.5t71 39.5t90 14q51 0 94.5 -15.5t76.5 -44t54 -69t27 -89.5h-79q-11 71 -56 110.5t-119 39.5q-31 0 -57.5 -8.5
t-45.5 -24.5t-30 -37.5t-11 -48.5q0 -86 114 -116l125 -34q90 -24 132.5 -69.5t42.5 -115.5q0 -44 -16.5 -80t-47 -62t-73.5 -40.5t-96 -14.5q-55 0 -102 15.5t-82 44.5t-56.5 69t-26.5 90h79zM259 -222q23 3 37.5 18t14.5 30q0 7 -7 12t-16 10.5t-16 13.5t-7 23
q0 17 12.5 29.5t29.5 12.5q23 0 37 -18.5t14 -50.5q0 -42 -26 -75.5t-73 -38.5v34v0z" />
    <glyph glyph-name="uni0219" unicode="&#x219;" horiz-adv-x="488" 
d="M39 0zM257 -10q-44 0 -81.5 13t-66 35.5t-46.5 53.5t-24 68h75q8 -45 45.5 -75.5t97.5 -30.5q49 0 78.5 23t29.5 58q0 33 -24 53t-66 32l-89 23q-67 17 -102.5 52.5t-35.5 89.5q0 68 48.5 109.5t128.5 41.5q40 0 75.5 -12t63.5 -34.5t46 -53.5t23 -68h-76q-8 45 -44.5 75
t-87.5 30q-48 0 -74.5 -22.5t-26.5 -56.5q0 -32 23 -51.5t62 -30.5l87 -23q70 -18 107.5 -55.5t37.5 -91.5q0 -34 -13.5 -62t-38 -48t-58.5 -31t-74 -11zM202 -222q23 3 37.5 18t14.5 30q0 7 -7 12t-16 10.5t-16 13.5t-7 23q0 17 12.5 29.5t29.5 12.5q23 0 37 -18.5
t14 -50.5q0 -42 -26 -75.5t-73 -38.5v34v0z" />
    <glyph glyph-name="uni021A" unicode="&#x21a;" horiz-adv-x="621" 
d="M26 0zM26 700h569v-71h-245v-629h-80v629h-244v71zM262 -222q23 3 37.5 18t14.5 30q0 7 -7 12t-16 10.5t-16 13.5t-7 23q0 17 12.5 29.5t29.5 12.5q23 0 37 -18.5t14 -50.5q0 -42 -26 -75.5t-73 -38.5v34v0z" />
    <glyph glyph-name="uni021B" unicode="&#x21b;" horiz-adv-x="389" 
d="M31 0zM253 0q-54 0 -84 29t-30 76v354h-108v68h108v158h76v-158h141v-68h-141v-343q0 -48 53 -48h88v-68h-103v0zM195 -222q23 3 37.5 18t14.5 30q0 7 -7 12t-16 10.5t-16 13.5t-7 23q0 17 12.5 29.5t29.5 12.5q23 0 37 -18.5t14 -50.5q0 -42 -26 -75.5t-73 -38.5v34v0z
" />
    <glyph glyph-name="uni0237" unicode="&#x237;" horiz-adv-x="253" 
d="M10 -215v67h34q44 0 44 40v635h77v-646q0 -42 -27.5 -69t-76.5 -27h-51z" />
    <glyph glyph-name="circumflex" unicode="&#x2c6;" horiz-adv-x="500" 
d="M103 588l109 130h78l109 -130h-71l-77 84l-77 -84h-71z" />
    <glyph glyph-name="caron" unicode="&#x2c7;" horiz-adv-x="500" 
d="M399 718l-109 -130h-78l-109 130h71l77 -85l78 85h70z" />
    <glyph glyph-name="breve" unicode="&#x2d8;" horiz-adv-x="500" 
d="M250 644q13 0 26 3t25 11.5t21.5 23t15.5 37.5l55 -17q-14 -54 -53.5 -83.5t-89.5 -29.5t-89.5 29t-53.5 84l55 17q13 -46 37.5 -60.5t50.5 -14.5z" />
    <glyph glyph-name="dotaccent" unicode="&#x2d9;" horiz-adv-x="248" 
d="M124 601q-20 0 -35 15t-15 36t15 35.5t35 14.5t34.5 -14.5t14.5 -35.5t-14.5 -36t-34.5 -15z" />
    <glyph glyph-name="ring" unicode="&#x2da;" horiz-adv-x="500" 
d="M250 571q-22 0 -41 8t-33.5 22t-22.5 32.5t-8 39.5t8 39.5t22.5 32.5t33.5 22t41 8t41 -8t33 -22t22.5 -32.5t8.5 -39.5t-8.5 -39.5t-22.5 -32.5t-33 -22t-41 -8zM250 612q26 0 44 17.5t18 43.5t-18 43.5t-44 17.5t-44 -17.5t-18 -43.5t18 -43.5t44 -17.5z" />
    <glyph glyph-name="ogonek" unicode="&#x2db;" horiz-adv-x="500" 
d="M308 0q-25 -21 -40.5 -38.5t-24.5 -32.5t-12 -28t-3 -25q0 -49 50 -49q9 0 18.5 1t17.5 4l8 -45q-24 -8 -52 -8q-48 0 -72 24t-24 61q0 18 4.5 35t15.5 35.5t30 39.5t49 45l35 -19v0z" />
    <glyph glyph-name="tilde" unicode="&#x2dc;" horiz-adv-x="500" 
d="M183 709q16 0 32.5 -9.5t32.5 -21t29.5 -21t23.5 -9.5q14 0 23.5 13t20.5 50l51 -12q-27 -105 -91 -105q-16 0 -33 9.5t-32.5 20.5t-29 20.5t-23.5 9.5q-14 0 -23.5 -13t-21.5 -50l-51 12q29 106 92 106z" />
    <glyph glyph-name="hungarumlaut" unicode="&#x2dd;" horiz-adv-x="509" 
d="M309 718l-126 -128h-71l113 128h84zM475 718l-125 -128h-72l113 128h84z" />
    <glyph glyph-name="uni09F3" unicode="&#x9f3;" horiz-adv-x="607" 
d="M181 162q0 -54 29.5 -80t80.5 -26q45 0 84 16.5t68.5 45.5t46.5 67.5t17 83.5q0 32 -9 60t-24 49t-35 33t-43 12q-16 0 -31 -5t-28 -13l-29 62q22 12 42.5 19t46.5 7q39 0 73 -17.5t58.5 -48t39 -71.5t14.5 -87q0 -58 -22.5 -109t-62 -89t-93 -60t-115.5 -22
q-44 0 -78.5 13t-57.5 35t-35 51.5t-12 61.5v254h-77v66h77v128q0 32 -35 32h-42v70h60q44 0 68 -24.5t24 -62.5v-143h69v-66h-69v-242v0z" />
    <glyph glyph-name="Wgrave" unicode="&#x1e80;" horiz-adv-x="945" 
d="M29 0zM694 121l143 579h79l-183 -700h-76l-184 579l-185 -579h-76l-183 700h83l143 -579l184 579h70zM532 785h-78l-128 130h92z" />
    <glyph glyph-name="wgrave" unicode="&#x1e81;" horiz-adv-x="742" 
d="M20 0zM404 527l130 -407l110 407h77l-148 -527h-69l-133 413l-134 -413h-69l-148 527h79l110 -409l130 409h65zM429 612h-78l-128 130h92z" />
    <glyph glyph-name="Wacute" unicode="&#x1e82;" horiz-adv-x="945" 
d="M29 0zM694 121l143 579h79l-183 -700h-76l-184 579l-185 -579h-76l-183 700h83l143 -579l184 579h70zM618 915l-129 -130h-77l114 130h92z" />
    <glyph glyph-name="wacute" unicode="&#x1e83;" horiz-adv-x="742" 
d="M20 0zM404 527l130 -407l110 407h77l-148 -527h-69l-133 413l-134 -413h-69l-148 527h79l110 -409l130 409h65zM515 742l-129 -130h-77l114 130h92z" />
    <glyph glyph-name="Wdieresis" unicode="&#x1e84;" horiz-adv-x="945" 
d="M29 0zM694 121l143 579h79l-183 -700h-76l-184 579l-185 -579h-76l-183 700h83l143 -579l184 579h70zM386 798q-20 0 -35 15t-15 36t15 35.5t35 14.5t35 -14.5t15 -35.5t-15 -36t-35 -15zM560 798q-20 0 -35 15t-15 36t15 35.5t35 14.5t35 -14.5t15 -35.5t-15 -36
t-35 -15z" />
    <glyph glyph-name="wdieresis" unicode="&#x1e85;" horiz-adv-x="742" 
d="M20 0zM404 527l130 -407l110 407h77l-148 -527h-69l-133 413l-134 -413h-69l-148 527h79l110 -409l130 409h65zM283 625q-20 0 -35 15t-15 36t15 35.5t35 14.5t35 -14.5t15 -35.5t-15 -36t-35 -15zM457 625q-20 0 -35 15t-15 36t15 35.5t35 14.5t35 -14.5t15 -35.5
t-15 -36t-35 -15z" />
    <glyph glyph-name="Ygrave" unicode="&#x1ef2;" horiz-adv-x="618" 
d="M1 0zM269 0v292l-268 408h94l216 -333l214 333h92l-268 -411v-289h-80zM368 785h-78l-128 130h92z" />
    <glyph glyph-name="ygrave" unicode="&#x1ef3;" horiz-adv-x="506" 
d="M5 0zM217 7l-212 520h81l171 -421l164 421h80l-255 -641q-19 -50 -48.5 -75.5t-80.5 -25.5h-68v67h56q28 0 45 14.5t28 41.5zM314 612h-78l-128 130h92z" />
    <glyph glyph-name="uni2002" unicode="&#x2002;" horiz-adv-x="500" 
 />
    <glyph glyph-name="uni2003" unicode="&#x2003;" horiz-adv-x="1000" 
 />
    <glyph glyph-name="uni2009" unicode="&#x2009;" horiz-adv-x="175" 
 />
    <glyph glyph-name="uni200A" unicode="&#x200a;" horiz-adv-x="100" 
 />
    <glyph glyph-name="uni200B" unicode="&#x200b;" horiz-adv-x="0" 
 />
    <glyph glyph-name="endash" unicode="&#x2013;" horiz-adv-x="606" 
d="M66 333h474v-69h-474v69z" />
    <glyph glyph-name="emdash" unicode="&#x2014;" horiz-adv-x="806" 
d="M66 333h674v-69h-674v69z" />
    <glyph glyph-name="uni2015" unicode="&#x2015;" horiz-adv-x="1006" 
d="M66 333h874v-69h-874v69z" />
    <glyph glyph-name="quoteleft" unicode="&#x2018;" horiz-adv-x="219" 
d="M40 488zM161.003 688.993q-13.999 -3 -26.499 -10.999q-12.499 -8 -21.498 -18.999q-9 -10.999 -14.499 -23.499q-5.5 -12.499 -5.5 -24.498q0 -10.999 8.49902 -17.499q8.5 -6.49902 18.999 -13.499q10.5 -7 18.999 -16.999q8.5 -9.99902 8.5 -26.998
q0 -19.999 -14.5 -33.998q-14.499 -13.999 -33.4971 -13.999q-26.999 0 -43.498 20.998q-16.499 20.999 -16.499 59.9971q0 61.9961 31.498 106.993t89.4951 54.9971v-41.998v0z" />
    <glyph glyph-name="quoteright" unicode="&#x2019;" horiz-adv-x="219" 
d="M58 489zM58 531q14 3 26.5 11t21.5 19t14.5 23.5t5.5 24.5q0 11 -8.5 17.5t-19 13.5t-19 17t-8.5 27q0 20 14.5 34t33.5 14q27 0 43.5 -21t16.5 -60q0 -62 -31.5 -107t-89.5 -55v42v0z" />
    <glyph glyph-name="quotesinglbase" unicode="&#x201a;" horiz-adv-x="219" 
d="M44 0zM44 -109q14 3 26.5 11t21.5 19t14.5 23.5t5.5 24.5q0 11 -8.5 17.5t-19 13.5t-19 17t-8.5 27q0 20 14.5 34t33.5 14q27 0 43.5 -21t16.5 -60q0 -62 -31.5 -107t-89.5 -55v42v0z" />
    <glyph glyph-name="quotedblleft" unicode="&#x201c;" horiz-adv-x="389" 
d="M40 488zM161.003 688.993q-13.999 -3 -26.499 -10.999q-12.499 -8 -21.498 -18.999q-9 -10.999 -14.499 -23.499q-5.5 -12.499 -5.5 -24.498q0 -10.999 8.49902 -17.499q8.5 -6.49902 18.999 -13.499q10.5 -7 18.999 -16.999q8.5 -9.99902 8.5 -26.998
q0 -19.999 -14.5 -33.998q-14.499 -13.999 -33.4971 -13.999q-26.999 0 -43.498 20.998q-16.499 20.999 -16.499 59.9971q0 61.9961 31.498 106.993t89.4951 54.9971v-41.998v0zM331.003 688.993q-13.999 -3 -26.499 -10.999q-12.499 -8 -21.498 -18.999
q-9 -10.999 -14.499 -23.499q-5.5 -12.499 -5.5 -24.498q0 -10.999 8.49902 -17.499q8.5 -6.49902 18.999 -13.499q10.5 -7 18.999 -16.999q8.5 -9.99902 8.5 -26.998q0 -19.999 -14.5 -33.998q-14.499 -13.999 -33.4971 -13.999q-26.999 0 -43.498 20.998
q-16.499 20.999 -16.499 59.9971q0 61.9961 31.498 106.993t89.4951 54.9971v-41.998v0z" />
    <glyph glyph-name="quotedblright" unicode="&#x201d;" horiz-adv-x="389" 
d="M58 489zM228 531q14 3 26.5 11t21.5 19t14.5 23.5t5.5 24.5q0 11 -8.5 17.5t-19 13.5t-19 17t-8.5 27q0 20 14.5 34t33.5 14q27 0 43.5 -21t16.5 -60q0 -62 -31.5 -107t-89.5 -55v42v0zM58 531q14 3 26.5 11t21.5 19t14.5 23.5t5.5 24.5q0 11 -8.5 17.5t-19 13.5t-19 17
t-8.5 27q0 20 14.5 34t33.5 14q27 0 43.5 -21t16.5 -60q0 -62 -31.5 -107t-89.5 -55v42v0z" />
    <glyph glyph-name="quotedblbase" unicode="&#x201e;" horiz-adv-x="389" 
d="M44 0zM214 -109q14 3 26.5 11t21.5 19t14.5 23.5t5.5 24.5q0 11 -8.5 17.5t-19 13.5t-19 17t-8.5 27q0 20 14.5 34t33.5 14q27 0 43.5 -21t16.5 -60q0 -62 -31.5 -107t-89.5 -55v42v0zM44 -109q14 3 26.5 11t21.5 19t14.5 23.5t5.5 24.5q0 11 -8.5 17.5t-19 13.5t-19 17
t-8.5 27q0 20 14.5 34t33.5 14q27 0 43.5 -21t16.5 -60q0 -62 -31.5 -107t-89.5 -55v42v0z" />
    <glyph glyph-name="dagger" unicode="&#x2020;" horiz-adv-x="397" 
d="M165 441h-126v62h126v197h67v-197h127v-62h-127v-441h-67v441z" />
    <glyph glyph-name="daggerdbl" unicode="&#x2021;" horiz-adv-x="397" 
d="M165 197h-126v62h126v182h-126v62h126v197h67v-197h127v-62h-127v-182h127v-62h-127v-197h-67v197z" />
    <glyph glyph-name="bullet" unicode="&#x2022;" horiz-adv-x="270" 
d="M136 413q19 0 36 -7.5t29.5 -20.5t20 -30t7.5 -36q0 -20 -7.5 -37.5t-20 -30.5t-29.5 -20.5t-36 -7.5q-20 0 -37 7.5t-30 20.5t-20.5 30.5t-7.5 37.5q0 19 7.5 36t20.5 30t30 20.5t37 7.5z" />
    <glyph glyph-name="ellipsis" unicode="&#x2026;" horiz-adv-x="637" 
d="M55 0zM106 94q21 0 36 -15t15 -37q0 -21 -15 -36t-36 -15t-36 15t-15 36q0 22 15 37t36 15zM318 94q21 0 36 -15t15 -37q0 -21 -15 -36t-36 -15t-36 15t-15 36q0 22 15 37t36 15zM531 94q21 0 36 -15t15 -37q0 -21 -15 -36t-36 -15t-36 15t-15 36q0 22 15 37t36 15z" />
    <glyph glyph-name="guilsinglleft" unicode="&#x2039;" horiz-adv-x="386" 
d="M115 265l244 -265h-92l-246 264l246 263h88z" />
    <glyph glyph-name="guilsinglright" unicode="&#x203a;" horiz-adv-x="386" 
d="M21 0zM265.007 262.017l-243.985 264.983h91.9951l245.984 -263.984l-245.984 -262.983h-87.9951z" />
    <glyph glyph-name="fraction" unicode="&#x2044;" horiz-adv-x="561" 
d="M47 0l383 700h66l-384 -700h-65z" />
    <glyph glyph-name="uni2070" unicode="&#x2070;" horiz-adv-x="359" 
d="M38 558q0 69 39 109t102 40q64 0 103 -40t39 -109v-100q0 -69 -39 -109.5t-103 -40.5q-63 0 -102 40.5t-39 109.5v100zM262 556q0 47 -22.5 73t-60.5 26t-60 -26.5t-22 -72.5v-96q0 -48 22 -73.5t60 -25.5t60.5 25.5t22.5 73.5v96z" />
    <glyph glyph-name="uni2074" unicode="&#x2074;" horiz-adv-x="345" 
d="M211 412h-188v45l171 243h77v-237h48v-51h-48v-97h-60v97zM211 463v180l-124 -180h124z" />
    <glyph glyph-name="uni2075" unicode="&#x2075;" horiz-adv-x="327" 
d="M171 560q27 0 49.5 -9.5t38.5 -25.5t25 -38.5t9 -47.5q0 -27 -10 -51t-27.5 -42t-42 -28t-53.5 -10q-48 0 -82.5 21t-51.5 56l49 27q12 -25 32.5 -39t48.5 -14q35 0 56.5 22.5t21.5 54.5t-21 53t-56 21q-21 0 -37 -6.5t-30 -20.5l-49 8l9 209h217v-52h-166l-4 -116
q16 15 34 21.5t40 6.5z" />
    <glyph glyph-name="uni2076" unicode="&#x2076;" horiz-adv-x="346" 
d="M184 655q-38 0 -63.5 -32.5t-25.5 -101.5v-21q12 34 39 50.5t57 16.5q26 0 48 -10t38 -26.5t25 -39t9 -47.5q0 -30 -10 -54.5t-27 -42.5t-40.5 -28t-51.5 -10q-66 0 -105.5 49t-39.5 131v30q0 90 39 138.5t107 48.5q40 0 69.5 -16.5t49.5 -46.5l-41 -33q-28 45 -77 45z
M179 360q33 0 54.5 22t21.5 57t-21.5 56.5t-54.5 21.5q-32 0 -54 -21.5t-22 -56.5q0 -34 21.5 -56.5t54.5 -22.5z" />
    <glyph glyph-name="uni2077" unicode="&#x2077;" horiz-adv-x="315" 
d="M119 315h-69l176 333h-202v52h268v-45z" />
    <glyph glyph-name="uni2078" unicode="&#x2078;" horiz-adv-x="341" 
d="M171 308q-59 0 -97 31.5t-38 81.5q0 34 21 59t55 34q-28 11 -45.5 33.5t-17.5 52.5q0 22 9 41.5t25.5 34t39 22.5t48.5 8t48.5 -8t38.5 -22.5t25 -34t9 -41.5q0 -30 -17 -52.5t-46 -33.5q34 -9 54.5 -34t20.5 -59q0 -50 -37.5 -81.5t-95.5 -31.5zM171 536q27 0 45 17
t18 43t-17.5 42.5t-45.5 16.5t-46 -16.5t-18 -42.5t18 -43t46 -17zM171 488q-32 0 -53.5 -18t-21.5 -47t21.5 -47t53.5 -18t53 18t21 47t-21 47t-53 18z" />
    <glyph glyph-name="uni2079" unicode="&#x2079;" horiz-adv-x="346" 
d="M164 360q37 0 61.5 33t24.5 101v21q-12 -34 -39 -50.5t-56 -16.5q-26 0 -48 10t-38.5 26.5t-25.5 39t-9 47.5q0 30 10 54.5t27.5 42.5t41 28t51.5 10q66 0 105 -49t39 -131v-30q0 -90 -38.5 -138.5t-104.5 -48.5q-44 0 -74.5 19t-49.5 53l48 27q26 -48 75 -48zM167 655
q-33 0 -55 -22t-22 -57t22 -56.5t55 -21.5q32 0 53.5 21.5t21.5 56.5q0 34 -21.5 56.5t-53.5 22.5z" />
    <glyph glyph-name="uni2080" unicode="&#x2080;" horiz-adv-x="359" 
d="M38 0zM38 243q0 69 39 109t102 40q64 0 103 -40t39 -109v-100q0 -69 -39 -109.5t-103 -40.5q-63 0 -102 40.5t-39 109.5v100zM262 241q0 47 -22.5 73t-60.5 26t-60 -26.5t-22 -72.5v-96q0 -48 22 -73.5t60 -25.5t60.5 25.5t22.5 73.5v96z" />
    <glyph glyph-name="uni2081" unicode="&#x2081;" horiz-adv-x="274" 
d="M28 0zM248 0h-220v52h80v281h-71v52h131v-333h80v-52z" />
    <glyph glyph-name="uni2082" unicode="&#x2082;" horiz-adv-x="309" 
d="M20 0zM274 278q1 -32 -12.5 -58.5t-45.5 -60.5l-101 -108l164 1v-52h-247v39l139 150q23 24 33.5 43t10.5 42q0 29 -19.5 47.5t-48.5 18.5q-26 0 -46 -14t-34 -39l-47 26q19 37 51.5 57.5t77.5 20.5q28 0 51 -8.5t39.5 -24t25.5 -36t9 -44.5z" />
    <glyph glyph-name="uni2083" unicode="&#x2083;" horiz-adv-x="325" 
d="M21 0zM156 391q26 0 48.5 -8.5t39 -22.5t25.5 -33.5t9 -41.5q0 -29 -16 -50.5t-42 -32.5q31 -11 51 -36.5t20 -58.5q0 -24 -10 -45t-27.5 -36t-42 -24t-53.5 -9q-49 0 -84 21t-53 56l50 26q12 -24 34.5 -38t51.5 -14q33 0 53 19t20 47q0 26 -18 44t-47 18h-52v49h47
q26 0 42.5 16.5t16.5 41.5q0 27 -19.5 44t-48.5 17q-26 0 -45.5 -13.5t-30.5 -36.5l-49 25q17 35 50 55.5t80 20.5z" />
    <glyph glyph-name="uni2084" unicode="&#x2084;" horiz-adv-x="345" 
d="M23 0zM211 97h-188v45l171 243h77v-237h48v-51h-48v-97h-60v97zM211 148v180l-124 -180h124z" />
    <glyph glyph-name="uni2085" unicode="&#x2085;" horiz-adv-x="327" 
d="M26 0zM171 245q27 0 49.5 -9.5t38.5 -25.5t25 -38.5t9 -47.5q0 -27 -10 -51t-27.5 -42t-42 -28t-53.5 -10q-48 0 -82.5 21t-51.5 56l49 27q12 -25 32.5 -39t48.5 -14q35 0 56.5 22.5t21.5 54.5t-21 53t-56 21q-21 0 -37 -6.5t-30 -20.5l-49 8l9 209h217v-52h-166l-4 -116
q16 15 34 21.5t40 6.5z" />
    <glyph glyph-name="uni2086" unicode="&#x2086;" horiz-adv-x="346" 
d="M37 0zM184 340q-38 0 -63.5 -32.5t-25.5 -101.5v-21q12 34 39 50.5t57 16.5q26 0 48 -10t38 -26.5t25 -39t9 -47.5q0 -30 -10 -54.5t-27 -42.5t-40.5 -28t-51.5 -10q-66 0 -105.5 49t-39.5 131v30q0 90 39 138.5t107 48.5q40 0 69.5 -16.5t49.5 -46.5l-41 -33
q-28 45 -77 45zM179 45q33 0 54.5 22t21.5 57t-21.5 56.5t-54.5 21.5q-32 0 -54 -21.5t-22 -56.5q0 -34 21.5 -56.5t54.5 -22.5z" />
    <glyph glyph-name="uni2087" unicode="&#x2087;" horiz-adv-x="315" 
d="M24 0zM119 0h-69l176 333h-202v52h268v-45z" />
    <glyph glyph-name="uni2088" unicode="&#x2088;" horiz-adv-x="341" 
d="M36 0zM171 -7q-59 0 -97 31.5t-38 81.5q0 34 21 59t55 34q-28 11 -45.5 33.5t-17.5 52.5q0 22 9 41.5t25.5 34t39 22.5t48.5 8t48.5 -8t38.5 -22.5t25 -34t9 -41.5q0 -30 -17 -52.5t-46 -33.5q34 -9 54.5 -34t20.5 -59q0 -50 -37.5 -81.5t-95.5 -31.5zM171 221
q27 0 45 17t18 43t-17.5 42.5t-45.5 16.5t-46 -16.5t-18 -42.5t18 -43t46 -17zM171 173q-32 0 -53.5 -18t-21.5 -47t21.5 -47t53.5 -18t53 18t21 47t-21 47t-53 18z" />
    <glyph glyph-name="uni2089" unicode="&#x2089;" horiz-adv-x="346" 
d="M34 0zM164 45q37 0 61.5 33t24.5 101v21q-12 -34 -39 -50.5t-56 -16.5q-26 0 -48 10t-38.5 26.5t-25.5 39t-9 47.5q0 30 10 54.5t27.5 42.5t41 28t51.5 10q66 0 105 -49t39 -131v-30q0 -90 -38.5 -138.5t-104.5 -48.5q-44 0 -74.5 19t-49.5 53l48 27q26 -48 75 -48z
M167 340q-33 0 -55 -22t-22 -57t22 -56.5t55 -21.5q32 0 53.5 21.5t21.5 56.5q0 34 -21.5 56.5t-53.5 22.5z" />
    <glyph glyph-name="uni20A9" unicode="&#x20a9;" horiz-adv-x="964" 
d="M136 311l-21 80h-91v57h76l-67 252h85l61 -252h190l81 252h67l81 -252h190l61 252h81l-67 -252h77v-57h-92l-21 -80h113v-57h-128l-67 -254h-74l-82 254h-215l-81 -254h-74l-67 254h-128v57h112zM527 448l-45 142l-46 -142h91zM325 311l25 80h-157l19 -80h113zM571 311
l-26 80h-127l-26 -80h179zM754 311l20 80h-157l25 -80h112zM260 111l46 143h-80zM706 113l35 141h-80z" />
    <glyph glyph-name="Euro" unicode="&#x20ac;" horiz-adv-x="705" 
d="M362 254h-179q7 -47 25 -82.5t44.5 -60t60 -37t71.5 -12.5q72 0 124 43.5t71 126.5h78q-10 -57 -34.5 -102.5t-60.5 -76.5t-80.5 -47.5t-95.5 -16.5q-55 0 -103.5 18t-86 52t-62.5 83.5t-33 111.5h-90v57h87v80h-87v57h91q8 61 33 110t62.5 83t85.5 52t103 18
q51 0 96 -16.5t80.5 -47.5t60 -76.5t34.5 -102.5h-78q-19 83 -71 126.5t-124 43.5q-38 0 -71.5 -12.5t-59.5 -36.5t-44 -59.5t-25 -81.5h247l-21 -57h-231v-80h203z" />
    <glyph glyph-name="uni20B9" unicode="&#x20b9;" horiz-adv-x="569" 
d="M387 0l-345 305v49h182q53 0 89.5 30t47.5 76h-319v64h320q-10 48 -47 80t-91 32h-182v64h488v-64h-152q49 -45 60 -112h92v-64h-93q-6 -36 -24 -66.5t-45.5 -53t-63 -35t-75.5 -12.5h-75l330 -293h-97z" />
    <glyph glyph-name="trademark" unicode="&#x2122;" horiz-adv-x="663" 
d="M380 700l85 -211l83 211h62v-279h-48l2 205l-83 -205h-35l-82 205l1 -205h-47v279h62zM270 700v-42h-97v-237h-50v237h-96v42h243z" />
    <glyph glyph-name="uni2190" unicode="&#x2190;" horiz-adv-x="1001" 
d="M376 725h86l-247 -338h707v-74h-707l247 -338h-86l-273 375z" />
    <glyph glyph-name="uni2191" unicode="&#x2191;" horiz-adv-x="1000" 
d="M875 463v-87l-338 248v-707h-74v707l-338 -248v87l375 273z" />
    <glyph glyph-name="uni2192" unicode="&#x2192;" horiz-adv-x="1001" 
d="M623 725l274 -375l-274 -375h-84l248 339h-708v72h708l-248 339h84z" />
    <glyph glyph-name="uni2193" unicode="&#x2193;" horiz-adv-x="1000" 
d="M875 156l-375 -274l-375 274v84l339 -248v708h72v-708l339 248v-84z" />
    <glyph glyph-name="minus" unicode="&#x2212;" horiz-adv-x="549" 
d="M483 330h-417v62h417v-62z" />
    <glyph glyph-name="approxequal" unicode="&#x2248;" horiz-adv-x="547" 
d="M164 435q-26 0 -48 -8.5t-51 -25.5v60q29 18 53 25.5t50 7.5q27 0 54 -8.5t54 -19t54.5 -19t54.5 -8.5q25 0 46.5 9t50.5 26v-61q-29 -18 -53 -25t-50 -7q-27 0 -53.5 8.5t-53.5 18.5t-54 18.5t-54 8.5zM164 275q-26 0 -48 -9t-51 -26v61q29 17 53 25t50 8q27 0 54 -9
t54 -19.5t54.5 -19t54.5 -8.5q25 0 46.5 9.5t50.5 26.5v-61q-29 -19 -53 -26t-50 -7q-27 0 -53.5 8.5t-53.5 19t-54 19t-54 8.5z" />
    <glyph glyph-name="notequal" unicode="&#x2260;" horiz-adv-x="553" 
d="M156 247h-88v59h133l78 100h-211v59h256l90 116h73l-90 -116h88v-59h-133l-78 -100h211v-59h-256l-89 -115h-73z" />
    <glyph glyph-name="lessequal" unicode="&#x2264;" horiz-adv-x="538" 
d="M132 367l324 -143v-73l-402 184v64l402 184v-71zM456 63v-70l-402 184v70z" />
    <glyph glyph-name="greaterequal" unicode="&#x2265;" horiz-adv-x="538" 
d="M71 583l402 -184v-64l-402 -184v72l324 143l-324 145v72zM473 177l-402 -184v70l402 184v-70z" />
    <glyph glyph-name="check" unicode="&#x2713;" horiz-adv-x="1002" 
d="M918 533l-542 -541l-292 291v103l292 -291l542 541v-103z" />
    <glyph glyph-name="close" unicode="&#x2715;" horiz-adv-x="1002" 
d="M553 352l309 -307l-52 -53l-308 309l-307 -309l-52 53l308 307l-308 307l52 52l307 -309l308 309l52 -52z" />
    <glyph glyph-name="fi" unicode="&#xfb01;" horiz-adv-x="621" 
d="M33 527h108v110q0 49 29 79t82 30h223v-68h-212q-46 0 -46 -52v-99h318v-527h-77v459h-241v-459h-76v459h-108v68z" />
    <glyph glyph-name="fl" unicode="&#xfb02;" horiz-adv-x="622" 
d="M33 527h108v110q0 49 29 79t82 30h283v-746h-77v678h-195q-46 0 -46 -52v-99h137v-68h-137v-459h-76v459h-108v68z" />
    <glyph glyph-name="Uber" horiz-adv-x="2119" 
d="M154 268q0 -42 13 -76.5t36 -59t54.5 -37.5t68.5 -13q36 0 67.5 13.5t55 38t36.5 58.5t13 76v432h105v-700h-104v65q-35 -37 -82.5 -57t-102.5 -20q-56 0 -104.5 19.5t-84 55.5t-56 86.5t-20.5 112.5v438h105v-432zM681 700h101v-255q35 35 81 55.5t100 20.5
q56 0 105 -21t85 -57t57 -85t21 -104t-21 -103.5t-57 -84.5t-85 -57t-105 -21q-54 0 -100.5 20.5t-81.5 55.5v-64h-100v700zM780 254q0 -37 13.5 -69t37.5 -56t56 -38t69 -14q36 0 68 14t55.5 38t37.5 56t14 69t-14 69.5t-37.5 56.5t-55.5 37.5t-68 13.5t-68 -13.5
t-56 -37.5t-38 -56.5t-14 -69.5zM1271 255q0 54 20 102t55 84.5t83 57.5t104 21q55 0 102 -20t81 -55.5t53 -84t19 -105.5v-33h-415q5 -31 20 -57.5t37.5 -46t51 -30.5t60.5 -11q91 0 147 75l73 -54q-38 -51 -94 -80t-126 -29q-57 0 -106.5 20t-86 56t-57.5 84.5t-21 105.5z
M1531 432q-57 0 -99.5 -35.5t-56.5 -94.5h311q-13 59 -55.5 94.5t-99.5 35.5zM2059 420q-50 0 -82 -35t-32 -95v-290h-101v510h100v-63q19 31 49.5 49t72.5 18h35v-94h-42z" />
    <glyph glyph-name="idotaccent" horiz-adv-x="253" 
d="M75 0zM127 630q-21 0 -36.5 15.5t-15.5 35.5q0 22 15.5 37t36.5 15q20 0 35 -15t15 -37q0 -20 -15 -35.5t-35 -15.5zM165 0h-77v527h77v-527z" />
    <glyph glyph-name="cordinal" horiz-adv-x="392" 
d="M206 325q-35 0 -64.5 12t-51 34t-33.5 53t-12 69v48q0 38 12 69t33.5 53t51 34t64.5 12q60 0 101.5 -35t52.5 -95h-66q-9 34 -32 53.5t-56 19.5q-45 0 -70.5 -31t-25.5 -83v-42q0 -52 25.5 -82.5t70.5 -30.5q34 0 57 19t31 52h66q-11 -60 -53 -94.5t-101 -34.5z" />
    <glyph glyph-name="a.school" horiz-adv-x="606" 
d="M443 0v94q-26 -49 -70 -76.5t-102 -27.5q-45 0 -83.5 17t-66 47.5t-43.5 73.5t-16 96v79q0 52 15.5 95t43.5 74t66.5 47.5t83.5 16.5q57 0 101.5 -26.5t70.5 -74.5v92h77v-527h-77zM443 296q0 39 -11 70.5t-31 54t-48 35t-63 12.5t-63 -12.5t-47.5 -35t-30.5 -54
t-11 -70.5v-65q0 -78 41.5 -125.5t110.5 -47.5q70 0 111.5 47.5t41.5 125.5v65z" />
    <glyph glyph-name="aacute.school" horiz-adv-x="606" 
d="M62 0zM443 0v94q-26 -49 -70 -76.5t-102 -27.5q-45 0 -83.5 17t-66 47.5t-43.5 73.5t-16 96v79q0 52 15.5 95t43.5 74t66.5 47.5t83.5 16.5q57 0 101.5 -26.5t70.5 -74.5v92h77v-527h-77zM443 296q0 39 -11 70.5t-31 54t-48 35t-63 12.5t-63 -12.5t-47.5 -35t-30.5 -54
t-11 -70.5v-65q0 -78 41.5 -125.5t110.5 -47.5q70 0 111.5 47.5t41.5 125.5v65zM438 741l-129 -130h-77l114 130h92z" />
    <glyph glyph-name="abreve.school" horiz-adv-x="606" 
d="M62 0zM443 0v94q-26 -49 -70 -76.5t-102 -27.5q-45 0 -83.5 17t-66 47.5t-43.5 73.5t-16 96v79q0 52 15.5 95t43.5 74t66.5 47.5t83.5 16.5q57 0 101.5 -26.5t70.5 -74.5v92h77v-527h-77zM443 296q0 39 -11 70.5t-31 54t-48 35t-63 12.5t-63 -12.5t-47.5 -35t-30.5 -54
t-11 -70.5v-65q0 -78 41.5 -125.5t110.5 -47.5q70 0 111.5 47.5t41.5 125.5v65zM292 667q13 0 26 3t25 11.5t21.5 23t15.5 37.5l55 -17q-14 -54 -53.5 -83.5t-89.5 -29.5t-89.5 29t-53.5 84l55 17q13 -46 37.5 -60.5t50.5 -14.5z" />
    <glyph glyph-name="acircumflex.school" horiz-adv-x="606" 
d="M62 0zM443 0v94q-26 -49 -70 -76.5t-102 -27.5q-45 0 -83.5 17t-66 47.5t-43.5 73.5t-16 96v79q0 52 15.5 95t43.5 74t66.5 47.5t83.5 16.5q57 0 101.5 -26.5t70.5 -74.5v92h77v-527h-77zM443 296q0 39 -11 70.5t-31 54t-48 35t-63 12.5t-63 -12.5t-47.5 -35t-30.5 -54
t-11 -70.5v-65q0 -78 41.5 -125.5t110.5 -47.5q70 0 111.5 47.5t41.5 125.5v65zM145 612l109 130h78l109 -130h-71l-77 84l-77 -84h-71z" />
    <glyph glyph-name="adieresis.school" horiz-adv-x="606" 
d="M62 0zM443 0v94q-26 -49 -70 -76.5t-102 -27.5q-45 0 -83.5 17t-66 47.5t-43.5 73.5t-16 96v79q0 52 15.5 95t43.5 74t66.5 47.5t83.5 16.5q57 0 101.5 -26.5t70.5 -74.5v92h77v-527h-77zM443 296q0 39 -11 70.5t-31 54t-48 35t-63 12.5t-63 -12.5t-47.5 -35t-30.5 -54
t-11 -70.5v-65q0 -78 41.5 -125.5t110.5 -47.5q70 0 111.5 47.5t41.5 125.5v65zM206 624q-20 0 -35 15t-15 36t15 35.5t35 14.5t35 -14.5t15 -35.5t-15 -36t-35 -15zM380 624q-20 0 -35 15t-15 36t15 35.5t35 14.5t35 -14.5t15 -35.5t-15 -36t-35 -15z" />
    <glyph glyph-name="agrave.school" horiz-adv-x="606" 
d="M62 0zM443 0v94q-26 -49 -70 -76.5t-102 -27.5q-45 0 -83.5 17t-66 47.5t-43.5 73.5t-16 96v79q0 52 15.5 95t43.5 74t66.5 47.5t83.5 16.5q57 0 101.5 -26.5t70.5 -74.5v92h77v-527h-77zM443 296q0 39 -11 70.5t-31 54t-48 35t-63 12.5t-63 -12.5t-47.5 -35t-30.5 -54
t-11 -70.5v-65q0 -78 41.5 -125.5t110.5 -47.5q70 0 111.5 47.5t41.5 125.5v65zM351 611h-78l-128 130h92z" />
    <glyph glyph-name="amacron.school" horiz-adv-x="606" 
d="M62 0zM443 0v94q-26 -49 -70 -76.5t-102 -27.5q-45 0 -83.5 17t-66 47.5t-43.5 73.5t-16 96v79q0 52 15.5 95t43.5 74t66.5 47.5t83.5 16.5q57 0 101.5 -26.5t70.5 -74.5v92h77v-527h-77zM443 296q0 39 -11 70.5t-31 54t-48 35t-63 12.5t-63 -12.5t-47.5 -35t-30.5 -54
t-11 -70.5v-65q0 -78 41.5 -125.5t110.5 -47.5q70 0 111.5 47.5t41.5 125.5v65zM416 640h-248v55h248v-55z" />
    <glyph glyph-name="aogonek.school" horiz-adv-x="606" 
d="M520 0q-25 -21 -40.5 -38.5t-24.5 -32.5t-12 -28t-3 -25q0 -49 50 -49q9 0 18.5 1t17.5 4l8 -45q-24 -8 -52 -8q-48 0 -72 24t-24 61q0 31 15.5 63t61.5 73h-20v94q-26 -49 -70 -76.5t-102 -27.5q-45 0 -83.5 17t-66 47.5t-43.5 73.5t-16 96v79q0 52 15.5 95t43.5 74
t66.5 47.5t83.5 16.5q57 0 101.5 -26.5t70.5 -74.5v92h77v-527zM443 296q0 39 -11 70.5t-31 54t-48 35t-63 12.5t-63 -12.5t-47.5 -35t-30.5 -54t-11 -70.5v-65q0 -78 41.5 -125.5t110.5 -47.5q70 0 111.5 47.5t41.5 125.5v65z" />
    <glyph glyph-name="aring.school" horiz-adv-x="606" 
d="M62 0zM443 0v94q-26 -49 -70 -76.5t-102 -27.5q-45 0 -83.5 17t-66 47.5t-43.5 73.5t-16 96v79q0 52 15.5 95t43.5 74t66.5 47.5t83.5 16.5q57 0 101.5 -26.5t70.5 -74.5v92h77v-527h-77zM443 296q0 39 -11 70.5t-31 54t-48 35t-63 12.5t-63 -12.5t-47.5 -35t-30.5 -54
t-11 -70.5v-65q0 -78 41.5 -125.5t110.5 -47.5q70 0 111.5 47.5t41.5 125.5v65zM292 594q-22 0 -41 8t-33.5 22t-22.5 32.5t-8 39.5t8 39.5t22.5 32.5t33.5 22t41 8t41 -8t33 -22t22.5 -32.5t8.5 -39.5t-8.5 -39.5t-22.5 -32.5t-33 -22t-41 -8zM292 635q26 0 44 17.5
t18 43.5t-18 43.5t-44 17.5t-44 -17.5t-18 -43.5t18 -43.5t44 -17.5z" />
    <glyph glyph-name="atilde.school" horiz-adv-x="606" 
d="M62 0zM443 0v94q-26 -49 -70 -76.5t-102 -27.5q-45 0 -83.5 17t-66 47.5t-43.5 73.5t-16 96v79q0 52 15.5 95t43.5 74t66.5 47.5t83.5 16.5q57 0 101.5 -26.5t70.5 -74.5v92h77v-527h-77zM443 296q0 39 -11 70.5t-31 54t-48 35t-63 12.5t-63 -12.5t-47.5 -35t-30.5 -54
t-11 -70.5v-65q0 -78 41.5 -125.5t110.5 -47.5q70 0 111.5 47.5t41.5 125.5v65zM231 733q16 0 32.5 -9.5t32.5 -21t29.5 -21t23.5 -9.5q14 0 23.5 13t20.5 50l51 -12q-27 -105 -91 -105q-16 0 -33 9.5t-32.5 20.5t-29 20.5t-23.5 9.5q-14 0 -23.5 -13t-21.5 -50l-51 12
q29 106 92 106z" />
    <glyph glyph-name="caronSlovak" horiz-adv-x="167" 
d="M48 700h79l-38 -205h-60z" />
    <glyph glyph-name="uni00200326" horiz-adv-x="210" 
d="M51 -222q23 3 37.5 18t14.5 30q0 7 -7 12t-16 10.5t-16 13.5t-7 23q0 17 12.5 29.5t29.5 12.5q23 0 37 -18.5t14 -50.5q0 -42 -26 -75.5t-73 -38.5v34v0z" />
    <glyph glyph-name="colon.alt" horiz-adv-x="212" 
d="M55 116zM106 219q21 0 36 -15t15 -37q0 -21 -15 -36t-36 -15t-36 15t-15 36q0 22 15 37t36 15zM106 551q21 0 36 -15t15 -37q0 -21 -15 -36t-36 -15t-36 15t-15 36q0 22 15 37t36 15z" />
    <glyph glyph-name="reversequoteleft" horiz-adv-x="219" 
d="M161 502q-54 8 -87.5 52.5t-33.5 109.5q0 38 16 59.5t44 21.5q20 0 34 -14t14 -34q0 -17 -9 -27t-19.5 -17t-19 -13.5t-8.5 -16.5q0 -13 6 -26t15.5 -24t22 -19t25.5 -10v-42z" />
    <glyph glyph-name="reversequotedblleft" horiz-adv-x="385" 
d="M161 502q-54 8 -87.5 52.5t-33.5 109.5q0 38 16 59.5t44 21.5q20 0 34 -14t14 -34q0 -17 -9 -27t-19.5 -17t-19 -13.5t-8.5 -16.5q0 -13 6 -26t15.5 -24t22 -19t25.5 -10v-42zM327 502q-54 8 -87.5 52.5t-33.5 109.5q0 38 16 59.5t44 21.5q20 0 34 -14t14 -34
q0 -17 -9 -27t-19.5 -17t-19 -13.5t-8.5 -16.5q0 -13 6 -26t15.5 -24t22 -19t25.5 -10v-42z" />
    <glyph glyph-name="at.cap" horiz-adv-x="837" 
d="M57 0zM404 170q-36 0 -68 13.5t-55.5 37.5t-37 55.5t-13.5 67.5t13.5 67.5t37 55t55.5 37t68 13.5q35 0 64.5 -13t52.5 -36v42h63v-222q0 -23 14.5 -39.5t42.5 -16.5q37 0 60.5 38t23.5 97q0 64 -23 118t-64 93t-97.5 61t-123.5 22q-64 0 -120 -24.5t-97 -66.5t-65 -99
t-24 -122t23.5 -121.5t65 -98.5t97 -66t118.5 -24q61 0 114.5 18.5t95.5 53.5l36 -38q-49 -40 -111 -62t-133 -22q-75 0 -140.5 28t-114.5 77t-77 114.5t-28 140.5t28.5 141t77.5 115t115 77.5t141 28.5q78 0 144 -25.5t114.5 -71.5t75.5 -108.5t27 -136.5q0 -45 -12 -80
t-32 -59t-46 -37t-54 -13q-35 0 -61 14t-40 41q-23 -30 -56.5 -47.5t-74.5 -17.5zM408 227q24 0 44.5 9.5t36 25t24.5 37t9 45.5t-9 45t-24.5 37t-36 25t-44.5 9t-44.5 -9t-36 -25t-24.5 -37t-9 -45t9 -45.5t24.5 -37.5t36 -25t44.5 -9z" />
    <glyph glyph-name="dollar.alt" horiz-adv-x="549" 
d="M243 -64v84q-42 6 -77 22.5t-61 42.5t-43 59.5t-21 74.5h76q11 -66 55.5 -103t116.5 -37q66 0 101 30t35 80q0 42 -27 68.5t-85 44.5l-108 32q-157 47 -157 173q0 39 14.5 71.5t41 56t62 36.5t77.5 15v76h62v-80q78 -14 128.5 -66.5t59.5 -132.5h-75q-11 66 -53 102.5
t-111 36.5q-57 0 -94 -30.5t-37 -79.5q0 -39 26 -64.5t80 -42.5l112 -34q80 -24 120 -66t40 -108q0 -78 -52.5 -127t-143.5 -54v-80h-62z" />
    <glyph glyph-name="NTD" horiz-adv-x="1767" 
d="M1480 -59v76q-38 6 -70.5 21.5t-56.5 39t-39 54.5t-19 69h69q8 -49 38 -81t78 -42v217l-35 10q-147 44 -147 159q0 36 13.5 66t38 51.5t58 33.5t72.5 14v71h58v-74q73 -13 119.5 -61t55.5 -122h-70q-8 48 -34.5 79t-70.5 42v-214l35 -10q75 -22 112.5 -60t37.5 -98
q0 -73 -49.5 -118.5t-135.5 -49.5v-73h-58zM92 0v642h82l360 -538v538h69v-642h-79l-363 539l1 -539h-70zM714 642h522v-65h-225v-577h-73v577h-224v65zM1480 365v204q-50 -3 -81.5 -30t-31.5 -69q0 -38 24.5 -62t75.5 -39zM1538 281v-207q55 3 85 30t30 70q0 38 -25.5 63.5
t-80.5 40.5z" />
    <glyph glyph-name=".ttfautohint" horiz-adv-x="369" 
d="M0 0z" />
    </font>
</defs>
</svg>
